<svg width="521" height="490" viewBox="0 0 521 490" fill="none" xmlns="http://www.w3.org/2000/svg">
<g clip-path="url(#clip0_974_16409)">
<path d="M340.097 37.4924C340.097 37.4924 254.607 3.894 172.84 51.3105C91.0738 98.7269 51.8096 196.292 17.9212 274.373C-15.9672 352.454 6.93097 433.483 71.3441 471.929C135.757 510.375 177.447 457.508 266.374 457.352C355.3 457.197 379.577 471.074 452.018 420.963C524.459 370.851 534.502 248.013 473.804 155.216C413.107 62.4195 340.097 37.4924 340.097 37.4924Z" fill="#04AF49"/>
<path opacity="0.7" d="M340.097 37.4924C340.097 37.4924 254.607 3.894 172.84 51.3105C91.0738 98.7269 51.8096 196.292 17.9212 274.373C-15.9672 352.454 6.93097 433.483 71.3441 471.929C135.757 510.375 177.447 457.508 266.374 457.352C355.3 457.197 379.577 471.074 452.018 420.963C524.459 370.851 534.502 248.013 473.804 155.216C413.107 62.4195 340.097 37.4924 340.097 37.4924Z" fill="white"/>
<path d="M437.924 50.7516C435.833 49.6088 434.886 50.5578 434.12 49.6088C433.354 48.6598 436.211 46.1973 430.51 43.7162C430.51 43.7162 430.133 38.3912 422.342 38.1974C414.551 38.0035 416.653 43.5224 414.562 44.8482C412.471 46.174 411.901 44.093 409.811 45.4188C407.722 46.7447 408.669 49.4072 406.967 49.7948C405.265 50.1825 402.98 48.0813 400.89 49.4072C398.801 50.733 398.799 51.8758 397.852 51.8758C396.905 51.8758 395.008 51.1207 393.865 51.8758C392.723 52.631 391.397 53.5893 391.397 53.5893H439.412C439.549 53.0154 439.474 52.4115 439.2 51.8886C438.927 51.3657 438.474 50.9592 437.925 50.7439L437.924 50.7516Z" stroke="#92989B" stroke-linecap="round" stroke-linejoin="round"/>
<path d="M409.501 49.9639C409.229 50.1194 408.944 50.2527 408.65 50.3624" stroke="#92989B" stroke-linecap="round" stroke-linejoin="round"/>
<path d="M419.778 41.0928C419.306 41.3022 418.89 41.622 418.566 42.0254C418.243 42.4287 418.02 42.9039 417.918 43.411C417.563 45.1462 416.754 46.3108 415.827 46.4286C414.9 46.5465 411.42 46.1914 410.85 47.5141C410.692 47.8874 410.58 48.2784 410.517 48.6787" stroke="#92989B" stroke-linecap="round" stroke-linejoin="round"/>
<path d="M404.684 49.5439H408.024" stroke="#92989B" stroke-linecap="round" stroke-linejoin="round"/>
<path d="M434.12 49.5438H456.577C456.577 49.5438 458.387 44.1536 451.771 40.522C445.156 36.8903 442.137 39.9188 439.743 36.912C437.348 33.9052 446.358 26.079 428.311 18.2528C428.311 18.2528 427.103 1.39386 402.45 0.790646C377.797 0.187434 384.391 17.6496 377.776 21.8643C371.16 26.079 369.36 19.4499 362.69 23.6646C356.02 27.8793 359.112 36.3522 353.699 37.5152C348.286 38.6782 341.06 32.1251 334.444 36.3072C327.828 40.4894 327.828 44.1335 324.811 44.1335C321.795 44.1335 315.793 41.7299 312.183 44.1335C308.573 46.537 304.359 49.5236 304.359 49.5236H400.894" stroke="#92989B" stroke-linecap="round" stroke-linejoin="round"/>
<path d="M361.712 38.042C360.851 38.5343 359.954 38.9594 359.028 39.3135" stroke="#92989B" stroke-linecap="round" stroke-linejoin="round"/>
<path d="M364.976 33.8261C365.189 32.5551 365.554 31.3141 366.061 30.1293C367.893 26.0867 378.905 27.197 381.847 26.831C384.789 26.4651 387.353 22.7884 388.452 17.2804C388.777 15.6741 389.481 14.1688 390.506 12.89C391.531 11.6111 392.846 10.5958 394.342 9.92871" stroke="#92989B" stroke-linecap="round" stroke-linejoin="round"/>
<path d="M121.89 50.1472C118.873 48.4973 117.505 49.8665 116.406 48.4973C115.307 47.128 119.422 43.5599 111.202 39.9918C111.202 39.9918 110.652 32.3175 99.4211 32.0477C88.1905 31.7779 91.2055 39.722 88.1503 41.6417C85.095 43.5615 84.3137 40.5563 81.2972 42.4605C78.2807 44.3647 79.6805 48.2057 77.2127 48.7764C74.7449 49.347 71.4587 46.3077 68.4422 48.2259C65.4257 50.1441 65.4257 51.7831 64.0569 51.7831C62.6882 51.7831 59.9414 50.6977 58.303 51.7831C56.6645 52.8686 54.7393 54.2549 54.7393 54.2549H124.099C124.288 53.4188 124.169 52.5424 123.763 51.7874C123.357 51.0324 122.692 50.4498 121.89 50.1472V50.1472Z" stroke="#92989B" stroke-linecap="round" stroke-linejoin="round"/>
<path d="M80.8643 49.0166C80.4732 49.2395 80.0666 49.4339 79.6475 49.5981" stroke="#92989B" stroke-linecap="round" stroke-linejoin="round"/>
<path d="M95.6853 36.2109C95.0039 36.5189 94.4064 36.9861 93.9432 37.5734C93.48 38.1606 93.1647 38.8506 93.0238 39.5852C92.5169 42.0973 91.3543 43.772 90.0182 43.8961C88.682 44.0201 83.6627 43.5627 82.821 45.4049C82.5951 45.9588 82.4359 46.5377 82.3467 47.1292" stroke="#92989B" stroke-linecap="round" stroke-linejoin="round"/>
<path d="M431.008 212.825C428.723 211.584 427.689 212.62 426.859 211.584C426.03 210.548 429.144 207.844 422.916 205.117C422.916 205.117 422.496 199.306 413.983 199.091C405.47 198.875 407.754 204.912 405.471 206.366C403.188 207.821 402.562 205.537 400.277 206.987C397.992 208.436 399.037 211.297 397.163 211.761C395.288 212.225 392.799 209.9 390.525 211.341C388.251 212.781 388.24 214.047 387.195 214.047C386.151 214.047 384.081 213.217 382.832 214.047C381.582 214.876 380.138 215.908 380.138 215.908H432.677C432.817 215.279 432.726 214.62 432.419 214.054C432.112 213.487 431.611 213.051 431.008 212.825V212.825Z" stroke="#92989B" stroke-linecap="round" stroke-linejoin="round"/>
<path d="M399.934 211.974C399.634 212.142 399.324 212.289 399.004 212.416" stroke="#92989B" stroke-linecap="round" stroke-linejoin="round"/>
<path d="M411.169 202.272C410.654 202.503 410.202 202.853 409.85 203.294C409.497 203.735 409.255 204.253 409.143 204.806C408.767 206.714 407.872 207.976 406.858 208.105C405.845 208.233 402.042 207.846 401.417 209.247C401.243 209.654 401.124 210.081 401.062 210.519" stroke="#92989B" stroke-linecap="round" stroke-linejoin="round"/>
<path d="M0.939453 350.614L401.247 450.547" stroke="#808080" stroke-linecap="round" stroke-linejoin="round"/>
<path d="M269.089 418.068L514.837 309.599" stroke="#808080" stroke-linecap="round" stroke-linejoin="round"/>
<path d="M12.0687 311.506C12.0687 311.506 29.6314 313.242 38.5755 324.151C41.7721 320.274 45.7882 317.154 50.3346 315.016C54.8811 312.878 59.8448 311.776 64.8684 311.787C68.9889 306.804 71.6102 300.753 72.4275 294.339C73.2448 287.924 72.2244 281.409 69.4851 275.551C66.7458 269.694 62.4002 264.735 56.9538 261.252C51.5074 257.768 45.1842 255.903 38.7199 255.874C32.2556 255.845 25.9159 257.653 20.4384 261.087C14.961 264.522 10.571 269.441 7.77918 275.274C4.98736 281.107 3.90852 287.612 4.66817 294.034C5.42782 300.456 7.99474 306.53 12.0703 311.55L12.0687 311.506Z" fill="#04AF49"/>
<path opacity="0.4" d="M12.0687 311.506C12.0687 311.506 29.6314 313.242 38.5755 324.151C41.7721 320.274 45.7882 317.154 50.3346 315.016C54.8811 312.878 59.8448 311.776 64.8684 311.787C68.9889 306.804 71.6102 300.753 72.4275 294.339C73.2448 287.924 72.2244 281.409 69.4851 275.551C66.7458 269.694 62.4002 264.735 56.9538 261.252C51.5074 257.768 45.1842 255.903 38.7199 255.874C32.2556 255.845 25.9159 257.653 20.4384 261.087C14.961 264.522 10.571 269.441 7.77918 275.274C4.98736 281.107 3.90852 287.612 4.66817 294.034C5.42782 300.456 7.99474 306.53 12.0703 311.55L12.0687 311.506Z" fill="white"/>
<path d="M39.6858 360.466L37.9544 271.172L37.5234 359.926L39.6858 360.466Z" fill="#828282"/>
<path d="M38.8363 320.819C38.8363 320.819 44.7732 310.136 55.4411 306.903C55.4411 306.903 44.1811 309.566 38.5449 318.76L38.8363 320.819Z" fill="#828282"/>
<path d="M38.3926 291.167C38.3926 291.167 44.7713 279.892 55.4437 276.637C55.4437 276.637 44.0753 279.73 38.4406 288.924L38.3926 291.167Z" fill="#828282"/>
<path d="M38.5775 306.081C38.5775 306.081 44.7779 295.054 55.4411 291.814C55.4411 291.814 44.1811 294.477 38.5449 303.671L38.5775 306.081Z" fill="#828282"/>
<path d="M37.9682 298.282C37.9682 298.282 32.2467 287.61 21.9463 284.345C21.9463 284.345 32.8187 287.018 38.2488 296.201L37.9682 298.282Z" fill="#828282"/>
<path d="M37.9682 313.102C37.9682 313.102 32.2467 302.43 21.9463 299.164C21.9463 299.164 32.8187 301.837 38.2488 311.02L37.9682 313.102Z" fill="#828282"/>
<path d="M66.1506 340.665C66.1506 340.665 77.3563 341.75 83.0468 348.728C85.0883 346.254 87.6528 344.263 90.5555 342.899C93.4583 341.535 96.6273 340.831 99.8344 340.838C102.466 337.659 104.14 333.797 104.663 329.702C105.185 325.608 104.535 321.449 102.787 317.71C101.039 313.97 98.2662 310.805 94.7901 308.581C91.3139 306.357 87.2779 305.166 83.1516 305.147C79.0254 305.128 74.9786 306.281 71.4821 308.473C67.9857 310.665 65.1834 313.805 63.4013 317.528C61.6192 321.251 60.9307 325.404 61.4157 329.503C61.9008 333.602 63.5395 337.48 66.1413 340.683L66.1506 340.665Z" fill="#04AF49"/>
<path opacity="0.2" d="M66.1506 340.665C66.1506 340.665 77.3563 341.75 83.0468 348.728C85.0883 346.254 87.6528 344.263 90.5555 342.899C93.4583 341.535 96.6273 340.831 99.8344 340.838C102.466 337.659 104.14 333.797 104.663 329.702C105.185 325.608 104.535 321.449 102.787 317.71C101.039 313.97 98.2662 310.805 94.7901 308.581C91.3139 306.357 87.2779 305.166 83.1516 305.147C79.0254 305.128 74.9786 306.281 71.4821 308.473C67.9857 310.665 65.1834 313.805 63.4013 317.528C61.6192 321.251 60.9307 325.404 61.4157 329.503C61.9008 333.602 63.5395 337.48 66.1413 340.683L66.1506 340.665Z" fill="white"/>
<path d="M83.779 371.931L82.6691 314.921L82.3994 371.586L83.779 371.931Z" fill="#828282"/>
<path d="M83.2375 346.615C83.2375 346.615 87.0197 339.803 93.8402 337.711C93.8402 337.711 86.6431 339.417 83.0654 345.257L83.2375 346.615Z" fill="#828282"/>
<path d="M82.96 327.675C82.96 327.675 87.0228 320.486 93.8433 318.405C93.8433 318.405 86.581 320.378 82.9817 326.242L82.96 327.675Z" fill="#828282"/>
<path d="M83.0674 337.206C83.0674 337.206 87.0217 330.145 93.8422 328.064C93.8422 328.064 86.645 329.77 83.0674 335.61V337.206Z" fill="#828282"/>
<path d="M82.6799 332.224C82.6799 332.224 79.0279 325.412 72.4492 323.32C76.713 324.502 80.4084 327.18 82.8582 330.866L82.6799 332.224Z" fill="#828282"/>
<path d="M82.6792 341.688C82.6792 341.688 79.0256 334.929 72.4531 332.773C76.7168 333.955 80.4122 336.634 82.8621 340.319L82.6792 341.688Z" fill="#828282"/>
<path d="M222.034 379.124C222.034 379.124 233.251 380.21 238.93 387.188C240.975 384.714 243.541 382.723 246.446 381.359C249.35 379.995 252.52 379.291 255.729 379.298C258.364 376.117 260.042 372.253 260.567 368.156C261.092 364.059 260.442 359.896 258.695 356.154C256.947 352.411 254.172 349.242 250.693 347.016C247.215 344.789 243.176 343.597 239.046 343.578C234.917 343.559 230.867 344.714 227.368 346.908C223.869 349.103 221.066 352.246 219.283 355.972C217.501 359.699 216.813 363.855 217.301 367.957C217.788 372.059 219.43 375.938 222.036 379.143L222.034 379.124Z" fill="#04AF49"/>
<path opacity="0.4" d="M222.034 379.124C222.034 379.124 233.251 380.21 238.93 387.188C240.975 384.714 243.541 382.723 246.446 381.359C249.35 379.995 252.52 379.291 255.729 379.298C258.364 376.117 260.042 372.253 260.567 368.156C261.092 364.059 260.442 359.896 258.695 356.154C256.947 352.411 254.172 349.242 250.693 347.016C247.215 344.789 243.176 343.597 239.046 343.578C234.917 343.559 230.867 344.714 227.368 346.908C223.869 349.103 221.066 352.246 219.283 355.972C217.501 359.699 216.813 363.855 217.301 367.957C217.788 372.059 219.43 375.938 222.036 379.143L222.034 379.124Z" fill="white"/>
<path d="M239.673 410.426L238.563 353.416L238.282 410.082L239.673 410.426Z" fill="#828282"/>
<path d="M239.133 385.118C239.133 385.118 242.915 378.295 249.725 376.214C249.725 376.214 242.539 377.92 238.95 383.759L239.133 385.118Z" fill="#828282"/>
<path d="M238.844 366.189C238.844 366.189 242.917 359 249.727 356.919C249.727 356.919 242.476 358.891 238.876 364.756L238.844 366.189Z" fill="#828282"/>
<path d="M238.994 375.696C238.994 375.696 242.948 368.647 249.769 366.555C249.769 366.555 242.583 368.26 238.994 374.1V375.696Z" fill="#828282"/>
<path d="M238.574 370.728C238.574 370.728 234.922 363.905 228.344 361.824C232.607 363.006 236.303 365.684 238.753 369.37L238.574 370.728Z" fill="#828282"/>
<path d="M238.574 380.203C238.574 380.203 234.922 373.391 228.344 371.299C232.605 372.485 236.299 375.163 238.753 378.844L238.574 380.203Z" fill="#828282"/>
<path d="M386.872 327.838C386.872 327.838 398.078 328.924 403.769 335.902C405.81 333.427 408.375 331.436 411.277 330.072C414.18 328.708 417.349 328.004 420.556 328.012C423.193 324.832 424.872 320.967 425.398 316.869C425.924 312.772 425.276 308.608 423.528 304.865C421.781 301.121 419.006 297.952 415.527 295.725C412.048 293.498 408.008 292.305 403.878 292.286C399.748 292.267 395.698 293.422 392.199 295.617C388.7 297.812 385.896 300.956 384.114 304.683C382.332 308.411 381.645 312.568 382.133 316.67C382.622 320.773 384.265 324.652 386.872 327.857V327.838Z" fill="#04AF49"/>
<path opacity="0.2" d="M386.872 327.838C386.872 327.838 398.078 328.924 403.769 335.902C405.81 333.427 408.375 331.436 411.277 330.072C414.18 328.708 417.349 328.004 420.556 328.012C423.193 324.832 424.872 320.967 425.398 316.869C425.924 312.772 425.276 308.608 423.528 304.865C421.781 301.121 419.006 297.952 415.527 295.725C412.048 293.498 408.008 292.305 403.878 292.286C399.748 292.267 395.698 293.422 392.199 295.617C388.7 297.812 385.896 300.956 384.114 304.683C382.332 308.411 381.645 312.568 382.133 316.67C382.622 320.773 384.265 324.652 386.872 327.857V327.838Z" fill="white"/>
<path d="M404.501 358.169L403.391 302.075L403.121 358.751L404.501 358.169Z" fill="#828282"/>
<path d="M403.961 333.777C403.961 333.777 407.743 326.965 414.564 324.884C414.564 324.884 407.367 326.59 403.789 332.429L403.961 333.777Z" fill="#828282"/>
<path d="M403.682 314.848C403.682 314.848 407.744 307.648 414.565 305.567C414.565 305.567 407.303 307.54 403.703 313.414L403.682 314.848Z" fill="#828282"/>
<path d="M403.789 324.368C403.789 324.368 407.743 317.308 414.564 315.227C414.564 315.227 407.367 316.932 403.789 322.772V324.368Z" fill="#828282"/>
<path d="M403.402 319.386C403.402 319.386 399.75 312.574 393.171 310.493C397.434 311.677 401.129 314.358 403.577 318.045L403.402 319.386Z" fill="#828282"/>
<path d="M403.402 328.861C403.402 328.861 399.75 322.038 393.171 319.957C397.435 321.138 401.13 323.817 403.58 327.503L403.402 328.861Z" fill="#828282"/>
<path d="M424.552 300.307C424.552 300.307 439.044 301.74 446.393 310.731C449.032 307.529 452.349 304.954 456.103 303.19C459.858 301.427 463.958 300.519 468.106 300.534C471.515 296.422 473.687 291.425 474.368 286.126C475.049 280.827 474.211 275.443 471.951 270.602C469.692 265.761 466.104 261.662 461.606 258.782C457.107 255.902 451.884 254.359 446.543 254.334C441.202 254.309 435.965 255.802 431.44 258.64C426.914 261.478 423.288 265.543 420.983 270.363C418.679 275.182 417.79 280.558 418.421 285.863C419.052 291.168 421.177 296.185 424.548 300.329L424.552 300.307Z" fill="#04AF49"/>
<path opacity="0.4" d="M424.552 300.307C424.552 300.307 439.044 301.74 446.393 310.731C449.032 307.529 452.349 304.954 456.103 303.19C459.858 301.427 463.958 300.519 468.106 300.534C471.515 296.422 473.687 291.425 474.368 286.126C475.049 280.827 474.211 275.443 471.951 270.602C469.692 265.761 466.104 261.662 461.606 258.782C457.107 255.902 451.884 254.359 446.543 254.334C441.202 254.309 435.965 255.802 431.44 258.64C426.914 261.478 423.288 265.543 420.983 270.363C418.679 275.182 417.79 280.558 418.421 285.863C419.052 291.168 421.177 296.185 424.548 300.329L424.552 300.307Z" fill="white"/>
<path d="M447.353 339.533L445.92 267.011L445.565 340.275L447.353 339.533Z" fill="#828282"/>
<path d="M446.652 307.983C446.652 307.983 451.544 299.166 460.358 296.481C460.358 296.481 451.058 298.637 446.407 306.269L446.652 307.983Z" fill="#828282"/>
<path d="M446.286 283.515C446.286 283.515 451.544 274.211 460.358 271.518C460.358 271.518 450.972 274.072 446.35 281.661L446.286 283.515Z" fill="#828282"/>
<path d="M446.42 295.822C446.42 295.822 451.535 286.692 460.352 283.966C460.352 283.966 451.052 286.176 446.401 293.765L446.42 295.822Z" fill="#828282"/>
<path d="M445.93 289.394C445.93 289.394 441.199 280.577 432.709 277.893C432.709 277.893 441.673 280.048 446.167 287.68L445.93 289.394Z" fill="#828282"/>
<path d="M445.93 301.622C445.93 301.622 441.199 292.816 432.709 290.121C432.709 290.121 441.673 292.331 446.167 299.92L445.93 301.622Z" fill="#828282"/>
<path d="M73.9402 476.253C73.5426 474.765 72.819 473.385 71.8219 472.213C70.8247 471.04 69.5791 470.104 68.1753 469.473C64.8599 467.856 61.4187 466.512 57.8857 465.452C59.5997 468.034 61.7173 470.323 64.1575 472.232C67.2563 474.194 70.532 475.862 73.9417 477.212" fill="#04AF49"/>
<path d="M91.2654 487.549C90.8667 486.061 90.1414 484.68 89.1423 483.508C88.1432 482.335 86.8954 481.4 85.4897 480.77C82.1786 479.155 78.7409 477.813 75.2109 476.76C76.9249 479.341 79.0425 481.63 81.4827 483.539C84.5824 485.515 87.862 487.193 91.2778 488.551" fill="#04AF49"/>
<path d="M77.953 471.994C77.5543 470.505 76.829 469.125 75.8299 467.952C74.8308 466.779 73.5831 465.844 72.1773 465.214C68.8618 463.598 65.4207 462.253 61.8877 461.193C63.6036 463.777 65.7251 466.066 68.1703 467.973C71.2673 469.947 74.5425 471.626 77.953 472.988" fill="#04AF49"/>
<path d="M94.5205 482.527C94.1264 481.039 93.4039 479.659 92.4063 478.488C91.4086 477.316 90.1612 476.384 88.7556 475.758C85.4331 474.141 81.9847 472.796 78.4443 471.737C80.1583 474.319 82.2759 476.608 84.7161 478.517C87.8132 480.494 91.089 482.175 94.5003 483.539" fill="#04AF49"/>
<path d="M80.9755 467.383C80.4856 464.412 78.8539 461.751 76.429 459.968C73.8847 458.259 71.173 456.814 68.3359 455.655C69.6133 458.34 71.276 460.825 73.2715 463.029C75.6306 465.128 78.2143 466.961 80.9755 468.493" fill="#04AF49"/>
<path d="M95.9207 477.86C94.9722 475.017 92.9546 472.655 90.2953 471.274C87.5344 469.957 84.6467 468.924 81.6768 468.191C83.3475 470.65 85.3697 472.851 87.6788 474.723C90.328 476.433 93.1575 477.847 96.116 478.938" fill="#04AF49"/>
<path d="M84.7365 461.854C84.2348 458.902 82.6091 456.259 80.2009 454.48C77.6566 452.758 74.9458 451.296 72.1094 450.115C73.3824 452.803 75.0455 455.288 77.0449 457.489C79.4021 459.586 81.9819 461.418 84.7381 462.953" fill="#04AF49"/>
<path d="M101.137 469.484C99.7183 466.844 97.3274 464.86 94.4712 463.954C91.506 463.139 88.4666 462.622 85.3984 462.413C87.4741 464.542 89.8478 466.357 92.4452 467.803C95.3498 469.035 98.3816 469.943 101.485 470.509" fill="#04AF49"/>
<path d="M88.0029 456.736C87.6595 454.325 86.4625 452.118 84.6298 450.516C82.7733 449.072 80.7643 447.836 78.6387 446.83C79.5647 449.061 80.7936 451.154 82.2907 453.05C84.0105 454.799 85.9267 456.343 88.0013 457.652" fill="#04AF49"/>
<path d="M100.769 463.201C99.5733 461.092 97.6618 459.482 95.3812 458.662C93.1186 458.005 90.792 457.593 88.4414 457.434C90.1235 459.17 92.038 460.664 94.1303 461.875C96.3712 462.858 98.7174 463.581 101.123 464.03" fill="#04AF49"/>
<path d="M91.0084 450.977C90.6716 448.567 89.478 446.359 87.6462 444.757C85.7922 443.321 83.7912 442.085 81.6768 441.071C82.6011 443.306 83.8341 445.399 85.3397 447.291C87.0576 449.041 88.9699 450.589 91.0394 451.904" fill="#04AF49"/>
<path d="M104.445 457.293C103.181 455.214 101.217 453.654 98.9061 452.896C96.6243 452.306 94.2857 451.963 91.9307 451.872C93.6592 453.57 95.6138 455.02 97.7389 456.183C100.007 457.115 102.376 457.785 104.797 458.177" fill="#04AF49"/>
<path d="M95.5329 445.458C95.1914 443.047 93.9941 440.839 92.1599 439.238C89.2395 436.931 88.421 436.306 88.421 436.306C88.2536 437.263 88.2913 438.246 88.5318 439.188C88.7723 440.13 89.2101 441.01 89.8161 441.77C91.539 443.516 93.4549 445.06 95.5267 446.373" fill="#04AF49"/>
<path d="M106.06 452.012C104.807 449.923 102.845 448.354 100.532 447.592L95.9531 446.352C96.1695 447.299 96.5857 448.189 97.1739 448.962C97.762 449.736 98.5085 450.375 99.3634 450.836C101.629 451.779 103.996 452.46 106.416 452.864" fill="#04AF49"/>
<path d="M99.5852 440.988C100.022 438.595 99.5863 436.124 98.3575 434.025L95.6851 430.059C95.2228 430.914 94.9481 431.859 94.8794 432.829C94.8107 433.8 94.9496 434.774 95.2867 435.686C96.3681 437.89 97.6985 439.962 99.2519 441.862" fill="#04AF49"/>
<path d="M110.155 446.331C108.734 444.355 106.65 442.955 104.283 442.386C100.62 441.707 99.6064 441.535 99.6064 441.535C99.9019 442.463 100.392 443.316 101.045 444.038C101.697 444.76 102.496 445.334 103.389 445.722C105.721 446.471 108.133 446.949 110.575 447.146" fill="#04AF49"/>
<path d="M104.79 437.546C105.732 435.305 105.839 432.8 105.092 430.486C103.756 427.005 103.379 426.045 103.379 426.045C102.747 426.779 102.278 427.639 102.003 428.569C101.728 429.498 101.654 430.475 101.784 431.435C102.361 433.821 103.211 436.132 104.317 438.323" fill="#04AF49"/>
<path d="M114.695 441.751C113.18 439.847 111.03 438.554 108.639 438.107L103.93 437.486C104.272 438.397 104.803 439.224 105.488 439.913C106.174 440.603 106.998 441.139 107.906 441.485C110.277 442.123 112.714 442.487 115.168 442.571" fill="#04AF49"/>
<path d="M108.551 435.788C110.983 435.779 113.331 434.895 115.167 433.298C117.85 430.711 118.577 429.988 118.577 429.988C117.65 429.694 116.672 429.599 115.706 429.71C114.74 429.822 113.808 430.137 112.973 430.635C110.989 432.099 109.18 433.788 107.585 435.669" fill="#04AF49"/>
<path d="M72.9386 478.798C72.8587 478.798 72.7798 478.781 72.7072 478.747C72.6347 478.714 72.5703 478.665 72.5185 478.604C72.4735 478.549 72.44 478.486 72.42 478.418C72.4 478.35 72.3938 478.278 72.4019 478.208C72.41 478.137 72.4322 478.069 72.4671 478.008C72.5021 477.946 72.5491 477.892 72.6053 477.849C78.1597 472.879 82.7035 466.884 85.9874 460.193C91.7228 448.735 100.49 438.753 107.828 435.401C107.893 435.36 107.966 435.334 108.042 435.323C108.117 435.313 108.194 435.319 108.268 435.341C108.341 435.362 108.409 435.399 108.467 435.449C108.525 435.499 108.571 435.561 108.604 435.63C108.636 435.699 108.653 435.775 108.654 435.851C108.655 435.927 108.64 436.003 108.609 436.073C108.579 436.143 108.534 436.206 108.477 436.258C108.421 436.309 108.354 436.348 108.281 436.371C101.151 439.68 92.5816 449.479 86.9578 460.732C83.5935 467.559 78.9434 473.671 73.2626 478.734C73.1639 478.789 73.0506 478.811 72.9386 478.798Z" fill="#04AF49"/>
<path d="M457.297 468.159C456.903 466.671 456.18 465.291 455.183 464.119C454.185 462.948 452.937 462.015 451.532 461.39C448.216 459.774 444.775 458.429 441.242 457.369C442.956 459.951 445.074 462.24 447.514 464.149C450.611 466.125 453.887 467.807 457.298 469.171" fill="#04AF49"/>
<path d="M474.624 479.466C474.225 477.978 473.5 476.597 472.501 475.425C471.502 474.252 470.254 473.317 468.848 472.687C465.533 471.07 462.092 469.726 458.559 468.666C460.273 471.247 462.39 473.536 464.83 475.446C467.931 477.423 471.21 479.105 474.625 480.468" fill="#04AF49"/>
<path d="M461.316 463.889C460.918 462.402 460.193 461.022 459.194 459.851C458.195 458.68 456.946 457.747 455.541 457.12C452.226 455.502 448.785 454.157 445.251 453.1C446.971 455.679 449.092 457.966 451.534 459.876C454.631 461.853 457.906 463.534 461.318 464.899" fill="#04AF49"/>
<path d="M477.889 474.444C477.49 472.955 476.765 471.573 475.766 470.399C474.767 469.226 473.519 468.29 472.113 467.66C468.797 466.043 465.356 464.698 461.823 463.639C463.537 466.22 465.655 468.509 468.095 470.418C471.195 472.396 474.475 474.077 477.89 475.441" fill="#04AF49"/>
<path d="M464.334 459.287C463.834 456.332 462.203 453.687 459.788 451.914C457.246 450.209 454.538 448.764 451.707 447.602C452.981 450.286 454.64 452.77 456.632 454.975C458.993 457.069 461.576 458.898 464.336 460.429" fill="#04AF49"/>
<path d="M479.279 469.776C478.335 466.931 476.321 464.565 473.664 463.179C470.9 461.868 468.013 460.835 465.044 460.097C466.715 462.556 468.737 464.756 471.046 466.628C473.699 468.341 476.532 469.758 479.494 470.854" fill="#04AF49"/>
<path d="M468.095 453.768C467.595 450.815 465.968 448.171 463.557 446.395C461.016 444.664 458.305 443.198 455.466 442.019C456.739 444.706 458.402 447.191 460.401 449.392C462.755 451.493 465.336 453.326 468.095 454.857" fill="#04AF49"/>
<path d="M484.493 461.389C483.071 458.752 480.682 456.77 477.828 455.86C474.867 455.044 471.83 454.531 468.766 454.329C470.834 456.461 473.205 458.277 475.802 459.719C478.706 460.951 481.738 461.859 484.842 462.425" fill="#04AF49"/>
<path d="M471.358 448.659C471.015 446.248 469.818 444.041 467.985 442.439C466.126 441 464.117 439.764 461.994 438.753C462.918 440.985 464.147 443.079 465.646 444.973C467.367 446.724 469.284 448.272 471.358 449.586" fill="#04AF49"/>
<path d="M484.128 455.072C482.933 452.96 481.022 451.347 478.74 450.524C476.477 449.867 474.15 449.459 471.8 449.307C473.484 451.04 475.399 452.534 477.489 453.748C479.734 454.729 482.084 455.452 484.492 455.903" fill="#04AF49"/>
<path d="M474.365 442.881C474.028 440.476 472.834 438.273 471.003 436.678C469.142 435.235 467.129 433.999 465.001 432.992C465.933 435.223 467.165 437.315 468.664 439.212C470.384 440.956 472.296 442.5 474.364 443.814" fill="#04AF49"/>
<path d="M487.801 449.187C486.539 447.109 484.574 445.552 482.263 444.8C479.984 444.187 477.645 443.823 475.287 443.715C477.013 445.416 478.968 446.867 481.095 448.026C483.365 448.963 485.735 449.637 488.158 450.034" fill="#04AF49"/>
<path d="M478.893 437.331C478.55 434.92 477.353 432.713 475.52 431.111C472.6 428.804 471.781 428.179 471.781 428.179C471.614 429.136 471.652 430.119 471.892 431.061C472.133 432.003 472.57 432.883 473.176 433.643C474.897 435.395 476.813 436.942 478.887 438.257" fill="#04AF49"/>
<path d="M489.419 443.915C488.165 441.831 486.209 440.263 483.902 439.495L479.279 438.255C479.501 439.202 479.924 440.091 480.519 440.861C481.114 441.631 481.866 442.264 482.727 442.718C484.991 443.66 487.355 444.34 489.773 444.744" fill="#04AF49"/>
<path d="M482.943 432.89C483.38 430.497 482.945 428.027 481.716 425.928L479.081 421.961C478.618 422.818 478.344 423.765 478.275 424.736C478.206 425.708 478.345 426.684 478.682 427.598C479.765 429.797 481.096 431.865 482.647 433.763" fill="#04AF49"/>
<path d="M493.511 438.236C492.091 436.26 490.006 434.863 487.64 434.302L482.963 433.439C483.26 434.366 483.751 435.218 484.403 435.94C485.056 436.662 485.854 437.237 486.745 437.626C489.083 438.369 491.497 438.847 493.942 439.05" fill="#04AF49"/>
<path d="M488.145 429.461C489.087 427.216 489.194 424.708 488.447 422.39C487.111 418.909 486.735 417.96 486.735 417.96C486.101 418.693 485.63 419.553 485.355 420.483C485.08 421.412 485.007 422.39 485.139 423.35C485.716 425.736 486.565 428.047 487.671 430.238" fill="#04AF49"/>
<path d="M498.058 433.656C496.543 431.752 494.393 430.459 492.002 430.012L487.293 429.392C487.633 430.303 488.164 431.131 488.849 431.821C489.535 432.51 490.36 433.046 491.269 433.391C493.641 434.025 496.077 434.39 498.531 434.476" fill="#04AF49"/>
<path d="M491.908 427.705C494.34 427.695 496.688 426.812 498.523 425.214C501.207 422.628 501.934 421.905 501.934 421.905C501.008 421.608 500.03 421.51 499.063 421.62C498.097 421.729 497.165 422.043 496.33 422.541C494.366 424.01 492.576 425.698 490.996 427.575" fill="#04AF49"/>
<path d="M456.295 470.745C456.215 470.743 456.136 470.724 456.063 470.689C455.991 470.653 455.927 470.603 455.875 470.54C455.787 470.429 455.747 470.286 455.763 470.145C455.78 470.003 455.851 469.874 455.962 469.785C461.523 464.82 466.074 458.829 469.366 452.14C475.101 440.682 483.869 430.69 491.207 427.284C491.272 427.244 491.344 427.217 491.42 427.207C491.496 427.197 491.573 427.203 491.646 427.224C491.719 427.246 491.787 427.283 491.845 427.333C491.903 427.383 491.95 427.444 491.982 427.514C492.014 427.583 492.032 427.658 492.033 427.735C492.034 427.811 492.018 427.887 491.988 427.957C491.957 428.027 491.912 428.09 491.856 428.141C491.799 428.193 491.732 428.232 491.66 428.255C484.537 431.575 475.96 441.363 470.336 452.616C466.969 459.432 462.324 465.536 456.652 470.596C456.553 470.684 456.427 470.736 456.295 470.745Z" fill="#04AF49"/>
<path d="M44.945 464.353C43.0329 463.854 41.0336 463.788 39.093 464.161C37.1524 464.534 35.3196 465.336 33.7284 466.508C29.834 469.182 26.1622 472.166 22.749 475.432C26.7091 475.156 30.5987 474.242 34.2679 472.726C38.4286 470.522 42.3729 467.93 46.0487 464.987" fill="#04AF49"/>
<path d="M70.9019 458.144C69.1892 457.162 67.279 456.575 65.3105 456.426C63.3421 456.276 61.3652 456.569 59.5242 457.282C55.0664 458.845 50.7425 460.766 46.5947 463.027C50.4984 463.795 54.5004 463.93 58.4468 463.425C63.0427 462.393 67.5307 460.928 71.8506 459.049" fill="#04AF49"/>
<path d="M42.7243 457.175C40.814 456.676 38.8163 456.61 36.8775 456.983C34.9386 457.356 33.1076 458.158 31.5186 459.33C27.6218 462.006 23.9465 464.991 20.5283 468.256C24.5106 467.98 28.4221 467.062 32.1123 465.539C36.2494 463.324 40.1769 460.737 43.8466 457.811" fill="#04AF49"/>
<path d="M66.5905 446.028C64.6802 445.529 62.6825 445.464 60.7437 445.837C58.8049 446.21 56.9739 447.012 55.3848 448.184C51.4827 450.852 47.8069 453.838 44.3945 457.11C48.3542 456.83 52.2433 455.917 55.9134 454.404C60.0948 452.196 64.0625 449.605 67.7655 446.664" fill="#04AF49"/>
<path d="M39.5075 450.901C35.9013 449.585 31.9251 449.724 28.4196 451.289C24.8867 453.033 21.54 455.132 18.4307 457.552C22.2301 457.829 26.0496 457.546 29.7666 456.711C33.5992 455.413 37.2775 453.697 40.7351 451.594" fill="#04AF49"/>
<path d="M60.6437 440.865C56.8786 440.121 52.9718 440.872 49.7496 442.957C46.5204 445.215 43.5307 447.797 40.8271 450.664C44.6246 450.36 48.3569 449.5 51.9042 448.11C55.4893 446.237 58.8573 443.974 61.9473 441.363" fill="#04AF49"/>
<path d="M35.736 443.207C32.1279 441.898 28.1529 442.041 24.6481 443.606C21.1143 445.344 17.7673 447.439 14.6592 449.858C18.458 450.135 22.2771 449.856 25.9951 449.028C29.8232 447.721 33.4975 446.001 36.9528 443.897" fill="#04AF49"/>
<path d="M54.6088 429.787C50.7707 429.702 47.0499 431.112 44.2324 433.721C41.4481 436.507 38.9503 439.566 36.7764 442.851C40.4662 441.897 43.9955 440.404 47.2504 438.421C50.459 435.963 53.3859 433.158 55.9775 430.057" fill="#04AF49"/>
<path d="M32.1091 436.339C29.2085 435.191 25.9917 435.126 23.0471 436.156C20.2628 437.3 17.6118 438.746 15.1416 440.466C18.2148 440.848 21.3261 440.801 24.3864 440.327C27.4204 439.513 30.3519 438.356 33.1244 436.878" fill="#04AF49"/>
<path d="M47.3373 426.152C44.2201 426.155 41.2071 427.275 38.8458 429.311C36.6838 431.411 34.7546 433.739 33.0918 436.253C36.0885 435.473 38.9636 434.283 41.636 432.718C44.1601 430.848 46.463 428.696 48.4999 426.304" fill="#04AF49"/>
<path d="M27.5886 429.322C24.6868 428.179 21.4721 428.114 18.5266 429.139C15.7456 430.29 13.0954 431.735 10.6211 433.45C13.6943 433.831 16.8056 433.784 19.8659 433.31C22.9055 432.502 25.8414 431.345 28.6147 429.861" fill="#04AF49"/>
<path d="M43.1241 418.348C40.0064 418.436 37.024 419.641 34.7194 421.744C32.6154 423.908 30.7512 426.293 29.1592 428.858C32.1339 427.997 34.9765 426.731 37.6073 425.096C40.0764 423.153 42.3177 420.936 44.2882 418.489" fill="#04AF49"/>
<path d="M24.2874 420.792C21.3868 419.644 18.17 419.579 15.2255 420.609L9.59082 422.919C10.5528 423.712 11.672 424.292 12.8744 424.62C14.0768 424.948 15.3351 425.017 16.5663 424.823C19.6003 424.009 22.5318 422.852 25.3042 421.375" fill="#04AF49"/>
<path d="M38.263 413.207C35.1431 413.277 32.1524 414.467 29.8366 416.56L25.5273 420.87C26.7214 421.229 27.9782 421.329 29.2139 421.164C30.4496 420.998 31.6358 420.571 32.6935 419.911C35.1736 417.981 37.426 415.775 39.407 413.336" fill="#04AF49"/>
<path d="M21.8751 413.434C19.482 411.429 16.4506 410.347 13.3293 410.384L7.25293 410.804C7.91625 411.86 8.79636 412.762 9.83487 413.452C10.8734 414.141 12.0466 414.602 13.2766 414.803C16.4144 414.995 19.5637 414.825 22.6625 414.296" fill="#04AF49"/>
<path d="M34.5143 404.993C31.4152 405.329 28.5398 406.768 26.4119 409.047C23.3411 412.7 22.501 413.725 22.501 413.725C23.7209 413.979 24.9809 413.971 26.1976 413.702C27.4142 413.432 28.5598 412.907 29.5586 412.162C31.8705 410.029 33.9311 407.638 35.7001 405.037" fill="#04AF49"/>
<path d="M21.3358 405.468C19.4321 403.008 16.7108 401.31 13.6643 400.683C8.94426 399.96 7.64062 399.777 7.64062 399.777C8.05702 400.953 8.71925 402.027 9.58316 402.926C10.4471 403.826 11.4928 404.531 12.6506 404.994C15.6748 405.855 18.7874 406.369 21.928 406.524" fill="#04AF49"/>
<path d="M32.301 397.06C29.2235 397.55 26.4244 399.13 24.4141 401.512L20.7295 406.373C21.9609 406.569 23.2199 406.5 24.4226 406.171C25.6253 405.842 26.7443 405.261 27.705 404.466C29.908 402.221 31.8493 399.734 33.4915 397.051" fill="#04AF49"/>
<path d="M21.7661 400.154C23.293 397.437 23.7942 394.262 23.1783 391.206C21.9925 386.582 21.6483 385.3 21.6483 385.3C20.7323 386.148 20.0068 387.18 19.5202 388.33C19.0335 389.48 18.7968 390.72 18.8256 391.968C19.2154 395.086 19.9602 398.149 21.0453 401.098" fill="#04AF49"/>
<path d="M46.5391 467.285C46.4116 467.284 46.2885 467.239 46.1917 467.156C46.0949 467.073 46.0307 466.958 46.0105 466.832C43.9995 457.465 40.1983 448.574 34.8156 440.649C25.6468 427.036 20.1284 410.963 20.9701 400.681C20.9839 400.539 21.0525 400.41 21.1613 400.319C21.2701 400.228 21.4102 400.184 21.5514 400.195C21.6217 400.199 21.6905 400.217 21.7537 400.248C21.8169 400.28 21.8732 400.323 21.9194 400.376C21.9656 400.429 22.0008 400.491 22.0227 400.558C22.0447 400.625 22.0531 400.696 22.0474 400.766C21.2181 410.854 26.7132 426.636 35.7101 440.066C41.1779 448.122 45.0382 457.159 47.0785 466.68C47.09 466.751 47.0873 466.823 47.0707 466.892C47.0541 466.962 47.0239 467.027 46.9818 467.085C46.9397 467.143 46.8865 467.191 46.8254 467.228C46.7644 467.265 46.6965 467.29 46.6259 467.301L46.5391 467.285Z" fill="#04AF49"/>
<path d="M433.549 465.158C431.963 463.985 430.133 463.182 428.196 462.809C426.259 462.436 424.263 462.502 422.354 463.003C417.74 464.035 413.217 465.441 408.831 467.206C412.611 468.422 416.563 469.018 420.533 468.974C425.217 468.48 429.845 467.55 434.357 466.194" fill="#04AF49"/>
<path d="M460.003 469.064C458.776 467.516 457.22 466.261 455.447 465.391C453.674 464.52 451.73 464.055 449.755 464.031C445.033 463.824 440.301 464.001 435.607 464.56C438.942 466.721 442.602 468.333 446.447 469.334C451.096 470.075 455.803 470.382 460.508 470.25" fill="#04AF49"/>
<path d="M434.163 457.661C432.577 456.488 430.748 455.685 428.81 455.312C426.873 454.939 424.877 455.005 422.968 455.505C418.354 456.537 413.832 457.943 409.445 459.709C413.226 460.925 417.176 461.525 421.147 461.488C425.832 460.993 430.461 460.058 434.971 458.697" fill="#04AF49"/>
<path d="M460.444 456.182C458.857 455.009 457.028 454.207 455.091 453.834C453.153 453.461 451.157 453.527 449.249 454.027C444.634 455.059 440.112 456.465 435.726 458.231C439.508 459.431 443.459 460.017 447.427 459.966C452.113 459.471 456.741 458.536 461.251 457.175" fill="#04AF49"/>
<path d="M433.505 450.643C430.645 448.08 426.901 446.731 423.064 446.881C419.139 447.186 415.255 447.887 411.471 448.973C414.894 450.641 418.542 451.799 422.3 452.411C426.339 452.629 430.389 452.401 434.378 451.732" fill="#04AF49"/>
<path d="M456.856 449.187C453.645 447.084 449.742 446.311 445.972 447.032C442.139 447.935 438.406 449.22 434.83 450.87C438.467 451.998 442.25 452.59 446.058 452.627C450.089 452.224 454.064 451.378 457.91 450.104" fill="#04AF49"/>
<path d="M432.878 442.095C430.016 439.535 426.272 438.186 422.436 438.333C418.511 438.636 414.626 439.337 410.843 440.425C414.248 442.092 417.878 443.254 421.618 443.874C425.656 444.091 429.707 443.863 433.696 443.194" fill="#04AF49"/>
<path d="M455.39 436.63C451.862 435.124 447.887 435.046 444.303 436.414C440.683 437.963 437.228 439.873 433.991 442.116C437.77 442.601 441.6 442.528 445.358 441.9C449.25 440.809 453.012 439.295 456.575 437.385" fill="#04AF49"/>
<path d="M432.062 434.377C429.798 432.233 426.838 430.974 423.723 430.831C420.708 430.869 417.706 431.233 414.77 431.917C417.477 433.411 420.378 434.525 423.39 435.226C426.509 435.607 429.662 435.625 432.785 435.28" fill="#04AF49"/>
<path d="M449.98 430.582C447.084 429.427 443.869 429.347 440.919 430.356C438.131 431.503 435.475 432.949 432.999 434.668C436.07 435.062 439.181 435.029 442.244 434.571C445.284 433.772 448.223 432.627 451.004 431.159" fill="#04AF49"/>
<path d="M430.468 426.174C428.201 424.034 425.242 422.779 422.128 422.639C419.113 422.677 416.111 423.041 413.175 423.724C415.882 425.219 418.783 426.332 421.795 427.033C424.914 427.409 428.067 427.427 431.19 427.088" fill="#04AF49"/>
<path d="M448.97 421.777C446.047 420.689 442.831 420.689 439.908 421.777C437.151 423.004 434.536 424.525 432.106 426.316C435.186 426.623 438.293 426.504 441.34 425.96C444.342 425.075 447.234 423.854 449.961 422.318" fill="#04AF49"/>
<path d="M430.587 417.035C428.323 414.89 425.363 413.631 422.248 413.488L416.149 413.543C416.752 414.629 417.579 415.575 418.574 416.319C419.57 417.062 420.712 417.585 421.925 417.853C425.046 418.217 428.199 418.217 431.32 417.853" fill="#04AF49"/>
<path d="M446.372 415.191C443.449 414.103 440.232 414.103 437.31 415.191C432.924 417.076 431.717 417.616 431.717 417.616C432.694 418.391 433.824 418.95 435.034 419.255C436.243 419.56 437.503 419.604 438.731 419.384C441.754 418.517 444.666 417.305 447.412 415.772" fill="#04AF49"/>
<path d="M431.077 409.304C429.607 406.552 427.193 404.423 424.278 403.311C419.742 401.835 418.48 401.45 418.48 401.45C418.705 402.676 419.187 403.84 419.894 404.866C420.602 405.892 421.519 406.755 422.585 407.4C425.427 408.742 428.414 409.755 431.486 410.418" fill="#04AF49"/>
<path d="M445.93 406.211C442.927 405.372 439.723 405.64 436.901 406.966C432.688 409.209 431.513 409.844 431.513 409.844C432.55 410.536 433.722 410.998 434.951 411.201C436.181 411.404 437.439 411.342 438.643 411.02C441.582 409.905 444.383 408.458 446.994 406.707" fill="#04AF49"/>
<path d="M433.549 401.76C432.691 398.752 430.778 396.153 428.161 394.441C424.046 392.016 422.903 391.358 422.903 391.358C422.855 392.605 423.072 393.847 423.54 395.003C424.008 396.159 424.717 397.202 425.619 398.064C428.122 399.959 430.833 401.561 433.701 402.838" fill="#04AF49"/>
<path d="M446.835 397.986C443.797 397.294 440.611 397.719 437.86 399.183C433.766 401.63 432.646 402.32 432.646 402.32C433.715 402.959 434.908 403.362 436.146 403.504C437.383 403.645 438.637 403.52 439.823 403.138C442.702 401.877 445.428 400.289 447.947 398.406" fill="#04AF49"/>
<path d="M435.919 396.941C438.346 394.986 439.991 392.224 440.552 389.158C441.172 384.414 441.328 383.11 441.328 383.11C440.164 383.554 439.108 384.239 438.23 385.121C437.351 386.004 436.67 387.062 436.231 388.228C435.432 391.271 434.983 394.396 434.895 397.541" fill="#04AF49"/>
<path d="M433.948 468.471C433.827 468.425 433.728 468.337 433.668 468.223C433.609 468.108 433.593 467.976 433.624 467.851C435.229 458.403 434.998 448.734 432.945 439.373C429.534 423.345 430.348 406.356 434.971 397.108C435.041 396.992 435.153 396.908 435.283 396.871C435.414 396.834 435.553 396.848 435.674 396.909C435.795 396.97 435.888 397.074 435.935 397.201C435.983 397.328 435.981 397.468 435.93 397.593C431.415 406.637 430.64 423.344 434.002 439.151C436.081 448.663 436.305 458.486 434.659 468.082C434.644 468.152 434.615 468.217 434.574 468.276C434.533 468.334 434.481 468.384 434.421 468.422C434.361 468.46 434.294 468.486 434.224 468.498C434.154 468.51 434.082 468.508 434.013 468.492L433.948 468.471Z" fill="#04AF49"/>
<path d="M497.09 489.07C495.636 487 487.769 475.78 487.169 475.327C484.528 473.754 481.797 472.336 478.991 471.08C478.506 471.08 468.69 466.66 466.567 466.66C464.443 466.66 456.75 472.222 456.75 472.222L450.705 480.069L441.559 483.302L436.937 489.069L497.09 489.07Z" fill="white" stroke="#263238" stroke-linecap="round" stroke-linejoin="round"/>
<path d="M494.019 484.759L488.158 486.914L483.912 486.418C481.59 485.906 479.241 485.524 476.876 485.275C476.219 485.43 473.439 486.59 472.134 486.914C470.829 487.238 464.117 486.257 463.299 486.257C462.48 486.257 454.153 480.209 454.153 480.209L458.895 470.885H458.723C457.569 471.671 456.762 472.254 456.762 472.254L450.716 480.1L441.571 483.334L436.948 489.071H497.092L494.019 484.759Z" fill="#263238" stroke="#263238" stroke-linecap="round" stroke-linejoin="round"/>
<path d="M477.845 489.071C475.603 485.838 463.405 468.461 462.491 467.771C458.394 465.339 454.163 463.14 449.819 461.185C449.064 461.185 433.853 454.341 430.552 454.341C427.252 454.341 415.349 462.964 415.349 462.964L406.006 475.123L391.826 480.071L384.629 489.065L477.845 489.071Z" fill="white" stroke="#263238" stroke-linecap="round" stroke-linejoin="round"/>
<path d="M473.093 482.301L464.009 485.642L457.426 484.876C457.426 484.876 447.535 482.85 446.521 483.109C445.507 483.367 441.198 485.135 439.172 485.642C437.146 486.149 426.748 484.63 425.488 484.63C424.227 484.63 411.296 475.251 411.296 475.251L418.645 460.796H418.387C416.598 462.013 415.348 462.951 415.348 462.951L406.006 475.121L391.822 480.071L384.63 489.065H477.846C477.123 487.992 475.26 485.362 473.093 482.301Z" fill="#263238" stroke="#263238" stroke-linecap="round" stroke-linejoin="round"/>
<path d="M16.6387 488.974C16.6387 488.974 22.6515 475.683 22.6515 474.723C22.6515 473.763 39.1059 463.33 39.1059 463.33L57.7676 466.186C57.7676 466.186 68.2092 474.095 69.4802 474.095C70.7513 474.095 78.3376 474.405 78.3376 474.405L91.267 480.732L96.6552 488.967H16.6387" fill="white"/>
<path d="M16.6387 488.974C16.6387 488.974 22.6515 475.683 22.6515 474.723C22.6515 473.763 39.1059 463.33 39.1059 463.33L57.7676 466.186C57.7676 466.186 68.2092 474.095 69.4802 474.095C70.7513 474.095 78.3375 474.405 78.3375 474.405L91.267 480.732L96.6552 488.967H16.6387" stroke="#263238" stroke-linecap="round" stroke-linejoin="round"/>
<path d="M22.6515 474.723C22.6515 475.682 16.6387 488.973 16.6387 488.973H96.6877L91.2918 480.738L88.4442 485.168L65.6654 487.075L41.9597 482.322L31.1849 474.104L39.0904 463.325C39.0904 463.325 22.6515 473.775 22.6515 474.723Z" fill="#263238"/>
<path d="M309.161 145.801C309.161 145.801 257.56 156.397 249.845 161.419C239.436 168.188 233.682 177.038 238.918 188.485C244.154 199.932 251.924 197.334 251.924 197.334C251.924 197.334 245.674 273.337 251.924 289.474C258.174 305.61 286.792 308.736 298.256 305.643C309.721 302.549 346.13 295.23 349.255 284.29C352.38 273.35 346.637 163.542 344.589 153.087C342.541 142.633 330.497 134.872 309.161 145.801Z" fill="#263238" stroke="#263238" stroke-linecap="round" stroke-linejoin="round"/>
<path d="M238.918 188.487C244.111 199.945 251.924 197.337 251.924 197.337C251.924 197.337 245.674 273.34 251.924 289.476C258.174 305.612 286.792 308.738 298.256 305.645C309.721 302.551 346.13 295.232 349.255 284.292C349.794 281.413 350.061 278.489 350.051 275.56C338.694 280.13 325.958 285.261 313.351 290.026C277.438 303.555 268.088 286.382 267.018 262.424C265.949 238.467 272.754 182.255 268.104 169.24C263.453 156.225 249.893 161.435 249.893 161.435C239.436 168.187 233.714 177.037 238.918 188.487Z" fill="white" stroke="#263238" stroke-linecap="round" stroke-linejoin="round"/>
<path d="M251.925 197.336C255.366 196.949 258.544 195.305 260.849 192.719C263.154 190.133 264.422 186.787 264.412 183.322C264.93 170.388 257.127 165.105 248.8 171.346C240.472 177.588 244.112 187.515 248.8 188.528C253.487 189.54 259.726 179.16 256.085 177.081C252.444 175.001 250.364 179.162 250.364 182.286" stroke="#263238" stroke-linecap="round" stroke-linejoin="round"/>
<path d="M426.298 108.29C428.11 104.032 430.445 100.016 433.249 96.3354C437.936 90.1916 443.205 83.3097 445.984 83.6059C448.764 83.9021 448.032 84.7813 445.829 86.8391C443.458 89.5452 441.297 92.4279 439.364 95.4624C439.364 95.4624 444.622 99.1157 444.924 101.164C445.226 103.213 443.459 105.27 440.387 107.632C438.61 108.997 436.638 110.087 434.537 110.865C433.293 112.091 432.208 113.466 431.305 114.961L426.628 109.107L426.298 108.29Z" fill="white" stroke="#263238" stroke-linecap="round" stroke-linejoin="round"/>
<path d="M447.18 97.7902C447.815 98.6046 448.151 99.6136 448.128 100.647C447.891 101.951 446.113 105.39 445.284 104.678C444.455 103.967 445.521 101.358 445.639 100.529C445.757 99.6991 445.639 96.8428 445.639 96.8428L447.18 97.7902Z" fill="white" stroke="#263238" stroke-linecap="round" stroke-linejoin="round"/>
<path d="M443.269 93.3812C443.269 93.3812 447.062 95.9895 447.18 97.7681C447.298 99.5467 444.335 103.158 443.387 103.707C442.438 104.256 441.846 103.707 442.083 102.622L443.269 97.2315C443.269 97.2315 441.114 94.3861 441.61 93.1998C442.106 92.0135 443.269 93.3812 443.269 93.3812Z" fill="white" stroke="#263238" stroke-linecap="round" stroke-linejoin="round"/>
<path d="M442.083 92.0771C442.083 92.0771 445.519 94.6854 445.401 96.388C444.759 99.1473 443.503 101.726 441.728 103.934C440.661 104.709 439.821 103.104 440.177 101.918C440.534 100.731 441.007 97.0455 441.007 97.0455L439.41 95.4623" fill="white"/>
<path d="M442.083 92.0771C442.083 92.0771 445.519 94.6854 445.401 96.388C444.759 99.1473 443.503 101.726 441.728 103.934C440.661 104.709 439.821 103.104 440.177 101.918C440.534 100.731 441.007 97.0455 441.007 97.0455L439.41 95.4623" stroke="#263238" stroke-linecap="round" stroke-linejoin="round"/>
<path d="M434.023 98.2433C436.525 97.6774 438.973 96.895 441.34 95.9048C444.119 94.5899 448.656 93.5664 449.09 95.021C449.525 96.4755 446.455 97.6571 443.82 98.5348C442.827 98.7631 441.912 99.2489 441.167 99.9433C440.422 100.638 439.872 101.516 439.574 102.491C438.562 104.689 436.795 107.453 434.459 107.75" fill="white"/>
<path d="M434.023 98.2433C436.525 97.6774 438.973 96.895 441.34 95.9048C444.119 94.5899 448.656 93.5664 449.09 95.021C449.525 96.4755 446.455 97.6571 443.82 98.5348C442.827 98.7631 441.912 99.2489 441.167 99.9433C440.422 100.638 439.872 101.516 439.574 102.491C438.562 104.689 436.795 107.453 434.459 107.75" stroke="#263238" stroke-linecap="round" stroke-linejoin="round"/>
<path d="M278.972 262.635C278.972 262.635 275.977 283.643 277.775 298.367C279.573 313.09 289.984 351.555 287.829 364.486C285.736 378.561 285.98 392.884 288.551 406.88C291.063 419.814 294.66 452.874 294.66 452.874C294.66 452.874 290.706 456.819 291.428 460.42C292.825 465.065 294.502 469.622 296.449 474.066V480.059L316.921 476.589C317.57 473.501 318.051 470.382 318.365 467.243C318.365 465.087 315.843 467.598 318.72 462.575C321.597 457.552 323.751 452.508 322.308 448.918C320.865 445.329 316.21 442.095 316.92 435.262C317.63 428.428 320.519 379.577 321.229 371.665C321.939 363.754 325.194 307.357 325.194 307.357L329.86 304.835C329.86 304.835 336.326 388.912 336.326 399.334C336.326 409.756 337.411 432.027 337.048 436.705C336.685 441.384 332.382 451.074 333.459 452.507C335.056 455.425 336.495 458.427 337.769 461.5C337.769 461.5 337.403 466.523 337.403 470.124C337.586 472.951 338.193 475.734 339.203 478.381L362.908 474.436C362.908 474.436 362.186 466.168 361.476 464.735C360.766 463.302 365.42 459.345 365.42 456.467C365.202 454.172 364.84 451.893 364.335 449.644C364.335 448.559 369.011 438.865 369.366 431.675C369.721 424.484 363.631 373.469 363.631 371.664C363.631 369.859 374.406 326.037 374.406 304.123C374.406 282.209 366.5 255.616 366.5 255.616C366.5 255.616 331.664 265.674 309.036 262.084C286.408 258.494 282.821 257.406 282.821 257.406L278.972 262.635Z" fill="#04AF49" stroke="#263238" stroke-linecap="round" stroke-linejoin="round"/>
<path d="M366.486 255.617C366.486 255.617 331.651 265.673 309.022 262.085C286.394 258.497 282.807 257.407 282.807 257.407L278.97 262.634C278.97 262.634 278.7 264.552 278.367 267.624C283.507 271.116 300.596 280.558 329.851 276.452C354.084 273.023 364.331 266.427 368.351 262.569C367.272 258.258 366.486 255.617 366.486 255.617Z" fill="#263238" stroke="#263238" stroke-linecap="round" stroke-linejoin="round"/>
<path d="M325.183 273.219L324.817 277.53L336.315 276.097L337.747 271.063L325.183 273.219Z" fill="white" stroke="#263238" stroke-linecap="round" stroke-linejoin="round"/>
<path d="M297.168 278.964V270.341L302.556 271.063V279.687" fill="#616161"/>
<path d="M297.168 278.964V270.341L302.556 271.063V279.687" stroke="#263238" stroke-linecap="round" stroke-linejoin="round"/>
<path d="M358.231 272.141V264.953L362.175 262.44C362.175 262.44 362.541 269.986 362.541 271.064" fill="#616161"/>
<path d="M358.231 272.141V264.953L362.175 262.44C362.175 262.44 362.541 269.986 362.541 271.064" stroke="#263238" stroke-linecap="round" stroke-linejoin="round"/>
<path d="M330.582 279.33L330.937 285.798C330.937 285.798 336.691 286.51 335.246 289.743C333.984 292.353 332.544 294.873 330.937 297.287" stroke="white" stroke-linecap="round" stroke-linejoin="round"/>
<path d="M323.385 285.433C323.385 285.433 339.548 282.2 346.016 278.965" stroke="white" stroke-linecap="round" stroke-linejoin="round"/>
<path d="M337.759 277.531L337.037 282.571C337.037 282.571 340.626 285.804 339.548 288.316L337.394 293.35" stroke="white" stroke-linecap="round" stroke-linejoin="round"/>
<path d="M329.849 304.834L346.012 297.656L331.52 312.186L329.849 304.834Z" fill="#263238" stroke="#263238" stroke-linecap="round" stroke-linejoin="round"/>
<path d="M295.741 279.688C295.741 279.688 289.632 292.978 281.732 296.579" stroke="white" stroke-linecap="round" stroke-linejoin="round"/>
<path d="M360.754 272.496C361.205 275.233 362.201 277.852 363.681 280.198C365.162 282.544 367.098 284.569 369.374 286.153" stroke="white" stroke-linecap="round" stroke-linejoin="round"/>
<path d="M286.027 326.037H305.067V330.705L288.904 331.427" stroke="white" stroke-linecap="round" stroke-linejoin="round"/>
<path d="M305.066 330.704C305.066 333.227 307.943 364.12 303.981 371.308C300.019 378.497 291.772 380.287 290.34 377.046" stroke="white" stroke-linecap="round" stroke-linejoin="round"/>
<path d="M371.873 318.491C370.439 318.491 361.82 319.577 361.82 319.577V325.688L370.44 323.165" stroke="white" stroke-linecap="round" stroke-linejoin="round"/>
<path d="M361.829 325.682C361.829 325.682 355.363 365.565 357.163 368.075C357.614 368.778 358.267 369.327 359.038 369.649C359.808 369.97 360.658 370.05 361.474 369.876" stroke="white" stroke-linecap="round" stroke-linejoin="round"/>
<path d="M344.59 464.008C344.59 464.008 354.288 462.923 357.165 461.853C360.042 460.783 340.28 457.185 340.28 457.185C339.194 457.185 338.491 455.03 339.935 452.507C341.38 449.984 337.058 450.351 335.981 452.152C334.904 453.952 341.369 458.975 339.935 460.775C338.502 462.575 339.213 467.964 341.02 467.243C342.439 466.446 343.662 465.341 344.598 464.01L344.59 464.008Z" fill="white" stroke="#263238" stroke-linecap="round" stroke-linejoin="round"/>
<path d="M311.187 465.444C311.187 465.444 301.49 468.322 297.901 467.967C294.313 467.612 315.853 460.059 315.853 460.059C315.853 460.059 320.885 460.42 311.187 465.444Z" fill="white" stroke="#263238" stroke-linecap="round" stroke-linejoin="round"/>
<path d="M360.536 156.763C359.9 156.936 352.175 154.672 346.74 154.887C341.305 155.103 328.54 158.444 327.711 157.399C326.882 156.354 327.065 148.405 327.065 147.774C327.065 147.143 329.382 146.934 334.403 143.797C339.424 140.66 342.355 136.251 341.515 129.996C340.674 123.74 335.447 105.517 335.447 105.517C335.447 105.517 333.141 102.585 327.495 102.164C321.85 101.744 305.751 108.449 300.73 112.631C295.709 116.814 293.402 120.177 295.914 126.223C298.425 132.269 307.849 146.703 308.843 150.077C309.837 153.451 309.263 157.816 307.378 159.071C305.493 160.325 289.397 167.015 288.554 167.694C287.71 168.373 282.704 169.571 280.192 177.73C277.681 185.89 288.554 228.392 289.183 230.256C289.812 232.12 278.515 258.497 278.935 262.679C279.355 266.861 302.781 273.351 322.445 272.726C342.11 272.101 361.84 263.682 364.317 260.75C366.794 257.818 368.077 255.943 366.828 252.806C365.578 249.669 353.898 220.792 353.898 220.792C353.898 220.792 365.406 211.798 365.406 206.143C365.406 200.488 360.018 191.289 360.018 191.289C360.018 191.289 387.269 178.279 401.071 166.153C414.873 154.027 427.234 123.565 429.086 119.803C430.043 117.976 430.882 116.09 431.598 114.156L426.372 108.302C426.372 108.302 406.912 128.603 396.655 138.217C386.398 147.832 367.863 154.92 360.536 156.763Z" fill="#808080" stroke="#263238" stroke-linecap="round" stroke-linejoin="round"/>
<path d="M383.753 166.809L359.912 191.287L367.024 177.487" stroke="#263238" stroke-linecap="round" stroke-linejoin="round"/>
<path d="M423.162 111.847L430.059 117.274L421.815 126.62" stroke="#263238" stroke-linecap="round" stroke-linejoin="round"/>
<path d="M308.85 230.092L324.743 223.064" stroke="#263238" stroke-linecap="round" stroke-linejoin="round"/>
<path d="M330.474 222.795L316.402 228.788" stroke="#263238" stroke-linecap="round" stroke-linejoin="round"/>
<path d="M288.56 167.65C288.56 167.65 297.494 184.11 298.571 199.567C299.648 215.024 280.976 238.371 280.976 238.371L286.007 239.083C286.007 239.083 301.448 219.681 303.959 205.313C306.47 190.944 297.494 164.352 297.494 164.352C297.494 164.352 291.146 164.837 288.56 167.65Z" fill="#263238" stroke="#263238" stroke-linecap="round" stroke-linejoin="round"/>
<path d="M290.263 122.874C290.263 122.874 283.173 117.194 278.97 117.647C274.768 118.1 269.164 128.943 272.278 136.058C275.393 143.172 281.06 146.73 286.287 142.526C288.377 140.886 290.106 138.833 291.367 136.494C292.628 134.156 293.393 131.582 293.614 128.934C293.617 125.591 290.263 122.874 290.263 122.874Z" fill="#263238" stroke="#263238" stroke-linecap="round" stroke-linejoin="round"/>
<path d="M286.922 119.522C286.922 119.522 277.932 113.452 273.529 115.335C272.302 115.804 271.206 116.563 270.334 117.546C269.462 118.529 268.84 119.708 268.52 120.982" stroke="#263238" stroke-linecap="round" stroke-linejoin="round"/>
<path d="M332.014 183.398C333.91 177.394 332.014 164.686 332.208 157.192C329.784 157.579 327.995 157.762 327.704 157.396C326.863 156.311 327.057 148.403 327.057 147.771C327.057 147.14 329.375 146.931 334.395 143.794C339.416 140.657 342.347 136.248 341.507 129.993C340.667 123.738 335.44 105.514 335.44 105.514C335.44 105.514 333.134 102.582 327.488 102.161C321.843 101.741 305.743 108.435 300.722 112.628C295.702 116.822 293.395 120.174 295.906 126.22C298.417 132.266 307.842 146.7 308.836 150.074C309.829 153.448 309.256 157.814 307.371 159.068C306.751 159.477 304.602 160.481 301.983 161.655C304.022 169.363 307.567 176.591 312.413 182.922C320.173 192.336 329.497 191.342 332.014 183.398Z" fill="white" stroke="#263238" stroke-linecap="round" stroke-linejoin="round"/>
<path d="M306.575 109.485C306.575 109.485 318.427 113.982 323.363 113.193C327.66 112.297 331.877 111.05 335.97 109.464L335.474 105.508L306.575 109.485Z" fill="#263238" stroke="#263238" stroke-linecap="round" stroke-linejoin="round"/>
<path d="M310.55 106.757C311.251 106.477 309.71 115.542 306.165 118.894C302.62 122.247 300.304 123.292 299.462 125.168C298.62 127.045 298.213 127.896 296.951 126.849C295.689 125.803 290.895 126.429 290.895 126.429L289.01 123.497C289.01 123.497 300.508 110.724 310.55 106.757Z" fill="#263238" stroke="#263238" stroke-linecap="round" stroke-linejoin="round"/>
<path d="M318.062 118.184C318.31 119.488 318.062 120.631 317.47 120.738C316.877 120.845 316.253 119.865 316.005 118.583C315.757 117.3 316.005 116.136 316.597 116.029C317.189 115.922 317.825 116.88 318.062 118.184Z" fill="#263238"/>
<path d="M331.661 113.787C331.898 115.091 331.661 116.244 331.069 116.341C330.477 116.437 329.852 115.478 329.604 114.185C329.356 112.892 329.604 111.738 330.196 111.631C330.789 111.524 331.424 112.483 331.661 113.787Z" fill="#263238"/>
<path d="M328.33 112.407C328.33 112.407 326.866 116.385 328.535 117.01C330.204 117.635 335.238 120.782 333.136 123.294C331.034 125.807 327.748 124.544 326.864 124.38C325.98 124.216 326.864 131.699 326.864 131.699C326.864 131.699 321.843 132.785 318.707 131.279C316.488 130.168 314.386 128.836 312.436 127.301" stroke="#263238" stroke-linecap="round" stroke-linejoin="round"/>
<path d="M313.482 128.102C314.076 130.782 315.138 133.336 316.618 135.647C318.925 138.989 320.174 136.267 320.594 134.562C320.835 133.671 320.976 132.756 321.014 131.834C321.014 131.834 314.323 131.034 313.482 128.102Z" fill="#263238" stroke="#263238" stroke-linecap="round" stroke-linejoin="round"/>
<path d="M310.552 115.336C310.949 114.146 311.605 113.06 312.473 112.156C313.342 111.252 314.4 110.553 315.573 110.108" fill="#263238"/>
<path d="M310.552 115.336C310.949 114.146 311.605 113.06 312.473 112.156C313.342 111.252 314.4 110.553 315.573 110.108" stroke="#263238" stroke-linecap="round" stroke-linejoin="round"/>
<path d="M301.349 129.149C300.729 129.149 295.703 123.295 290.476 125.387C285.249 127.479 289.011 136.264 292.987 137.104C296.963 137.945 303.655 133.547 303.655 133.547" fill="white"/>
<path d="M301.349 129.149C300.729 129.149 295.703 123.295 290.476 125.387C285.249 127.479 289.011 136.264 292.987 137.104C296.963 137.945 303.655 133.547 303.655 133.547" stroke="#263238" stroke-linecap="round" stroke-linejoin="round"/>
<path d="M289.011 123.499C289.011 123.499 303.235 108.645 318.708 103.418L334.817 98.0274C334.817 98.0274 331.046 90.7082 328.75 85.4669C326.454 80.2256 306.369 82.7501 299.657 84.6373C292.946 86.5245 284.809 99.4912 283.969 103.878C283.129 108.265 289.011 123.499 289.011 123.499Z" fill="#04AF49" stroke="#263238" stroke-linecap="round" stroke-linejoin="round"/>
<path d="M306.575 109.487C306.575 109.487 323.524 111.363 333.772 108.401C344.02 105.439 357.617 96.889 356.777 95.467C355.937 94.0451 334.817 97.9791 334.817 97.9791C334.817 97.9791 310.767 103.825 306.575 109.487Z" fill="#04AF49" stroke="#263238" stroke-linecap="round" stroke-linejoin="round"/>
<path d="M295.305 214.465C295.305 214.465 303.374 212.902 305.724 210.811C308.074 208.721 307.028 202.479 307.028 202.479C307.028 202.479 309.108 198.567 308.332 197.004C307.555 195.441 296.101 199.116 296.101 199.116C297.801 197.697 299.37 196.128 300.789 194.427C302.093 192.605 299.704 191.56 298.968 192.605C298.231 193.65 293.764 198.342 292.717 199.902C291.671 201.462 291.155 208.245 291.155 208.245L285.94 211.889L287.244 217.626L295.305 214.465Z" fill="white" stroke="#263238" stroke-linecap="round" stroke-linejoin="round"/>
<path d="M286.404 169.019C270.791 176.381 254.801 212.501 250.491 220.402C243.412 233.336 255.157 255.973 275.274 236.57C280.838 230.978 286.11 225.103 291.07 218.969L289.281 208.545L277.062 215.013L288.204 204.234" fill="#808080"/>
<path d="M286.404 169.019C270.791 176.381 254.801 212.501 250.491 220.402C243.412 233.336 255.157 255.973 275.274 236.57C280.838 230.978 286.11 225.103 291.07 218.969L289.281 208.545L277.062 215.013L288.204 204.234" stroke="#263238" stroke-linecap="round" stroke-linejoin="round"/>
<path d="M283.895 212.501L285.683 222.557" stroke="#263238" stroke-linecap="round" stroke-linejoin="round"/>
<path d="M277.051 215.013L259.821 220.758" stroke="#263238" stroke-linecap="round" stroke-linejoin="round"/>
<path d="M255.157 220.401C255.157 220.401 263.422 215.368 272.398 216.091" stroke="#263238" stroke-linecap="round" stroke-linejoin="round"/>
<path d="M265.932 213.213C265.932 213.213 272.397 212.501 274.907 215.736" stroke="#263238" stroke-linecap="round" stroke-linejoin="round"/>
<path d="M340.625 155.005L359.913 191.291C359.913 191.291 362.176 188.058 358.588 177.645C354.999 167.232 348.89 154.653 348.89 154.653C348.89 154.653 342.436 154.301 340.625 155.005Z" fill="#263238" stroke="#263238" stroke-linecap="round" stroke-linejoin="round"/>
<path d="M316.919 476.588C316.919 476.588 312.523 470.649 306.058 473.355C299.592 476.061 296.36 478.571 295.283 482.884C294.206 487.196 295.024 489.071 295.024 489.071H319.801C319.95 486.454 319.768 483.828 319.262 481.256C318.822 479.551 318.024 477.959 316.919 476.588Z" fill="#263238" stroke="#263238" stroke-linecap="round" stroke-linejoin="round"/>
<path d="M319.677 483.681H295.11C294.587 485.435 294.554 487.299 295.012 489.071H319.798C319.88 487.273 319.84 485.473 319.677 483.681Z" fill="white" stroke="#263238" stroke-linecap="round" stroke-linejoin="round"/>
<path d="M339.202 478.376V489.076H383.38C383.38 489.076 382.841 483.417 379.609 480.992C376.377 478.567 363.985 476.95 363.985 476.95L362.9 474.438L339.202 478.376Z" fill="#263238" stroke="#263238" stroke-linecap="round" stroke-linejoin="round"/>
<path d="M382.033 484.219H339.202V489.069H383.38C383.169 487.395 382.716 485.761 382.033 484.219Z" fill="white" stroke="#263238" stroke-linecap="round" stroke-linejoin="round"/>
<path d="M327.052 147.772L318.837 148.635L327.052 153.401V147.772Z" fill="#263238" stroke="#263238" stroke-linecap="round" stroke-linejoin="round"/>
<path d="M295.379 458.975C295.379 458.975 298.978 456.107 301.844 453.237C304.711 450.367 301.844 451.804 299.69 448.204C297.535 444.603 292.869 434.558 292.869 434.558C292.869 434.558 294.282 451.804 294.658 452.882C295.035 453.96 289.992 457.549 292.147 458.982C294.302 460.415 295.379 458.975 295.379 458.975Z" fill="white" stroke="#263238" stroke-linecap="round" stroke-linejoin="round"/>
<path d="M359.676 453.952C359.676 453.952 347.824 446.763 345.668 440.295C343.511 433.827 360.394 447.118 361.108 454.663L359.676 453.952Z" fill="white" stroke="#263238" stroke-linecap="round" stroke-linejoin="round"/>
<path d="M125.162 364.108C125.162 364.108 123.545 385.663 124.622 396.982C125.699 408.302 131.626 443.332 131.626 443.332L143.478 443.872C143.478 443.872 147.787 400.217 148.866 389.443C149.945 378.669 149.951 363.035 149.951 363.035L125.162 364.108Z" fill="white" stroke="#263238" stroke-linecap="round" stroke-linejoin="round"/>
<path d="M144.756 431.035L129.67 431.122C130.812 438.139 131.685 443.335 131.685 443.335L143.537 443.875C143.537 443.875 144.012 438.483 144.756 431.035Z" fill="white" stroke="#263238" stroke-linecap="round" stroke-linejoin="round"/>
<path d="M149.863 370.21C149.939 366.502 149.949 363.742 149.949 363.172L149.605 363.054L125.168 364.139C125.168 364.139 124.683 370.607 124.424 378.314L149.863 370.21Z" fill="#263238" stroke="#263238" stroke-linecap="round" stroke-linejoin="round"/>
<path d="M195.333 364.108C195.333 364.108 196.95 385.663 195.873 396.982C194.795 408.302 188.869 443.332 188.869 443.332L177.017 443.872C177.017 443.872 172.708 400.217 171.629 389.443C170.55 378.669 170.544 363.035 170.544 363.035L195.333 364.108Z" fill="white" stroke="#263238" stroke-linecap="round" stroke-linejoin="round"/>
<path d="M175.734 430.863L177.016 443.874L188.868 443.334C188.868 443.334 189.774 437.944 190.938 430.773L175.734 430.863Z" fill="white" stroke="#263238" stroke-linecap="round" stroke-linejoin="round"/>
<path d="M195.334 364.109L170.551 363.023C170.551 363.023 170.551 370.17 170.884 378.115L195.721 370.225C195.517 366.567 195.334 364.109 195.334 364.109Z" fill="#263238" stroke="#263238" stroke-linecap="round" stroke-linejoin="round"/>
<path d="M147.458 436.254L128.192 438C128.192 438 130.94 465.045 130.94 465.788C130.94 466.531 126.683 472.051 123.937 476.798C121.19 481.544 122.935 489.064 122.935 489.064H149.205C150.708 485.929 151.562 482.523 151.716 479.049C151.716 474.048 149.464 466.024 149.464 464.53C149.464 463.037 147.458 436.254 147.458 436.254Z" fill="#616161" stroke="#263238" stroke-linecap="round" stroke-linejoin="round"/>
<path d="M131.447 475.802C135.445 477.3 144.701 475.802 144.96 473.549C145.218 471.296 142.955 466.543 142.955 466.543L142.715 436.685L132.174 437.644C132.831 445.114 134.642 466.022 134.437 467.039C134.189 468.289 127.439 474.304 131.447 475.802Z" fill="white" stroke="#263238" stroke-linecap="round" stroke-linejoin="round"/>
<path d="M130.694 441.254L144.25 448.067L132.224 453.714L143.312 459.141L133.377 462.59L144.961 464.778L132.326 467.306L145.181 468.869L130.183 472.544H144.955L131.706 469.086L145.192 466.887L133.382 465.217L143.941 461.973L132.962 459.881L142.962 453.274L132.23 447.96L143.458 440.76" stroke="#263238" stroke-linecap="round" stroke-linejoin="round"/>
<path d="M151.154 483.509H122.396C122.375 485.377 122.556 487.242 122.936 489.071H149.205C150.046 487.289 150.698 485.425 151.154 483.509Z" fill="white" stroke="#263238" stroke-linecap="round" stroke-linejoin="round"/>
<path d="M149.205 489.071L149.971 477.592" stroke="#263238" stroke-linecap="round" stroke-linejoin="round"/>
<path d="M123.075 480.554C123.845 479.282 124.881 478.19 126.111 477.355C127.342 476.519 128.739 475.96 130.206 475.715" stroke="#263238" stroke-linecap="round" stroke-linejoin="round"/>
<path d="M143.926 475.446C143.926 475.446 148.494 474.906 149.314 483.109" stroke="#263238" stroke-linecap="round" stroke-linejoin="round"/>
<path d="M172.307 437.406L193.049 438.492C193.049 438.492 191.964 463.284 193.049 465.979C194.134 468.674 196.518 470.527 203.279 472.715C212.439 475.68 217.826 478.105 218.365 481.878C218.69 484.198 218.78 486.545 218.635 488.884H191.164C189.75 487.597 188.104 486.591 186.315 485.919L184.16 485.379V488.882H170.152C170.152 488.882 167.458 480.799 169.613 475.948C171.767 471.098 174.192 461.667 174.192 458.426C174.192 455.185 172.307 437.406 172.307 437.406Z" fill="#616161" stroke="#263238" stroke-linecap="round" stroke-linejoin="round"/>
<path d="M170.152 488.877H184.16V485.374L186.315 485.914C188.104 486.586 189.75 487.592 191.164 488.879H218.639C218.747 487.174 218.729 485.464 218.585 483.762H169.021C169.255 485.495 169.633 487.207 170.152 488.877Z" fill="white" stroke="#263238" stroke-linecap="round" stroke-linejoin="round"/>
<path d="M201.603 473.02C201.603 473.02 194.879 476.253 195.418 483.378" stroke="#263238" stroke-linecap="round" stroke-linejoin="round"/>
<path d="M172.026 471.004C175.09 471.374 177.904 472.876 179.918 475.216C181.931 477.555 182.998 480.562 182.91 483.648" stroke="#263238" stroke-linecap="round" stroke-linejoin="round"/>
<path d="M201.97 472.267C196.205 470.262 194.05 468.483 193.047 465.971C191.962 463.276 193.047 438.484 193.047 438.484L187.907 438.214C187.994 442.091 188.456 460.968 188.693 466.024C188.963 471.671 197.971 473.957 199.318 473.957C199.89 474.051 200.477 473.93 200.966 473.618C201.455 473.306 201.813 472.825 201.97 472.267Z" fill="white" stroke="#263238" stroke-linecap="round" stroke-linejoin="round"/>
<path d="M193.264 443.023L186.81 442.764L192.866 445.71L187.75 447.865L192.728 449.472L187.62 452.167L192.728 454.322L187.492 456.338L192.599 458.213L188.29 460.638L192.599 462.384L188.02 466.286L193.408 466.425L190.176 470.725L194.616 468.71L192.999 472.073L197.567 470.057L196.501 473.279L200.133 471.662L199.325 473.948" stroke="#263238" stroke-linecap="round" stroke-linejoin="round"/>
<path d="M144.916 145.217C144.916 145.217 93.2977 155.813 85.589 160.836C75.1801 167.604 69.4261 176.454 74.6623 187.901C79.8986 199.348 87.6677 196.751 87.6677 196.751C87.6677 196.751 81.4285 272.754 87.6677 288.89C93.9069 305.026 122.536 308.152 134 305.059C145.465 301.965 181.874 294.646 184.988 283.706C188.102 272.766 182.392 162.98 180.311 152.519C178.231 142.058 166.252 134.268 144.916 145.217Z" fill="#263238" stroke="#263238" stroke-linecap="round" stroke-linejoin="round"/>
<path d="M74.6624 187.883C79.8661 199.341 87.6678 196.733 87.6678 196.733C87.6678 196.733 81.4286 272.736 87.6678 288.872C93.907 305.008 122.536 308.134 134 305.041C145.465 301.947 181.885 294.628 184.999 283.688C185.544 280.81 185.81 277.887 185.796 274.958C174.438 279.528 161.702 284.659 149.095 289.422C113.193 302.95 103.832 285.78 102.763 261.82C101.693 237.861 108.484 181.651 103.848 168.636C99.2114 155.621 85.631 160.841 85.631 160.841C75.2112 167.585 69.4572 176.478 74.6624 187.883Z" fill="white" stroke="#263238" stroke-linecap="round" stroke-linejoin="round"/>
<path d="M87.6692 196.734C91.111 196.348 94.2889 194.704 96.5935 192.118C98.8981 189.532 100.167 186.185 100.157 182.721C100.675 169.786 92.8714 164.503 84.5442 170.745C76.2171 176.986 79.8676 186.914 84.5442 187.926C89.2209 188.939 95.4802 178.559 91.839 176.479C88.1978 174.4 86.1036 178.56 86.1036 181.685" stroke="#263238" stroke-linecap="round" stroke-linejoin="round"/>
<path d="M119.238 261.711L110.618 367.884L211.904 367.345L195.741 256.859L119.238 261.711Z" fill="white" stroke="#263238" stroke-linecap="round" stroke-linejoin="round"/>
<path d="M119.238 271.14C120.046 271.679 197.364 267.367 197.364 267.367L195.747 260.631L119.243 263.596L119.238 271.14Z" fill="#616161" stroke="#263238" stroke-linecap="round" stroke-linejoin="round"/>
<path d="M165.573 367.343V290.812" stroke="#263238" stroke-linecap="round" stroke-linejoin="round"/>
<path d="M165.573 306.98L177.965 297.817L166.058 313.436L165.573 306.98Z" fill="#263238" stroke="#263238" stroke-linecap="round" stroke-linejoin="round"/>
<path d="M117.624 317.759L146.178 318.844V327.468L117.086 325.85" stroke="#263238" stroke-linecap="round" stroke-linejoin="round"/>
<path d="M146.716 331.232L145.099 355.485H114.93L115.469 337.161" stroke="#263238" stroke-linecap="round" stroke-linejoin="round"/>
<path d="M203.823 318.837L187.66 321.532V330.155L203.284 328" stroke="#263238" stroke-linecap="round" stroke-linejoin="round"/>
<path d="M187.66 330.155V355.485L207.595 354.946" stroke="#263238" stroke-linecap="round" stroke-linejoin="round"/>
<path d="M163.687 262.516L163.956 268.984L175.808 268.176L175.539 261.438L163.687 262.516Z" fill="white" stroke="#263238" stroke-linecap="round" stroke-linejoin="round"/>
<path d="M187.662 165.775C187.662 165.775 171.499 159.846 160.725 162.541C154.568 163.99 148.726 166.546 143.484 170.087L144.569 263.326L195.751 260.631L187.662 165.775Z" fill="#263238" stroke="#263238" stroke-linecap="round" stroke-linejoin="round"/>
<path d="M194.557 167.133C194.557 167.133 200.828 166.918 206.054 175.077C211.279 183.237 227.6 209.398 230.104 217.978C232.607 226.558 230.104 232.832 227.183 233.662C224.762 234.117 222.277 234.117 219.856 233.662C219.856 233.662 214.468 229.475 209.608 225.039C204.749 220.602 198.94 211.238 198.94 211.238L194.557 167.133Z" fill="#04AF49" stroke="#263238" stroke-linecap="round" stroke-linejoin="round"/>
<path d="M183.62 197.573L187.844 303.563L212.628 294.584C212.628 294.584 200.053 194.695 197.542 181.76C195.031 168.826 195.02 165.592 189.636 161.281C184.253 156.97 179.584 169.549 179.584 169.549L183.62 197.573Z" fill="#04AF49" stroke="#263238" stroke-linecap="round" stroke-linejoin="round"/>
<path d="M190.711 177.998C190.711 177.998 198.512 212.868 198.512 214.439C198.512 216.01 206.325 242.551 206.325 242.551L202.673 210.279L194.56 167.17L187.663 165.812L190.711 177.998Z" fill="#263238" stroke="#263238" stroke-linecap="round" stroke-linejoin="round"/>
<path d="M160.185 198.65C160.185 198.65 156.597 276.981 154.442 290.994C152.287 305.008 151.92 306.795 151.92 306.795C151.92 306.795 132.525 300.695 123.553 296.383C114.581 292.07 112.778 290.993 112.778 290.993C112.778 290.993 116.733 258.289 117.444 250.032C118.156 241.774 118.166 224.162 118.166 208.35C118.166 192.537 118.166 175.291 124.987 169.901C130.167 166.036 136.489 164.014 142.95 164.155C146.178 164.157 159.83 178.17 160.185 198.65Z" fill="#04AF49" stroke="#263238" stroke-linecap="round" stroke-linejoin="round"/>
<path d="M125.661 163.942L148.03 204.503L108.485 259.681L115.771 257.6C115.771 257.6 153.235 209.18 154.282 204.501C155.328 199.823 131.901 162.334 131.901 162.334L125.661 163.942Z" fill="#263238" stroke="#263238" stroke-linecap="round" stroke-linejoin="round"/>
<path d="M153.181 142.6C153.181 142.6 138.635 144.485 134.594 150.415C130.553 156.345 127.591 162.003 130.553 165.506C135.446 170.799 140.861 175.584 146.716 179.788C151.565 183.021 160.185 198.652 160.185 198.652V180.056C160.185 174.128 155.069 167.66 153.984 162.271C152.899 156.883 161.797 148.258 167.993 150.952C174.188 153.645 179.037 161.73 178.767 165.503C178.498 169.276 179.852 173.856 181.192 180.324C182.531 186.792 183.616 197.571 183.616 197.571C183.616 197.571 192.776 183.019 195.738 173.049C198.7 163.078 197.355 152.837 186.31 146.101C175.266 139.365 153.181 142.6 153.181 142.6Z" fill="#04AF49" stroke="#263238" stroke-linecap="round" stroke-linejoin="round"/>
<path d="M191.077 149.8C189.639 148.386 188.041 147.145 186.315 146.103C175.271 139.367 153.182 142.6 153.182 142.6C153.182 142.6 138.635 144.485 134.594 150.415C134.12 151.105 133.664 151.795 133.236 152.474C132.717 156.104 133.587 159.796 135.672 162.811C141.706 172.425 154.237 177.029 160.163 179.714C159.97 173.871 155.048 167.555 153.989 162.273C152.931 156.992 161.802 148.26 167.998 150.953C174.193 153.647 179.042 161.732 178.772 165.505C178.503 169.278 179.857 173.858 181.197 180.326C181.268 180.699 181.344 181.087 181.423 181.491C181.888 181.049 182.353 180.574 182.818 180.056C188.789 173.506 192.06 164.938 191.972 156.074C191.97 153.951 191.669 151.838 191.077 149.8Z" fill="white" stroke="#263238" stroke-linecap="round" stroke-linejoin="round"/>
<path d="M150.757 132.089C150.757 132.089 152.374 151.491 152.911 156.881C153.449 162.271 156.413 176.013 165.573 178.708C174.732 181.403 180.119 170.893 178.772 163.079C177.425 155.265 175 147.988 175 145.294C175.064 144.12 174.974 142.942 174.731 141.791L150.757 132.089Z" fill="white" stroke="#263238" stroke-linecap="round" stroke-linejoin="round"/>
<path d="M174.731 141.79L150.757 132.089C150.757 132.089 151.985 146.856 152.663 154.197L174.985 144.776C175.02 143.774 174.935 142.772 174.731 141.79Z" fill="#263238" stroke="#263238" stroke-linecap="round" stroke-linejoin="round"/>
<path d="M126.695 168.102C124.406 167.887 122.1 168.231 119.973 169.104C117.847 169.977 115.964 171.353 114.486 173.114C108.969 179.269 101.33 201.571 98.3232 216.004C95.316 230.438 92.3754 243.189 98.1077 243.189C103.84 243.189 129.087 235.116 129.087 235.116V216.437" fill="#04AF49"/>
<path d="M126.695 168.102C124.406 167.887 122.1 168.231 119.973 169.104C117.847 169.977 115.964 171.353 114.486 173.114C108.969 179.269 101.33 201.571 98.3232 216.004C95.316 230.438 92.3754 243.189 98.1077 243.189C103.84 243.189 129.087 235.116 129.087 235.116V216.437" stroke="#263238" stroke-linecap="round" stroke-linejoin="round"/>
<path d="M139.678 209.538C141.184 207.66 142.358 205.538 143.147 203.264C143.463 202.142 144.125 201.149 145.038 200.425C145.951 199.701 147.069 199.284 148.233 199.232C150.388 199.017 157.791 197.325 158.211 198.812C158.631 200.299 159.296 201.572 158.642 202.208C158.243 202.628 157.951 203.138 157.791 203.695C157.791 203.695 160.333 211.552 159.698 214.312C159.062 217.073 155.237 219.195 153.115 219.831C150.992 220.467 145.691 220.251 144.838 220.467C143.986 220.683 134.86 224.93 134.86 224.93L133.775 214.948C133.775 214.776 136.846 212.684 137.116 212.425C138.028 211.518 138.881 210.554 139.669 209.536L139.678 209.538Z" fill="white" stroke="#263238" stroke-linecap="round" stroke-linejoin="round"/>
<path d="M123.408 216.221L106.427 217.923" stroke="#263238" stroke-linecap="round" stroke-linejoin="round"/>
<path d="M135.714 210.702L138.473 236.184L126.588 237.671L123.193 214.949L135.714 210.702Z" fill="white" stroke="#263238" stroke-linecap="round" stroke-linejoin="round"/>
<path d="M209.19 235.967L205.005 216.511L214.422 218.387L209.19 235.967Z" fill="#616161" stroke="#263238" stroke-linecap="round" stroke-linejoin="round"/>
<path d="M207.487 207.359C206.083 205.58 204.991 203.575 204.255 201.431C203.953 200.367 203.325 199.426 202.459 198.739C201.593 198.052 200.532 197.655 199.428 197.604C197.424 197.399 190.388 195.793 189.973 197.205C189.557 198.618 188.971 199.814 189.574 200.439C189.953 200.838 190.23 201.322 190.382 201.851C190.382 201.851 187.968 209.295 188.571 211.909C189.174 214.523 192.795 216.533 194.8 217.136C196.804 217.739 201.836 217.535 202.643 217.729C203.451 217.922 212.082 221.954 212.082 221.954C212.082 221.954 213.083 212.523 213.094 212.495C213.105 212.467 210.174 210.34 209.926 210.113C209.051 209.252 208.236 208.332 207.487 207.359Z" fill="white" stroke="#263238" stroke-linecap="round" stroke-linejoin="round"/>
<path d="M210.03 207.931L209.189 235.967L223.209 234.501L221.539 209.398L210.03 207.931Z" fill="white" stroke="#263238" stroke-linecap="round" stroke-linejoin="round"/>
<path d="M180.41 95.7636C180.41 95.7636 184.72 119.478 184.72 123.789C184.72 128.1 180.809 140.626 178.984 143.493C177.16 146.36 168.209 148.161 164.632 146.726C161.054 145.292 151.002 135.948 148.845 132.014C147.549 129.641 146.581 127.102 145.968 124.468C145.968 124.468 140.948 126.624 137.004 120.878C133.061 115.133 135.215 109.754 139.159 109.388L142.747 110.473C142.747 110.473 136.282 99.3487 138.438 94.3044C140.594 89.2601 166.453 87.4814 171.841 87.4814C177.229 87.4814 180.41 95.7636 180.41 95.7636Z" fill="white" stroke="#263238" stroke-linecap="round" stroke-linejoin="round"/>
<path d="M160.788 101.596L155.067 104.129C154.874 104.219 154.701 104.347 154.559 104.505C154.416 104.663 154.308 104.849 154.239 105.05C154.171 105.252 154.144 105.465 154.16 105.677C154.176 105.889 154.235 106.096 154.333 106.285L154.549 106.662C154.746 107.02 155.075 107.286 155.467 107.402C155.859 107.518 156.28 107.475 156.64 107.282L162.157 104.36C162.341 104.262 162.504 104.127 162.636 103.965C162.767 103.802 162.865 103.615 162.922 103.414C162.98 103.213 162.997 103.002 162.972 102.795C162.947 102.587 162.881 102.386 162.777 102.205C162.58 101.874 162.267 101.627 161.899 101.513C161.531 101.398 161.134 101.424 160.783 101.585L160.788 101.596Z" fill="#263238" stroke="#263238" stroke-linecap="round" stroke-linejoin="round"/>
<path d="M171.422 100.345V100.443C171.377 100.607 171.366 100.779 171.388 100.948C171.411 101.117 171.467 101.28 171.554 101.427C171.641 101.574 171.756 101.702 171.893 101.803C172.03 101.904 172.187 101.977 172.353 102.017L176.77 103.009C176.955 103.051 177.146 103.051 177.331 103.009C177.516 102.967 177.688 102.884 177.836 102.766C177.984 102.648 178.104 102.498 178.186 102.328C178.268 102.157 178.311 101.97 178.311 101.781C178.31 101.499 178.215 101.225 178.042 101.003C177.868 100.78 177.625 100.622 177.352 100.553L172.966 99.4673C172.645 99.3811 172.303 99.4242 172.013 99.5874C171.723 99.7506 171.509 100.021 171.416 100.34L171.422 100.345Z" fill="#263238" stroke="#263238" stroke-linecap="round" stroke-linejoin="round"/>
<path d="M183.211 131.657C183.211 131.657 182.5 123.475 180.874 122.3C179.248 121.125 167.078 122.063 167.078 122.063C167.078 122.063 154.697 118.56 154.46 121.362C154.288 123.421 154.837 134.387 155.354 139.505C158.813 142.825 162.682 145.973 164.632 146.726C168.22 148.159 177.188 146.371 178.984 143.493C180.799 139.722 182.218 135.772 183.219 131.708L183.211 131.657ZM180.399 133.052C179.004 137.731 175.96 140.544 174.559 139.832C173.157 139.12 171.984 134.69 170.82 134.226C169.656 133.763 168.665 136.087 167.307 138.204C165.949 140.32 162.167 141.006 160.53 139.599C158.893 138.193 157.018 125.333 157.018 123.689C157.018 122.046 174.086 124.62 174.086 124.62C175.873 124.398 177.675 124.319 179.474 124.383C180.635 124.641 181.799 128.382 180.398 133.052H180.399Z" fill="#808080" stroke="#545454" stroke-linecap="round" stroke-linejoin="round"/>
<path d="M159.83 124.879C159.83 124.879 166.607 129.557 173.838 127.918" stroke="#263238" stroke-linecap="round" stroke-linejoin="round"/>
<path d="M170.117 105.229C170.117 105.229 173.349 119.495 173.618 120.664C173.888 121.833 171.281 125.58 168.478 123.477C166.964 122.469 165.827 120.986 165.246 119.262" fill="white"/>
<path d="M170.117 105.229C170.117 105.229 173.349 119.495 173.618 120.664C173.888 121.833 171.281 125.58 168.478 123.477C166.964 122.469 165.827 120.986 165.246 119.262" stroke="#263238" stroke-linecap="round" stroke-linejoin="round"/>
<path d="M162.825 112.169C163.201 113.41 163.051 114.551 162.501 114.712C161.95 114.874 161.186 114.022 160.81 112.783C160.433 111.544 160.572 110.412 161.134 110.24C161.695 110.068 162.491 110.947 162.825 112.169Z" fill="#263238"/>
<path d="M176.65 110.251C176.805 111.534 176.456 112.633 175.874 112.698C175.293 112.763 174.71 111.782 174.56 110.543C174.41 109.304 174.765 108.161 175.335 108.096C175.905 108.031 176.498 108.969 176.65 110.251Z" fill="#263238"/>
<path d="M136.996 80.3278C136.996 80.3278 127.665 89.6629 131.261 97.5744C134.857 105.486 143.825 120.214 143.825 120.214H145.614L145.259 114.07C145.259 114.07 151.002 111.915 149.924 106.891C149.304 103.922 148.083 101.112 146.336 98.6335C146.336 98.6335 152.434 103.301 159.611 102.223C166.788 101.146 170.009 92.5223 172.54 95.4112C175.072 98.3001 179.006 100.079 186.549 96.123C194.092 92.1672 204.091 72.7978 195.902 67.4185C187.713 62.0392 174.729 72.8086 170.429 73.8863C166.129 74.964 162.886 67.786 153.189 70.6532C147.104 72.5555 141.556 75.8706 136.996 80.3278Z" fill="#263238" stroke="#263238" stroke-linecap="round" stroke-linejoin="round"/>
<path d="M7.3291 489.071H520.225" stroke="#263238" stroke-linecap="round" stroke-linejoin="round"/>
</g>
<defs>
<clipPath id="clip0_974_16409">
<rect width="521" height="490" fill="white"/>
</clipPath>
</defs>
</svg>
