<svg width="164" height="39" viewBox="0 0 164 39" fill="none" xmlns="http://www.w3.org/2000/svg">
<path d="M37.0684 4.20877C34.9182 2.06172 32.1437 0.650155 29.1423 0.176201C26.1409 -0.297752 23.0664 0.19022 20.3593 1.57024H10.2016C7.49646 1.57008 4.90199 2.64443 2.98887 4.557C1.07574 6.46957 0.000630499 9.06373 0 11.7689V28.7984C0 31.504 1.07481 34.0988 2.98799 36.012C4.90117 37.9252 7.49599 39 10.2016 39H27.2299C29.9352 39 32.5298 37.9253 34.4427 36.0124C36.3557 34.0994 37.4304 31.5049 37.4304 28.7996V24.1543C39.9644 21.4299 41.3426 17.8286 41.2751 14.1085C41.2076 10.3884 39.6996 6.83949 37.0684 4.20877ZM36.1768 23.6426C32.0956 27.7207 19.9497 30.3902 14.2709 30.3902C12.8241 30.3902 11.7928 30.2166 11.4273 29.851C9.46101 27.8848 12.5132 10.2205 17.6358 5.09917C20.095 2.64048 23.4302 1.25942 26.9077 1.25981C30.3852 1.2602 33.7202 2.64201 36.1789 5.10125C38.6375 7.5605 40.0186 10.8957 40.0182 14.3732C40.0178 17.8507 38.636 21.1857 36.1768 23.6444" fill="#04AF49"/>
<path d="M15.2617 14.3492C15.2617 11.322 17.0158 8.4754 19.1568 6.33439C19.2073 6.28505 19.259 6.2375 19.3107 6.18816C19.2754 6.31146 19.2232 6.42928 19.1556 6.53826C18.9874 6.7891 18.7057 6.89015 18.5297 7.12612C18.3673 7.36325 18.2487 7.62758 18.1796 7.90656C18.1148 8.1675 18.1541 8.48432 18.0607 8.74526C17.9419 9.07515 17.7314 9.27249 17.7713 9.65528C18.2313 9.79199 18.0322 8.97291 18.4203 8.9313C18.5013 9.32903 18.5035 9.73876 18.4269 10.1373C18.3787 10.595 18.2896 10.7097 18.5636 11.1026C18.7805 11.4141 18.8519 11.6221 19.2697 11.6715C19.4339 11.6836 19.5902 11.7469 19.7165 11.8525C19.8428 11.958 19.9329 12.1005 19.9741 12.2599C20.2713 12.3235 20.4496 12.3723 20.4883 12.6998C20.6468 12.8268 20.8158 12.9402 20.9935 13.0386C21.1902 13.0903 21.5183 12.8097 21.7068 13.0255C22.0159 13.3863 21.3139 14.3272 21.1885 14.6518C21.0676 14.8982 21.0256 15.1758 21.0682 15.4469C21.1107 15.718 21.2357 15.9694 21.4262 16.1669C21.6574 16.3417 21.9017 16.4255 21.9784 16.7435C21.9962 17.0203 22.0453 17.2943 22.1246 17.5602C22.3273 17.9935 22.7927 18.1367 23.1238 18.469C23.3002 18.695 23.4277 18.9553 23.4982 19.2332C23.5687 19.5111 23.5807 19.8006 23.5333 20.0834C23.5967 20.6659 23.7071 21.2424 23.8632 21.8071C23.9512 22.4158 24.1295 22.9799 24.2573 23.5689C24.3542 24.0112 24.7358 24.6804 25.2892 24.5913C25.3278 24.3809 25.1109 24.2174 25.0823 24.0094C25.058 23.8204 25.1109 23.6242 25.0734 23.4215C25.0202 23.2547 25.01 23.0771 25.0439 22.9053C25.0778 22.7335 25.1546 22.5731 25.2672 22.439C25.3605 22.3171 25.4907 22.2143 25.5876 22.0913C25.7748 21.8535 25.6304 21.9242 25.6227 21.6621C25.6125 21.3364 25.7118 21.4957 25.9086 21.3946C26.0192 21.3104 26.118 21.2116 26.2022 21.101C26.4102 20.9171 26.601 20.7145 26.7722 20.4959C26.9208 20.2581 26.903 19.9247 27.0563 19.6786C27.2311 19.3969 27.4813 19.3957 27.7262 19.212C28.0442 18.9742 27.9135 18.721 27.9717 18.3947C28.0737 17.8186 28.3101 17.2746 28.6618 16.8071C29.0963 16.259 29.2824 15.7924 28.7545 15.2652C28.4936 15.0043 28.3575 15.0738 28.0109 14.9835C27.7601 14.8677 27.502 14.7684 27.2382 14.6863C27.0777 14.6666 26.982 14.7249 26.8352 14.6863C26.6884 14.6476 26.7163 14.5674 26.5701 14.5674C26.3544 14.5674 26.053 15.0197 25.8705 14.7326C25.7695 14.5721 26.0774 14.1299 26.0631 13.9153C26.065 13.7571 26.0326 13.6003 25.9681 13.4557C25.9037 13.3111 25.8088 13.1822 25.6898 13.0778C25.5917 13.0237 25.3754 13.0184 25.2553 12.9702C25.1135 12.9101 24.9783 12.8356 24.8517 12.7479C24.6865 12.6421 24.3685 12.4585 24.296 12.2724C24.0945 12.2635 23.9571 12.1535 23.7521 12.1535C23.5852 12.1879 23.4159 12.2096 23.2457 12.2183C23.0721 12.1987 22.8837 12.0608 22.6952 12.0876C22.5444 12.1473 22.4028 12.2283 22.275 12.3283C21.9927 12.4904 21.6857 12.6049 21.3662 12.6671C20.8746 12.7586 20.786 12.5714 20.8152 12.1161L20.7427 11.9699C20.9251 11.4628 20.5964 11.4272 20.2344 11.3041C20.1839 10.9421 20.6285 10.6848 20.4425 10.2883C20.0662 10.2687 19.6567 11.3273 19.3387 10.8684C19.1283 10.5671 19.4475 9.72185 19.6323 9.46567C19.9493 9.10825 20.3579 8.84416 20.814 8.70187C20.9271 8.68183 21.0437 8.7002 21.1451 8.75405C21.2466 8.80791 21.3271 8.89415 21.3739 8.99907C21.4785 9.23682 21.3418 9.46032 21.3739 9.72839C21.6919 9.65587 21.6117 9.25287 21.595 9.03651C21.5718 8.67571 21.7614 8.70187 21.9463 8.44212C22.1133 8.20436 22.1401 7.93391 22.3493 7.70506C22.5122 7.52674 22.7059 7.33773 22.8843 7.17367C23.0887 6.98525 23.3188 7.00308 23.528 6.86459C23.846 6.65417 23.4258 6.26365 23.8941 6.29337C24.0606 6.30348 23.978 6.40809 24.1991 6.35697C24.3232 6.31469 24.4448 6.26547 24.5634 6.20956C25.011 6.02708 24.6942 5.97834 24.4885 5.74177C24.2276 5.4416 24.5973 5.49391 24.866 5.44814C25.0639 5.41485 25.0223 5.35125 25.1959 5.46657C25.3486 5.5688 25.2589 5.70432 25.4806 5.69779C25.9044 5.68352 25.6114 5.25853 25.5168 5.11766C25.3552 4.87692 25.3142 4.70812 24.973 4.70158C25.0093 4.58476 25.0051 4.45908 24.9611 4.34494C24.674 4.38357 24.6247 4.17435 24.4077 4.09173C24.0416 3.95323 24.0998 4.2534 23.95 4.45787C23.8002 4.66235 23.5012 4.63144 23.3877 4.88941C23.2688 5.15689 23.3824 5.36136 22.952 5.28884C22.9959 5.11219 23.0052 4.92871 22.9794 4.74853C22.858 4.73182 22.7386 4.70335 22.6227 4.66354C22.6227 4.23319 23.0982 4.19693 23.424 4.15652C23.786 4.11015 23.9048 3.74044 24.2294 3.681C24.5307 3.62156 24.7477 4.11253 25.121 3.82841C25.3332 3.66673 25.2357 3.57222 25.1572 3.4159C25.1081 3.35543 25.0559 3.2975 25.0009 3.24233L24.9944 3.22926C25.2827 3.17338 25.5751 3.12999 25.8705 3.09611C25.9361 3.25916 26.0167 3.41576 26.1112 3.5639C26.1588 3.64533 26.2497 3.70061 26.2896 3.78977C26.3324 3.89201 26.2301 4.0198 26.3591 4.08697C26.5594 4.19396 27.1396 3.5003 27.2792 3.38737C27.4576 3.24412 27.5663 3.16625 27.5247 3.02776C28.4465 3.05534 29.3615 3.19506 30.2494 3.44383C30.3196 3.53062 30.3915 3.62215 30.4628 3.72142C30.618 3.93599 30.7149 4.12977 30.9942 4.22547C31.1559 4.28074 31.6712 4.27064 31.4567 4.64154C31.2587 4.98154 31.0406 4.53574 30.9407 4.42934C30.8022 4.28074 30.3939 4.1155 30.4058 4.45669C30.4254 4.96311 31.5666 4.88168 31.3223 5.43804C31.459 5.51828 31.7283 5.65261 31.6843 5.85411C31.629 6.10079 31.3092 5.94327 31.3158 6.25771C31.322 6.36851 31.3534 6.47644 31.4076 6.57325C31.4619 6.67005 31.5376 6.75317 31.6289 6.81626C31.7202 6.87934 31.8247 6.92072 31.9344 6.93724C32.0442 6.95375 32.1562 6.94496 32.2621 6.91154C32.7441 6.73976 32.3809 6.07226 32.9331 6.00271C33.0319 5.99052 33.1321 6.00147 33.2259 6.03469C33.3196 6.06791 33.4044 6.12249 33.4734 6.19411C33.6321 6.31953 33.7344 6.60484 33.9531 6.58225C33.9763 6.44554 33.8741 6.34925 33.8562 6.22561C34.0904 6.30357 34.2999 6.44173 34.4637 6.62623C34.6099 6.84973 34.5945 7.1707 34.9547 6.88361C34.9006 6.83843 34.8732 6.74036 34.8447 6.70529C35.0484 6.69239 35.2512 6.74193 35.426 6.84728C35.6008 6.95264 35.7393 7.1088 35.8231 7.29493C36.2641 8.18653 35.1806 7.4786 35.1276 7.94282C34.8602 7.85782 34.7425 7.64562 34.5101 7.51486C34.4001 7.45542 34.1974 7.48751 34.113 7.42451C33.9977 7.33951 34.0262 7.18675 33.924 7.10235C33.5234 6.77424 32.6104 7.30504 32.2424 7.51842C32.1426 7.57786 32.0368 7.58202 31.9684 7.6902C31.8496 7.87506 32.016 7.92261 31.9785 8.09499C31.9268 8.34285 31.6047 8.45579 31.5078 8.65313C31.2748 9.12864 31.7485 9.80745 31.6861 10.3347C31.651 10.6271 31.3348 10.9445 31.4561 11.1888C31.5078 11.2946 31.6903 11.385 31.7598 11.5092C31.81 11.6383 31.8678 11.7643 31.9328 11.8866C32.2378 12.2882 32.5631 12.6739 32.9076 13.0422C32.9935 13.1368 33.104 13.2058 33.2268 13.2413C33.3496 13.2769 33.4798 13.2777 33.603 13.2437C33.8676 13.1978 34.1267 13.1241 34.3757 13.0237C34.6533 12.8918 34.6896 12.7045 34.9808 12.83C35.2121 12.931 35.4165 13.2258 35.687 12.9815C35.9093 13.1997 35.6626 13.5789 35.6121 13.822C35.5902 13.9728 35.6014 14.1266 35.6447 14.2727C35.688 14.4188 35.7624 14.5538 35.8629 14.6684C35.9689 14.7687 36.0466 14.8951 36.0884 15.0349C36.1301 15.1747 36.1343 15.323 36.1007 15.4649C36.0536 15.7882 35.9898 16.1088 35.9093 16.4255C35.8409 16.7393 35.6418 16.9765 35.6519 17.3081C35.7122 17.5983 35.7464 17.8933 35.7541 18.1896C35.7315 18.4981 35.6885 18.8047 35.6252 19.1074C35.5479 19.3968 35.3422 19.6542 35.2566 19.9514C35.2087 20.0987 35.1962 20.2552 35.2203 20.4082C35.2443 20.5612 35.3043 20.7063 35.3951 20.8317C35.6008 21.0736 35.8059 20.9352 36.049 20.7527C36.467 20.3272 36.8088 19.833 37.0594 19.2916C37.3903 18.8286 37.6793 18.3371 37.9231 17.8229C37.9683 17.7141 38.0241 17.6059 38.0806 17.4983C37.5514 19.3445 36.5597 21.0249 35.1996 22.3807C33.0597 24.5206 30.2126 26.2752 27.1847 26.2752C29.5389 26.2725 31.8394 25.5722 33.7957 24.2626C35.7521 22.9531 37.2764 21.0932 38.1762 18.9178C39.0759 16.7423 39.3108 14.3491 38.8511 12.0402C38.3914 9.73139 37.2577 7.61061 35.5933 5.94576C33.9288 4.28092 31.8083 3.14671 29.4996 2.68641C27.1909 2.22612 24.7976 2.46039 22.6219 3.35963C20.4463 4.25886 18.5859 5.78273 17.2759 7.73872C15.9659 9.69472 15.265 11.9951 15.2617 14.3492Z" fill="#04AF49"/>
<path d="M57.2802 7.71806H51.6348V6.24951H64.623V7.71806H58.9783V22.3131H57.2802V7.71806Z" fill="#252525"/>
<path d="M84.0369 22.3131L80.3632 17.1509C79.9366 17.1981 79.5076 17.2211 79.0784 17.2197H74.766V22.3131H73.0684V6.24951H79.08C83.1628 6.24951 85.6433 8.31506 85.6433 11.7571C85.6433 14.2813 84.3101 16.0482 81.9713 16.8056L85.8953 22.3131H84.0369ZM83.946 11.7571C83.946 9.18661 82.2479 7.71806 79.0355 7.71806H74.766V15.7728H79.0346C82.2467 15.7728 83.9452 14.2813 83.9452 11.7571" fill="#252525"/>
<path d="M97.0936 6.24951H95.3955V22.3131H97.0936V6.24951Z" fill="#252525"/>
<path d="M120.637 11.7571C120.637 15.1762 118.159 17.2413 114.074 17.2413H109.761V22.3131H108.062V6.24951H114.074C118.159 6.24951 120.637 8.31506 120.637 11.7571ZM118.939 11.7571C118.939 9.18661 117.241 7.71806 114.029 7.71806H109.761V15.7499H114.029C117.241 15.7499 118.939 14.2813 118.939 11.7571Z" fill="#252525"/>
<path d="M141.405 20.8446V22.3131H130.046V6.24951H141.061V7.71889H131.744V13.4323H140.052V14.8783H131.744V20.8446H141.405Z" fill="#252525"/>
<path d="M162.494 20.8446V22.3131H151.135V6.24951H162.15V7.71889H152.833V13.4323H161.14V14.8783H152.833V20.8446H162.494Z" fill="#252525"/>
<path d="M107.88 29.5088C107.854 28.886 108.002 28.2691 108.306 27.7375C108.611 27.2059 109.056 26.7839 109.586 26.526C110.117 26.268 110.707 26.1858 111.281 26.29C111.855 26.3942 112.386 26.68 112.807 27.1106C113.229 27.5412 113.52 28.0969 113.643 28.7061C113.767 29.3153 113.717 29.9502 113.501 30.529C113.284 31.1078 112.911 31.604 112.429 31.9537C111.947 32.3034 111.378 32.4906 110.796 32.4913C110.419 32.5122 110.042 32.4504 109.688 32.3098C109.334 32.1691 109.011 31.9525 108.737 31.6733C108.464 31.394 108.247 31.058 108.1 30.6858C107.953 30.3136 107.878 29.9131 107.88 29.5088ZM112.7 29.5088C112.7 29.1058 112.588 28.7118 112.379 28.3767C112.17 28.0416 111.873 27.7804 111.525 27.6262C111.177 27.472 110.795 27.4316 110.426 27.5103C110.056 27.5889 109.717 27.783 109.451 28.0679C109.185 28.3529 109.004 28.716 108.93 29.1113C108.857 29.5065 108.895 29.9162 109.039 30.2886C109.183 30.6609 109.427 30.9792 109.74 31.2031C110.053 31.427 110.421 31.5465 110.797 31.5465C111.049 31.5549 111.3 31.508 111.534 31.4086C111.769 31.3091 111.982 31.1594 112.16 30.9684C112.338 30.7775 112.478 30.5495 112.571 30.2985C112.664 30.0474 112.708 29.7787 112.7 29.5088Z" fill="#04AF49"/>
<path d="M124.958 26.6631V32.4956H124.098L120.996 28.5493V32.4956H119.959V26.6631H120.819L123.921 30.6094V26.6631H124.958Z" fill="#04AF49"/>
<path d="M131.207 26.6631H132.3V31.5779H135.373V32.4956H131.207V26.6631Z" fill="#04AF49"/>
<path d="M142.455 26.6631H141.622V32.4956H142.455V26.6631Z" fill="#04AF49"/>
<path d="M153.288 26.6631V32.4956H152.499L149.656 28.5493V32.4956H148.705V26.6631H149.493L152.337 30.6094V26.6631H153.288Z" fill="#04AF49"/>
<path d="M163.287 31.5878V32.4956H159.537V26.6631H163.187V27.5709H160.466V29.0876H162.882V29.9793H160.466V31.5903L163.287 31.5878Z" fill="#04AF49"/>
</svg>
