<svg width="219" height="54" viewBox="0 0 219 54" fill="none" xmlns="http://www.w3.org/2000/svg">
<path d="M49.7162 6.43778C46.8324 3.55816 43.1113 1.66496 39.0858 1.02929C35.0602 0.393622 30.9368 1.04809 27.306 2.89898H13.6825C10.0543 2.89877 6.57457 4.3397 4.00868 6.90484C1.44279 9.46999 0.000845628 12.9493 0 16.5775V39.4175C0 43.0463 1.44154 46.5265 4.0075 49.0924C6.57347 51.6584 10.0537 53.0999 13.6825 53.0999H36.5209C40.1493 53.0999 43.6291 51.6586 46.1947 49.0929C48.7604 46.5272 50.2017 43.0475 50.2017 39.4191V33.1889C53.6004 29.5348 55.4489 24.7048 55.3584 19.7153C55.2678 14.7259 53.2452 9.96613 49.7162 6.43778ZM48.5204 32.5025C43.0468 37.9721 26.7567 41.5524 19.1402 41.5524C17.1998 41.5524 15.8166 41.3196 15.3263 40.8293C12.6891 38.1922 16.7828 14.5007 23.6531 7.632C26.9515 4.33439 31.4247 2.48211 36.0888 2.48263C40.7528 2.48316 45.2256 4.33644 48.5232 7.63479C51.8208 10.9331 53.6731 15.4064 53.6726 20.0704C53.6721 24.7345 51.8188 29.2073 48.5204 32.5049" fill="white"/>
<path d="M20.4688 20.0384C20.4688 15.9782 22.8213 12.1604 25.6929 9.28887C25.7606 9.2227 25.83 9.15892 25.8993 9.09276C25.852 9.25812 25.7819 9.41614 25.6913 9.56231C25.4656 9.89873 25.0878 10.0343 24.8518 10.3507C24.634 10.6688 24.4749 11.0233 24.3822 11.3975C24.2953 11.7475 24.348 12.1724 24.2228 12.5223C24.0634 12.9648 23.7811 13.2295 23.8346 13.7429C24.4516 13.9262 24.1845 12.8277 24.7051 12.7719C24.8137 13.3053 24.8166 13.8548 24.7139 14.3894C24.6493 15.0033 24.5297 15.1571 24.8972 15.6841C25.1882 16.1018 25.2839 16.3808 25.8443 16.447C26.0645 16.4633 26.2741 16.5482 26.4435 16.6898C26.613 16.8313 26.7338 17.0224 26.789 17.2362C27.1876 17.3215 27.4268 17.3869 27.4786 17.8262C27.6912 17.9966 27.9179 18.1486 28.1562 18.2806C28.4201 18.3499 28.8602 17.9736 29.1129 18.263C29.5274 18.7469 28.5859 20.0089 28.4177 20.4442C28.2557 20.7746 28.1994 21.147 28.2564 21.5106C28.3135 21.8742 28.4811 22.2113 28.7366 22.4763C29.0467 22.7107 29.3744 22.8231 29.4772 23.2496C29.5011 23.6209 29.5669 23.9884 29.6733 24.3449C29.9452 24.9261 30.5694 25.1182 31.0134 25.5639C31.25 25.867 31.421 26.216 31.5155 26.5888C31.6101 26.9615 31.6261 27.3498 31.5627 27.7291C31.6477 28.5104 31.7957 29.2835 32.0051 30.041C32.1231 30.8573 32.3623 31.6139 32.5337 32.4039C32.6636 32.997 33.1754 33.8947 33.9176 33.7751C33.9695 33.4929 33.6785 33.2737 33.6402 32.9946C33.6075 32.7411 33.6785 32.478 33.6283 32.2062C33.5568 31.9825 33.5432 31.7443 33.5886 31.5139C33.6341 31.2834 33.7371 31.0683 33.8881 30.8884C34.0133 30.725 34.1879 30.5871 34.3178 30.422C34.569 30.1032 34.3752 30.198 34.3649 29.8465C34.3513 29.4096 34.4845 29.6232 34.7483 29.4877C34.8967 29.3748 35.0292 29.2423 35.1422 29.0939C35.4212 28.8472 35.6771 28.5756 35.9067 28.2823C36.106 27.9635 36.0821 27.5162 36.2877 27.1862C36.5221 26.8083 36.8577 26.8067 37.1862 26.5604C37.6127 26.2415 37.4373 25.9019 37.5154 25.4642C37.6522 24.6915 37.9693 23.962 38.441 23.3349C39.0238 22.5998 39.2733 21.974 38.5654 21.2669C38.2154 20.9169 38.0328 21.0102 37.5681 20.889C37.2316 20.7338 36.8854 20.6006 36.5317 20.4904C36.3164 20.4641 36.1881 20.5422 35.9912 20.4904C35.7943 20.4386 35.8317 20.331 35.6356 20.331C35.3462 20.331 34.9421 20.9377 34.6973 20.5526C34.5618 20.3374 34.9747 19.7442 34.9556 19.4565C34.9581 19.2442 34.9147 19.0339 34.8282 18.84C34.7418 18.6461 34.6145 18.4732 34.455 18.3332C34.3234 18.2606 34.0332 18.2535 33.8722 18.1889C33.682 18.1083 33.5007 18.0084 33.3309 17.8907C33.1093 17.7488 32.6828 17.5025 32.5855 17.253C32.3153 17.241 32.1311 17.0935 31.8561 17.0935C31.6322 17.1397 31.4051 17.1687 31.1768 17.1804C30.9441 17.1541 30.6913 16.9692 30.4386 17.005C30.2363 17.0851 30.0465 17.1939 29.875 17.3279C29.4964 17.5454 29.0846 17.6989 28.6561 17.7823C27.9968 17.9051 27.878 17.654 27.9171 17.0433L27.8198 16.8472C28.0645 16.1672 27.6237 16.1193 27.1382 15.9543C27.0704 15.4688 27.6667 15.1236 27.4172 14.5919C26.9126 14.5656 26.3633 15.9854 25.9368 15.37C25.6546 14.9658 26.0827 13.8322 26.3306 13.4886C26.7558 13.0092 27.3038 12.655 27.9155 12.4641C28.0672 12.4373 28.2235 12.4619 28.3596 12.5341C28.4957 12.6064 28.6037 12.722 28.6664 12.8627C28.8067 13.1816 28.6234 13.4814 28.6664 13.8409C29.0929 13.7437 28.9853 13.2032 28.963 12.913C28.9319 12.4291 29.1862 12.4641 29.4341 12.1158C29.6582 11.7969 29.694 11.4342 29.9746 11.1272C30.1931 10.8881 30.453 10.6346 30.6921 10.4145C30.9664 10.1618 31.2749 10.1857 31.5555 9.99998C31.982 9.71777 31.4184 9.194 32.0466 9.23386C32.2698 9.24741 32.159 9.38772 32.4556 9.31916C32.622 9.26245 32.7852 9.19644 32.9443 9.12146C33.5445 8.87671 33.1196 8.81134 32.8438 8.49405C32.4938 8.09146 32.9897 8.16162 33.35 8.10023C33.6155 8.05559 33.5597 7.97029 33.7925 8.12495C33.9974 8.26207 33.877 8.44383 34.1743 8.43506C34.7428 8.41593 34.3497 7.84592 34.223 7.65699C34.0061 7.33412 33.9511 7.10771 33.4935 7.09894C33.5423 6.94226 33.5367 6.7737 33.4776 6.62062C33.0925 6.67243 33.0264 6.39182 32.7354 6.281C32.2443 6.09526 32.3224 6.49785 32.1215 6.77208C31.9206 7.04632 31.5196 7.00487 31.3674 7.35086C31.2079 7.7096 31.3602 7.98384 30.783 7.88658C30.8419 7.64966 30.8543 7.40358 30.8197 7.16192C30.6569 7.1395 30.4967 7.10132 30.3414 7.04792C30.3414 6.47074 30.9791 6.42211 31.416 6.3679C31.9015 6.30572 32.0609 5.80986 32.4962 5.73013C32.9004 5.65041 33.1914 6.30891 33.692 5.92784C33.9766 5.711 33.8459 5.58425 33.7407 5.37458C33.6748 5.29348 33.6048 5.21578 33.531 5.1418L33.5222 5.12426C33.9089 5.04932 34.3011 4.99112 34.6973 4.94568C34.7853 5.16436 34.8934 5.3744 35.0202 5.57308C35.084 5.6823 35.2059 5.75644 35.2593 5.87602C35.3167 6.01314 35.1796 6.18454 35.3526 6.27463C35.6213 6.41812 36.3994 5.48778 36.5867 5.33631C36.8259 5.14419 36.9717 5.03975 36.9159 4.854C38.1522 4.891 39.3794 5.0784 40.5703 5.41205C40.6644 5.52844 40.7609 5.65121 40.8565 5.78434C41.0646 6.07214 41.1946 6.33203 41.5692 6.46038C41.7861 6.53452 42.4773 6.52096 42.1895 7.01842C41.924 7.47442 41.6314 6.87652 41.4975 6.73382C41.3117 6.53452 40.7641 6.31289 40.78 6.77049C40.8063 7.44971 42.3369 7.34049 42.0093 8.08668C42.1927 8.1943 42.5538 8.37447 42.4948 8.64473C42.4207 8.97557 41.9918 8.76431 42.0005 9.18603C42.0088 9.33464 42.0509 9.47939 42.1237 9.60923C42.1965 9.73906 42.298 9.85054 42.4205 9.93516C42.5429 10.0198 42.6831 10.0753 42.8303 10.0974C42.9774 10.1196 43.1277 10.1078 43.2697 10.063C43.9162 9.83256 43.4291 8.9373 44.1697 8.84403C44.3022 8.82768 44.4366 8.84236 44.5623 8.88692C44.6881 8.93147 44.8018 9.00467 44.8944 9.10073C45.1072 9.26894 45.2444 9.6516 45.5377 9.6213C45.5688 9.43795 45.4317 9.3088 45.4078 9.14298C45.7218 9.24754 46.0028 9.43284 46.2225 9.6803C46.4187 9.98005 46.3979 10.4105 46.881 10.0255C46.8085 9.9649 46.7718 9.83336 46.7335 9.78633C47.0067 9.76903 47.2787 9.83547 47.5132 9.97677C47.7476 10.1181 47.9334 10.3275 48.0457 10.5772C48.6373 11.773 47.184 10.8235 47.113 11.4461C46.7543 11.3321 46.5964 11.0475 46.2847 10.8721C46.1372 10.7924 45.8654 10.8355 45.7522 10.7509C45.5975 10.6369 45.6358 10.4321 45.4987 10.3189C44.9614 9.8788 43.7368 10.5907 43.2434 10.8769C43.1094 10.9566 42.9675 10.9622 42.8759 11.1073C42.7164 11.3552 42.9396 11.419 42.8894 11.6502C42.8201 11.9826 42.388 12.1341 42.258 12.3988C41.9455 13.0365 42.5809 13.947 42.4972 14.6541C42.4501 15.0463 42.026 15.472 42.1887 15.7997C42.258 15.9416 42.5028 16.0627 42.596 16.2294C42.6634 16.4025 42.7409 16.5715 42.828 16.7356C43.2371 17.2742 43.6735 17.7914 44.1354 18.2854C44.2507 18.4123 44.3989 18.5048 44.5636 18.5525C44.7282 18.6002 44.9029 18.6013 45.0682 18.5556C45.4231 18.4941 45.7705 18.3953 46.1046 18.2606C46.4768 18.0837 46.5255 17.8325 46.9161 18.0008C47.2262 18.1363 47.5005 18.5317 47.8632 18.204C48.1613 18.4966 47.8305 19.0052 47.7627 19.3313C47.7334 19.5336 47.7484 19.7398 47.8064 19.9358C47.8645 20.1318 47.9644 20.3128 48.0992 20.4665C48.2413 20.601 48.3456 20.7705 48.4015 20.958C48.4575 21.1455 48.4632 21.3444 48.418 21.5348C48.355 21.9684 48.2693 22.3984 48.1613 22.8231C48.0697 23.244 47.8026 23.5621 47.8162 24.0069C47.897 24.3961 47.9429 24.7918 47.9533 25.1892C47.923 25.6028 47.8652 26.0141 47.7803 26.4201C47.6766 26.8083 47.4008 27.1535 47.286 27.5521C47.2217 27.7496 47.205 27.9595 47.2372 28.1647C47.2695 28.3699 47.3499 28.5646 47.4718 28.7328C47.7476 29.0572 48.0226 28.8715 48.3487 28.6267C48.9094 28.0561 49.3678 27.3932 49.7039 26.6672C50.1476 26.0462 50.5353 25.3869 50.8623 24.6973C50.9229 24.5514 50.9978 24.4063 51.0735 24.262C50.3637 26.738 49.0338 28.9919 47.2095 30.8103C44.3395 33.6802 40.5209 36.0336 36.4599 36.0336C39.6173 36.03 42.7028 35.0906 45.3266 33.3343C47.9505 31.578 49.9949 29.0834 51.2017 26.1657C52.4085 23.2481 52.7235 20.0382 52.1069 16.9416C51.4903 13.845 49.9698 11.0005 47.7375 8.76764C45.5052 6.53475 42.6611 5.01354 39.5647 4.39619C36.4682 3.77884 33.2583 4.09305 30.3403 5.29911C27.4223 6.50517 24.9272 8.54899 23.1702 11.1724C21.4132 13.7958 20.4732 16.881 20.4688 20.0384Z" fill="white"/>
<path d="M76.8247 11.1444H69.2529V9.1748H86.6728V11.1444H79.1022V30.7194H76.8247V11.1444Z" fill="white"/>
<path d="M112.71 30.7194L107.783 23.7958C107.211 23.8592 106.635 23.8899 106.06 23.888H100.276V30.7194H97.999V9.1748H106.062C111.538 9.1748 114.865 11.9451 114.865 16.5616C114.865 19.9471 113.077 22.3168 109.94 23.3326L115.203 30.7194H112.71ZM112.588 16.5616C112.588 13.1141 110.311 11.1444 106.002 11.1444H100.276V21.9475H106.001C110.309 21.9475 112.587 19.9471 112.587 16.5616" fill="white"/>
<path d="M130.223 9.1748H127.945V30.7194H130.223V9.1748Z" fill="white"/>
<path d="M161.799 16.5616C161.799 21.1473 158.476 23.9171 152.996 23.9171H147.211V30.7194H144.934V9.1748H152.996C158.476 9.1748 161.799 11.9451 161.799 16.5616ZM159.522 16.5616C159.522 13.1141 157.244 11.1444 152.936 11.1444H147.211V21.9167H152.936C157.244 21.9167 159.522 19.9471 159.522 16.5616Z" fill="white"/>
<path d="M189.653 28.7495V30.7192H174.418V9.17456H189.191V11.1453H176.696V18.8081H187.838V20.7476H176.696V28.7495H189.653Z" fill="white"/>
<path d="M217.937 28.7495V30.7192H202.702V9.17456H217.475V11.1453H204.98V18.8081H216.121V20.7476H204.98V28.7495H217.937Z" fill="white"/>
<path d="M144.689 40.3706C144.654 39.5353 144.854 38.7079 145.262 37.9949C145.67 37.2819 146.267 36.716 146.978 36.37C147.689 36.024 148.481 35.9138 149.251 36.0535C150.02 36.1933 150.734 36.5766 151.298 37.1541C151.863 37.7316 152.253 38.4769 152.419 39.294C152.585 40.1111 152.518 40.9626 152.228 41.7389C151.938 42.5151 151.437 43.1806 150.791 43.6497C150.144 44.1187 149.382 44.3698 148.601 44.3707C148.095 44.3987 147.589 44.3159 147.114 44.1273C146.64 43.9386 146.206 43.6482 145.84 43.2736C145.473 42.8991 145.183 42.4484 144.985 41.9492C144.787 41.45 144.686 40.9128 144.689 40.3706ZM151.154 40.3706C151.154 39.83 151.004 39.3017 150.724 38.8522C150.444 38.4028 150.045 38.0525 149.579 37.8457C149.112 37.6388 148.599 37.5847 148.104 37.6901C147.609 37.7956 147.154 38.0559 146.797 38.4381C146.44 38.8203 146.197 39.3073 146.098 39.8374C146 40.3675 146.051 40.917 146.244 41.4164C146.437 41.9158 146.764 42.3426 147.184 42.6429C147.604 42.9432 148.097 43.1035 148.602 43.1035C148.94 43.1148 149.276 43.0519 149.591 42.9186C149.905 42.7852 150.191 42.5843 150.43 42.3283C150.669 42.0722 150.857 41.7664 150.981 41.4297C151.106 41.093 151.165 40.7325 151.154 40.3706Z" fill="white"/>
<path d="M167.595 36.5535V44.3761H166.441L162.281 39.0832V44.3761H160.89V36.5535H162.043L166.204 41.8463V36.5535H167.595Z" fill="white"/>
<path d="M175.976 36.5535H177.441V43.1453H181.563V44.3761H175.976V36.5535Z" fill="white"/>
<path d="M191.062 36.5535H189.944V44.3761H191.062V36.5535Z" fill="white"/>
<path d="M205.59 36.5535V44.3761H204.532L200.718 39.0832V44.3761H199.443V36.5535H200.501L204.315 41.8463V36.5535H205.59Z" fill="white"/>
<path d="M219.001 43.1586V44.3761H213.972V36.5535H218.867V37.771H215.217V39.8052H218.458V41.0012H215.217V43.1618L219.001 43.1586Z" fill="white"/>
</svg>
