<svg width="120" height="120" viewBox="0 0 120 120" fill="none" xmlns="http://www.w3.org/2000/svg">
<circle cx="60" cy="60" r="60" fill="#EBFCEA"/>
<path d="M76.4933 43.4611V74.8515C76.4933 76.5849 75.0887 77.9906 73.3553 77.9906H41.2985C39.5651 77.9906 38.1602 76.5849 38.1602 74.8515V43.4611C38.1602 41.7277 39.5651 40.3228 41.2985 40.3228H73.3553C75.0887 40.3228 76.4933 41.7273 76.4933 43.4611Z" fill="white"/>
<path d="M76.4933 71.9385V61.3989C70.7182 61.3989 66.0368 66.0803 66.0368 71.8554C66.0368 72.9769 66.2146 74.0572 66.5419 75.07H41.2993C39.5651 75.07 38.1602 73.6643 38.1602 71.9309V74.8515C38.1602 76.5856 39.5651 77.9906 41.2993 77.9906H73.3553C73.9188 77.9906 74.4471 77.8414 74.9045 77.5812C75.8536 77.0411 76.4937 76.0218 76.4937 74.8515V71.9309C76.4937 71.9336 76.4933 71.9359 76.4933 71.9385Z" fill="#E1EAF8"/>
<path d="M38.1602 49.0708H76.4937V51.6125H38.1602V49.0708Z" fill="#E1EAF8"/>
<path d="M76.4937 43.461V49.0709H38.1602V43.461C38.1602 43.4072 38.1617 43.3534 38.164 43.2996C38.2479 41.6406 39.6189 40.3223 41.2993 40.3223H73.3546C75.0349 40.3223 76.4059 41.6406 76.4899 43.2996C76.4921 43.3534 76.4937 43.4072 76.4937 43.461Z" fill="#01411C"/>
<path d="M38.1602 46.3815V43.461C38.1602 41.7268 39.5651 40.3223 41.2993 40.3223H73.3545C75.0891 40.3223 76.4937 41.7268 76.4937 43.461V46.3815C76.4937 44.6481 75.0891 43.2424 73.3545 43.2424H41.2993C39.5651 43.2424 38.1602 44.6481 38.1602 46.3815Z" fill="#01411C"/>
<path d="M41.0574 59.1559H37.491C36.5198 59.1559 35.7324 58.3686 35.7324 57.3977V56.177C35.7324 55.2058 36.5198 54.4185 37.491 54.4185H41.0574C42.0286 54.4185 42.8156 55.2058 42.8156 56.177V57.3977C42.8156 58.3686 42.0286 59.1559 41.0574 59.1559Z" fill="#04AF49"/>
<path d="M42.8156 65.8372V67.0644C42.8156 68.0337 42.0297 68.8195 41.0604 68.8195H37.4876C36.5182 68.8195 35.7324 68.0337 35.7324 67.0644V65.8372C35.7324 64.8679 36.5182 64.082 37.4876 64.082H41.0608C42.0301 64.082 42.8156 64.8679 42.8156 65.8372Z" fill="#04AF49"/>
<path d="M42.8156 66.4507V67.0645C42.8156 68.0338 42.0297 68.8196 41.0604 68.8196H37.4876C36.5182 68.8196 35.7324 68.0338 35.7324 67.0645V66.4507H42.8156Z" fill="#01411C"/>
<path d="M42.8156 56.7876V57.401C42.8156 58.3703 42.0297 59.1561 41.0604 59.1561H37.4876C36.5182 59.1561 35.7324 58.3703 35.7324 57.401V56.7876H42.8156Z" fill="#01411C"/>
<path d="M44.9648 70.604H48.9543V74.5934H44.9648V70.604Z" fill="#76FFD9"/>
<path d="M52.7051 70.604H56.6945V74.5934H52.7051V70.604Z" fill="#76FFD9"/>
<path d="M60.4463 70.604H64.4357V74.5934H60.4463V70.604Z" fill="#76FFD9"/>
<path d="M84.2679 71.8556C84.2679 76.1487 80.7874 79.6292 76.4943 79.6292C72.2009 79.6292 68.7207 76.1487 68.7207 71.8556C68.7207 67.5622 72.2009 64.082 76.4943 64.082C80.7874 64.082 84.2679 67.5622 84.2679 71.8556Z" fill="#5DE0BF"/>
<path d="M82.3237 71.8559C82.3237 75.0755 79.7137 77.6855 76.4941 77.6855C73.2745 77.6855 70.6641 75.0755 70.6641 71.8559C70.6641 68.6363 73.2745 66.0259 76.4941 66.0259C79.7137 66.0259 82.3237 68.6363 82.3237 71.8559Z" fill="#76FFD9"/>
<path d="M54.249 65.8108V54.4189C54.249 54.0142 53.9213 53.6865 53.5166 53.6865C53.1122 53.6865 52.7842 54.0142 52.7842 54.4189V65.8108C52.7842 66.2151 53.1122 66.5432 53.5166 66.5432C53.9213 66.5432 54.249 66.2151 54.249 65.8108Z" fill="#969BA1"/>
<path d="M62.6977 53.6865H56.6953C56.291 53.6865 55.9629 54.0142 55.9629 54.4189C55.9629 54.8237 56.291 55.1514 56.6953 55.1514H61.6994L58.4115 65.5907C58.2902 65.9763 58.5042 66.3876 58.8903 66.5092C58.9635 66.5321 59.0375 66.5432 59.1104 66.5432C59.4217 66.5432 59.7104 66.3433 59.8089 66.0305L63.3966 54.6391C63.4664 54.4167 63.4267 54.1737 63.2886 53.986C63.1505 53.7975 62.9312 53.6865 62.6977 53.6865Z" fill="#969BA1"/>
<path d="M81.9459 65.3264C81.6357 65.067 81.1738 65.1082 80.9144 65.4187C80.655 65.7289 80.6962 66.1908 81.0067 66.4502C82.6134 67.7934 83.5351 69.7637 83.5351 71.8556C83.5351 75.7382 80.3765 78.8968 76.4939 78.8968C72.6113 78.8968 69.4528 75.7382 69.4528 71.8556C69.4528 67.9734 72.6105 64.8149 76.4928 64.8145H76.4939H76.4954C77.0928 64.8145 77.6864 64.8896 78.2593 65.0373C78.6511 65.1391 79.0505 64.903 79.1516 64.5112C79.2527 64.1194 79.0169 63.72 78.6256 63.619C78.1678 63.5011 77.6993 63.4221 77.2263 63.3817V43.461C77.2263 41.3267 75.4899 39.5898 73.3552 39.5898H41.3C39.1649 39.5898 37.4277 41.3263 37.4277 43.461V53.6878C36.0834 53.7217 35 54.825 35 56.1773V57.3976C35 58.7503 36.0834 59.8535 37.4277 59.887V63.3512C36.0834 63.3847 35 64.4879 35 65.8402V67.0609C35 68.4133 36.0834 69.5165 37.4277 69.55V74.8517C37.4277 76.986 39.1649 78.7225 41.3 78.7225H43.4961C43.9004 78.7225 44.2285 78.3948 44.2285 77.99C44.2285 77.5857 43.9004 77.2576 43.4961 77.2576H41.3C39.9724 77.2576 38.8925 76.1784 38.8925 74.8517V69.5516H41.0573C42.4306 69.5516 43.548 68.4342 43.548 67.0609V65.8402C43.548 64.4666 42.4306 63.3493 41.0573 63.3493H38.8925V59.8886H41.0573C42.4306 59.8886 43.548 58.7712 43.548 57.3976V56.1769C43.548 54.8036 42.4306 53.6863 41.0573 53.6863H38.8925V43.461C38.8925 42.1342 39.9724 41.0547 41.3 41.0547H73.3556C74.6823 41.0547 75.7615 42.1342 75.7615 43.461V63.3813C71.4127 63.754 67.9879 67.4119 67.9879 71.8556C67.9879 73.9053 68.7165 75.7878 69.9284 77.2576H46.708C46.3033 77.2576 45.9756 77.5857 45.9756 77.99C45.9756 78.3948 46.3033 78.7225 46.708 78.7225H71.4806C72.8875 79.7524 74.6209 80.3616 76.4939 80.3616C81.1841 80.3616 84.9999 76.5458 84.9999 71.8556C84.9999 69.3284 83.8868 66.9484 81.9459 65.3264ZM41.0573 64.8141C41.6231 64.8141 42.0831 65.2745 42.0831 65.8402V67.0609C42.0831 67.6267 41.6231 68.0871 41.0573 68.0871H37.491C36.9253 68.0871 36.4648 67.6267 36.4648 67.0609V65.8402C36.4648 65.2745 36.9253 64.8141 37.491 64.8141H41.0573ZM41.0573 55.1511C41.6231 55.1511 42.0831 55.6112 42.0831 56.1773V57.3976C42.0831 57.9637 41.6231 58.4237 41.0573 58.4237H37.491C36.9253 58.4237 36.4648 57.9637 36.4648 57.3976V56.1773C36.4648 55.6112 36.9253 55.1511 37.491 55.1511H41.0573Z" fill="#434C54"/>
<path d="M75.7611 66.8926V70.0878L75.1321 69.4587C74.846 69.1726 74.3821 69.1726 74.0964 69.4587C73.8103 69.7448 73.8103 70.2087 74.0964 70.4944L75.9755 72.3739C76.1159 72.5139 76.3032 72.5883 76.4936 72.5883C76.5882 72.5883 76.6832 72.57 76.7739 72.5326C77.0475 72.4193 77.226 72.1519 77.226 71.8559V66.8926C77.226 66.4878 76.8979 66.1602 76.4936 66.1602C76.0892 66.1602 75.7611 66.4878 75.7611 66.8926Z" fill="#434C54"/>
</svg>
