<svg width="120" height="120" viewBox="0 0 120 120" fill="none" xmlns="http://www.w3.org/2000/svg">
<circle cx="60" cy="60" r="60" fill="#EBFCEA"/>
<path d="M80.8772 74.1963H39.1235C37.2787 74.1963 35.7832 72.7008 35.7832 70.856V45.8037C35.7832 43.9589 37.2787 42.4634 39.1235 42.4634H80.8772C82.722 42.4634 84.2175 43.9589 84.2175 45.8037V70.8559C84.2175 72.7007 82.722 74.1963 80.8772 74.1963Z" fill="white"/>
<path d="M49.9796 63.3403C45.3676 63.3403 41.6289 67.0791 41.6289 71.6911C41.6289 72.5641 41.7639 73.4053 42.0124 74.1963H57.9469C58.1954 73.4053 58.3304 72.5641 58.3304 71.6911C58.3304 67.079 54.5916 63.3403 49.9796 63.3403Z" fill="#E4EAF8"/>
<path d="M59.9999 70.8559H39.9581C39.497 70.8559 39.123 70.4819 39.123 70.0208V46.6388C39.123 46.1776 39.497 45.8037 39.9581 45.8037H59.9999C60.461 45.8037 60.835 46.1776 60.835 46.6388V70.0208C60.835 70.4819 60.461 70.8559 59.9999 70.8559Z" fill="#01411C"/>
<path d="M41.6709 70.856H58.2879C57.8687 66.6361 54.3095 63.3403 49.9793 63.3403C45.6491 63.3403 42.0899 66.6361 41.6709 70.856Z" fill="#01411C"/>
<path d="M56.6602 67.5155C57.1213 67.5155 57.4952 67.1416 57.4952 66.6805V64.5439C57.4952 63.8251 57.0352 63.1868 56.3532 62.9595L53.0545 61.8599C52.7141 61.7464 52.4843 61.4282 52.4835 61.0694L52.4804 59.5845C53.0017 59.3238 53.3495 58.8103 53.3979 58.2294L53.5803 56.2409C53.9298 55.9348 54.1549 55.4905 54.1549 54.9895V49.979H48.3094C46.9258 49.979 45.8042 51.1006 45.8042 52.4842V54.9894C45.8042 55.4904 46.0295 55.9348 46.3788 56.2408L46.5612 58.2293C46.6096 58.8101 46.9573 59.3237 47.4787 59.5844L47.4756 61.0693C47.4749 61.4281 47.245 61.7464 46.9046 61.8598L43.6059 62.9594C42.9238 63.1867 42.4639 63.8249 42.4639 64.5438V66.6804C42.4639 67.1415 42.8378 67.5154 43.2989 67.5154H56.6602V67.5155Z" fill="white"/>
<path d="M43.2987 67.5157H56.6599C56.8303 67.5157 56.9797 67.4521 57.1118 67.3645C55.647 64.9551 53.0051 63.3403 49.9793 63.3403C46.9535 63.3403 44.3115 64.9551 42.8467 67.3645C42.9789 67.4521 43.1283 67.5157 43.2987 67.5157Z" fill="#E4EAF8"/>
<path d="M65.8459 58.33C66.7683 58.33 67.516 57.5822 67.516 56.6599C67.516 55.7375 66.7683 54.9897 65.8459 54.9897C64.9235 54.9897 64.1758 55.7375 64.1758 56.6599C64.1758 57.5822 64.9235 58.33 65.8459 58.33Z" fill="#ABFFDB"/>
<path d="M72.5256 58.33C73.448 58.33 74.1957 57.5822 74.1957 56.6599C74.1957 55.7375 73.448 54.9897 72.5256 54.9897C71.6032 54.9897 70.8555 55.7375 70.8555 56.6599C70.8555 57.5822 71.6032 58.33 72.5256 58.33Z" fill="#FFC850"/>
<path d="M79.2062 58.33C80.1286 58.33 80.8764 57.5822 80.8764 56.6599C80.8764 55.7375 80.1286 54.9897 79.2062 54.9897C78.2839 54.9897 77.5361 55.7375 77.5361 56.6599C77.5361 57.5822 78.2839 58.33 79.2062 58.33Z" fill="#FFC850"/>
<path d="M49.9793 77.5367C53.2077 77.5367 55.8248 74.9196 55.8248 71.6912C55.8248 68.4628 53.2077 65.8457 49.9793 65.8457C46.7509 65.8457 44.1338 68.4628 44.1338 71.6912C44.1338 74.9196 46.7509 77.5367 49.9793 77.5367Z" fill="#ABFFDB"/>
<path d="M80.8769 41.6807H39.1231C36.8497 41.6807 35 43.5304 35 45.8038V70.856C35 73.1294 36.8497 74.9791 39.1231 74.9791H44.2274C45.3716 76.9727 47.5203 78.3194 49.9791 78.3194C52.4379 78.3194 54.5866 76.9727 55.7308 74.9791H80.8768C83.1502 74.9791 84.9999 73.1294 84.9999 70.856V45.8038C85 43.5304 83.1503 41.6807 80.8769 41.6807ZM49.9791 76.7537C47.1876 76.7537 44.9165 74.4826 44.9165 71.6911C44.9165 68.8996 47.1876 66.6285 49.9791 66.6285C52.7706 66.6285 55.0417 68.8996 55.0417 71.6911C55.0418 74.4827 52.7707 76.7537 49.9791 76.7537ZM43.3675 71.6394C43.3541 72.233 43.422 72.8303 43.5792 73.4135H39.1231C37.713 73.4135 36.5657 72.2662 36.5657 70.8561V45.8038C36.5657 44.3937 37.713 43.2464 39.1231 43.2464H80.8768C82.2869 43.2464 83.4342 44.3937 83.4342 45.8038V70.856C83.4342 72.2661 82.2869 73.4134 80.8768 73.4134C79.6424 73.4134 78.4082 73.4134 77.1738 73.4134C74.4394 73.4134 71.705 73.4134 68.9706 73.4134C66.1813 73.4134 63.3919 73.4134 60.6024 73.4134C59.6388 73.4134 58.6751 73.4134 57.7114 73.4134C57.4163 73.4134 57.1214 73.413 56.8263 73.4134C56.7587 73.4135 56.6147 73.4416 56.5534 73.4134C56.2934 73.2938 56.4729 73.0114 56.5189 72.7059C56.8645 70.4156 55.9316 67.9565 54.1143 66.5103C52.1081 64.9136 49.1408 64.6447 46.8775 65.8496C44.7578 66.978 43.4206 69.2797 43.3675 71.6394Z" fill="#474D54"/>
<path d="M51.9068 69.4917L49.3565 72.2738L47.9829 71.0965C47.6545 70.8151 47.1604 70.853 46.879 71.1814C46.5975 71.5097 46.6355 72.0039 46.9638 72.2853L48.9124 73.9554C49.0597 74.0816 49.241 74.1439 49.4216 74.1439C49.6337 74.1439 49.8448 74.0581 49.9989 73.8899L53.0608 70.5496C53.353 70.231 53.3314 69.7358 53.0127 69.4436C52.6941 69.1514 52.199 69.173 51.9068 69.4917Z" fill="#48C397"/>
<path d="M64.1755 48.2567H75.8665C76.2988 48.2567 76.6494 47.9063 76.6494 47.4738C76.6494 47.0415 76.2989 46.6909 75.8665 46.6909H64.1755C63.7432 46.6909 63.3926 47.0414 63.3926 47.4738C63.3926 47.9063 63.7431 48.2567 64.1755 48.2567Z" fill="#ABB0B7"/>
<path d="M64.1755 51.5971H80.0419C80.4742 51.5971 80.8248 51.2466 80.8248 50.8142C80.8248 50.3817 80.4743 50.0312 80.0419 50.0312H64.1755C63.7432 50.0312 63.3926 50.3817 63.3926 50.8142C63.3926 51.2466 63.7431 51.5971 64.1755 51.5971Z" fill="#ABB0B7"/>
<path d="M80.0422 61.7222H69.1862C68.7539 61.7222 68.4033 62.0727 68.4033 62.5051C68.4033 62.9374 68.7538 63.288 69.1862 63.288H80.0422C80.4745 63.288 80.8251 62.9375 80.8251 62.5051C80.825 62.0727 80.4745 61.7222 80.0422 61.7222Z" fill="#ABB0B7"/>
<path d="M65.8456 61.7222H64.1755C63.7432 61.7222 63.3926 62.0727 63.3926 62.5051C63.3926 62.9374 63.7431 63.288 64.1755 63.288H65.8456C66.2779 63.288 66.6285 62.9375 66.6285 62.5051C66.6285 62.0727 66.2779 61.7222 65.8456 61.7222Z" fill="#ABB0B7"/>
<path d="M77.5369 65.0625H69.1862C68.7539 65.0625 68.4033 65.413 68.4033 65.8454C68.4033 66.2777 68.7538 66.6283 69.1862 66.6283H77.5369C77.9692 66.6283 78.3198 66.2778 78.3198 65.8454C78.3198 65.4131 77.9692 65.0625 77.5369 65.0625Z" fill="#ABB0B7"/>
<path d="M65.8456 65.0625H64.1755C63.7432 65.0625 63.3926 65.413 63.3926 65.8454C63.3926 66.2777 63.7431 66.6283 64.1755 66.6283H65.8456C66.2779 66.6283 66.6285 66.2778 66.6285 65.8454C66.6285 65.4131 66.2779 65.0625 65.8456 65.0625Z" fill="#ABB0B7"/>
<path d="M77.5369 68.4028H69.1862C68.7539 68.4028 68.4033 68.7533 68.4033 69.1857C68.4033 69.6181 68.7538 69.9687 69.1862 69.9687H77.5369C77.9692 69.9687 78.3198 69.6182 78.3198 69.1857C78.3198 68.7533 77.9692 68.4028 77.5369 68.4028Z" fill="#ABB0B7"/>
<path d="M65.8456 68.4028H64.1755C63.7432 68.4028 63.3926 68.7533 63.3926 69.1857C63.3926 69.6181 63.7431 69.9687 64.1755 69.9687H65.8456C66.2779 69.9687 66.6285 69.6182 66.6285 69.1857C66.6285 68.7533 66.2779 68.4028 65.8456 68.4028Z" fill="#ABB0B7"/>
</svg>
