<svg width="120" height="120" viewBox="0 0 120 120" fill="none" xmlns="http://www.w3.org/2000/svg">
<circle cx="60" cy="60" r="60" fill="#EBFCEA"/>
<g clip-path="url(#clip0_974_16334)">
<path d="M71.5801 54.828C71.5801 64.7279 63.5555 72.7525 53.6567 72.7525C53.0021 72.7525 52.3563 72.7171 51.72 72.6484C42.7322 71.6833 35.7334 64.073 35.7334 54.828C35.7334 44.9293 43.758 36.9043 53.6567 36.9043C62.1235 36.9043 69.2188 42.7747 71.0937 50.6666C71.4119 52.0029 71.5801 53.396 71.5801 54.828Z" fill="#04AF49"/>
<path d="M71.0938 50.667H63.1791V53.2816L61.3221 51.436L52.4754 60.2266L54.3137 62.0539H51.7197V72.6484C52.3564 72.7171 53.0018 72.753 53.6568 72.753C63.5552 72.753 71.5802 64.728 71.5802 54.8281C71.5802 53.396 71.412 52.0029 71.0938 50.667Z" fill="#FFB400"/>
<path d="M67.1043 54.8279C67.1043 62.2552 61.0839 68.2767 53.6567 68.2767C52.9987 68.2767 52.3517 68.2297 51.72 68.1382C45.2095 67.1994 40.208 61.5971 40.208 54.8279C40.208 47.4007 46.2295 41.3804 53.6567 41.3804C59.6313 41.3804 64.6957 45.2759 66.447 50.6665C66.8739 51.9765 67.1043 53.3753 67.1043 54.8279Z" fill="white"/>
<path d="M66.4467 50.667H64.3231C63.691 50.667 63.1787 51.1793 63.1787 51.8118V53.2816L62.1285 52.2379C61.6822 51.7942 60.9612 51.7942 60.5149 52.2379L53.2921 59.4149C52.8416 59.8623 52.8416 60.5909 53.2921 61.0388L54.3137 62.0539H52.8641C52.232 62.0539 51.7197 62.5662 51.7197 63.1983V68.1383C52.3514 68.2299 52.9984 68.2768 53.6564 68.2768C61.0837 68.2768 67.104 62.2553 67.104 54.8281C67.104 53.3754 66.8736 51.9766 66.4467 50.667Z" fill="#E1EAF8"/>
<path d="M84.2678 71.6388V64.9154H81.411C81.1432 63.9709 80.7655 63.0725 80.2921 62.2352L82.3139 60.2271L77.5276 55.4714L75.5062 57.479C74.6628 57.0094 73.7587 56.6337 72.8088 56.3682V53.5293H66.0404V56.3682C65.089 56.6337 64.1865 57.0091 63.3419 57.479L61.3216 55.4714L56.5353 60.2271L58.5567 62.2352C58.0833 63.0725 57.7057 63.9709 57.4367 64.9154H54.5811V71.6388H57.4367C57.7057 72.5833 58.0833 73.4817 58.5567 74.3194L56.5353 76.3275L61.3216 81.0821L63.3419 79.074C64.1865 79.5452 65.089 79.9194 66.0404 80.1872V83.0249H72.8088V80.1872C73.7587 79.9194 74.6628 79.5452 75.5062 79.074L77.5276 81.0821L82.3139 76.3275L80.2921 74.3194C80.7655 73.4817 81.1432 72.5833 81.411 71.6388H84.2678ZM69.4244 73.7941C66.3673 73.7941 63.8893 71.3241 63.8893 68.2773C63.8893 65.2301 66.3673 62.7601 69.4244 62.7601C72.4815 62.7601 74.9584 65.2301 74.9584 68.2773C74.9584 71.3241 72.4815 73.7941 69.4244 73.7941Z" fill="#EBFCEA"/>
<path d="M69.4241 59.6704C64.6706 59.6704 60.8174 63.5233 60.8174 68.2771C60.8174 73.0295 64.6706 76.8827 69.4241 76.8827C74.1768 76.8827 78.0297 73.0295 78.0297 68.2771C78.0297 63.5233 74.1768 59.6704 69.4241 59.6704ZM69.4241 73.7939C66.367 73.7939 63.889 71.3239 63.889 68.2771C63.889 65.2299 66.367 62.7599 69.4241 62.7599C72.4812 62.7599 74.9581 65.2299 74.9581 68.2771C74.9581 71.3239 72.4812 73.7939 69.4241 73.7939Z" fill="#5DE0BF"/>
<path d="M37.4616 60.6111C36.8002 58.7595 36.4648 56.814 36.4648 54.8284C36.4648 45.3489 44.177 37.6367 53.6562 37.6367C57.551 37.6367 61.2238 38.9066 64.2778 41.3095C64.5956 41.5594 65.0564 41.5044 65.3062 41.1867C65.5565 40.8689 65.5016 40.4081 65.1834 40.1582C61.8692 37.5505 57.8828 36.1719 53.6562 36.1719C43.3691 36.1719 35 44.5413 35 54.8284C35 56.9822 35.3639 59.0936 36.0818 61.104C36.189 61.4034 36.4709 61.5904 36.7715 61.5904C36.8536 61.5904 36.9367 61.5762 37.018 61.5472C37.3991 61.4114 37.5974 60.9922 37.4616 60.6111Z" fill="#434C54"/>
<path d="M57.9791 54.8284C57.9791 54.4237 57.651 54.096 57.2467 54.096H53.7959V46.4312C53.7959 46.0268 53.4682 45.6987 53.0635 45.6987C52.6591 45.6987 52.3311 46.0268 52.3311 46.4312V54.8284C52.3311 55.2328 52.6591 55.5609 53.0635 55.5609H57.2467C57.651 55.5609 57.9791 55.2328 57.9791 54.8284Z" fill="#969BA1"/>
<path d="M84.2676 64.1822H81.9521C81.7465 63.5604 81.4932 62.9538 81.1953 62.3694L82.8299 60.7459C82.9683 60.6086 83.0462 60.4216 83.0462 60.2267C83.0462 60.0314 82.9683 59.8445 82.8299 59.7068L78.044 54.9517C77.7582 54.6679 77.2974 54.6679 77.0117 54.9514L75.3721 56.5799C74.7805 56.2823 74.1678 56.0294 73.5415 55.8249V53.5292C73.5415 53.1245 73.2134 52.7968 72.809 52.7968H72.2025C71.7653 48.7941 70.0239 45.0022 67.2537 42.0542C66.9768 41.7594 66.5129 41.7449 66.2184 42.0218C65.9235 42.2992 65.909 42.7626 66.186 43.0575C68.7021 45.7351 70.2978 49.1679 70.7289 52.7968H66.0406C65.6359 52.7968 65.3082 53.1245 65.3082 53.5292V55.8245C64.6811 56.0294 64.0684 56.2819 63.4764 56.5799L61.838 54.9517C61.5523 54.6679 61.0911 54.6679 60.8057 54.9517L56.0198 59.7068C55.8813 59.8445 55.8035 60.0314 55.8035 60.2263C55.8035 60.4216 55.8813 60.6086 56.0198 60.7459L57.6532 62.369C57.3553 62.9535 57.1024 63.5604 56.8964 64.1822H54.5809C54.1765 64.1822 53.8485 64.5102 53.8485 64.9146V71.6388C53.8485 71.7768 53.8874 71.9054 53.9538 72.0156C53.855 72.0172 53.7558 72.0198 53.6566 72.0198C47.4936 72.0198 41.7666 68.69 38.7106 63.3296C38.5103 62.9782 38.0632 62.8558 37.7115 63.0561C37.3602 63.2563 37.2377 63.7038 37.438 64.0551C40.7541 69.8714 46.9687 73.4847 53.6566 73.4847C54.8433 73.4847 56.0267 73.3714 57.184 73.1498C57.3259 73.5007 57.4812 73.8467 57.6532 74.1843L56.0198 75.8075C55.8813 75.9452 55.8035 76.1321 55.8035 76.327C55.8035 76.5219 55.8813 76.7093 56.0198 76.8466L60.8057 81.602C61.0911 81.8858 61.5526 81.8858 61.838 81.602L63.4764 79.9739C64.0665 80.271 64.6792 80.5239 65.3082 80.7296V83.0245C65.3082 83.4288 65.6363 83.7569 66.0406 83.7569H72.809C73.2138 83.7569 73.5415 83.4288 73.5415 83.0245V80.7296C74.1701 80.5239 74.7828 80.271 75.3725 79.9743L77.0117 81.6024C77.2974 81.8858 77.7586 81.8858 78.044 81.602L82.8299 76.847C82.9683 76.7093 83.0462 76.5223 83.0462 76.327C83.0462 76.1321 82.9683 75.9452 82.8299 75.8075L81.1957 74.1843C81.4936 73.5995 81.7469 72.993 81.9521 72.3712H84.2676C84.6724 72.3712 85.0001 72.0435 85.0001 71.6388V64.915C85.0001 64.5102 84.6724 64.1822 84.2676 64.1822ZM83.5352 70.9063H81.4112C81.0835 70.9063 80.7955 71.1238 80.7062 71.4389C80.4583 72.3147 80.1043 73.1627 79.6541 73.9589C79.492 74.2461 79.5416 74.6062 79.7758 74.8389L81.2746 76.3274L77.5278 80.0502L76.0222 78.5548C75.7906 78.3248 75.4343 78.2756 75.1494 78.4346C74.3494 78.881 73.4953 79.2331 72.6111 79.4814C72.2952 79.5703 72.0766 79.8583 72.0766 80.1867V82.2921H66.773V80.1867C66.773 79.8587 66.5548 79.5703 66.2386 79.4814C65.354 79.2334 64.4995 78.8813 63.6995 78.4346C63.4142 78.2756 63.0583 78.3244 62.8264 78.5548L61.3218 80.0498L57.575 76.327L59.0731 74.8385C59.3069 74.6062 59.3569 74.2457 59.1944 73.9585C58.7446 73.1623 58.3906 72.3147 58.1423 71.4389C58.053 71.1238 57.7654 70.9063 57.4377 70.9063H55.3137V65.647H57.4377C57.7654 65.647 58.053 65.4296 58.1423 65.1145C58.391 64.2375 58.745 63.3899 59.1944 62.5949C59.3569 62.3076 59.3069 61.9471 59.0731 61.7148L57.575 60.2263L61.3218 56.5036L62.8264 57.9985C63.0579 58.2286 63.4138 58.2774 63.6992 58.1187C64.5037 57.6709 65.3582 57.3191 66.2378 57.0731C66.5545 56.9846 66.773 56.6962 66.773 56.3678V54.2613H72.0766V56.3678C72.0766 56.6962 72.2952 56.9846 72.6118 57.0731C73.4911 57.3191 74.3452 57.6709 75.1501 58.1187C75.4347 58.2778 75.7906 58.2286 76.0222 57.9985L77.5278 56.5032L81.2746 60.2259L79.7758 61.7144C79.5416 61.9471 79.492 62.3072 79.6541 62.5949C80.1039 63.3899 80.4579 64.2375 80.7066 65.1145C80.7959 65.4296 81.0835 65.647 81.4112 65.647H83.5352V70.9063Z" fill="#434C54"/>
<path d="M69.4244 62.0273C65.9687 62.0273 63.1572 64.8311 63.1572 68.277C63.1572 71.7232 65.9687 74.5266 69.4244 74.5266C70.2201 74.5266 70.996 74.3797 71.7296 74.0898C72.1061 73.941 72.2908 73.5157 72.142 73.1396C71.9936 72.7634 71.5679 72.5784 71.1921 72.7272C70.6298 72.9492 70.0355 73.0617 69.4244 73.0617C67.2916 73.0617 65.48 71.6686 64.8555 69.7479C67.0486 68.0984 68.8701 65.966 70.1519 63.5471C72.4556 63.8973 74.226 65.8848 74.226 68.277C74.226 69.2936 73.9105 70.264 73.3131 71.0838C73.0751 71.4107 73.1472 71.8689 73.4741 72.1069C73.801 72.3453 74.2591 72.2732 74.4976 71.9463C75.278 70.8744 75.6908 69.6056 75.6908 68.277C75.6908 64.8311 72.8797 62.0273 69.4244 62.0273ZM64.6274 68.063C64.7258 65.8539 66.3337 64.0293 68.4467 63.5921C67.4411 65.2836 66.1441 66.8026 64.6274 68.063Z" fill="#434C54"/>
<path d="M80.4307 49.1924V49.858H79.7646C79.3603 49.858 79.0322 50.1857 79.0322 50.5905C79.0322 50.9952 79.3603 51.3229 79.7646 51.3229H80.4307V51.9886C80.4307 52.3933 80.7584 52.7214 81.1631 52.7214C81.5675 52.7214 81.8955 52.3933 81.8955 51.9886V51.3229H82.5612C82.9659 51.3229 83.2936 50.9952 83.2936 50.5905C83.2936 50.1857 82.9659 49.858 82.5612 49.858H81.8955V49.1924C81.8955 48.7876 81.5675 48.46 81.1631 48.46C80.7584 48.46 80.4307 48.7876 80.4307 49.1924Z" fill="#FFC843"/>
<path d="M72.4941 44.3644H73.1602V45.0304C73.1602 45.4348 73.4879 45.7629 73.8926 45.7629C74.297 45.7629 74.625 45.4348 74.625 45.0304V44.3644H75.2907C75.6954 44.3644 76.0231 44.0367 76.0231 43.632C76.0231 43.2276 75.6954 42.8996 75.2907 42.8996H74.625V42.2339C74.625 41.8291 74.297 41.5015 73.8926 41.5015C73.4879 41.5015 73.1602 41.8291 73.1602 42.2339V42.8996H72.4941C72.0894 42.8996 71.7617 43.2276 71.7617 43.632C71.7617 44.0367 72.0898 44.3644 72.4941 44.3644Z" fill="#FFC843"/>
<path d="M77.9004 40.6994H78.5664V41.3654C78.5664 41.7698 78.8941 42.0978 79.2989 42.0978C79.7032 42.0978 80.0313 41.7698 80.0313 41.3654V40.6994H80.6969C81.1017 40.6994 81.4294 40.3717 81.4294 39.9669C81.4294 39.5626 81.1017 39.2345 80.6969 39.2345H80.0313V38.5688C80.0313 38.1641 79.7032 37.8364 79.2989 37.8364C78.8941 37.8364 78.5664 38.1641 78.5664 38.5688V39.2345H77.9004C77.496 39.2345 77.168 39.5626 77.168 39.9669C77.168 40.3717 77.496 40.6994 77.9004 40.6994Z" fill="#FFC843"/>
<path d="M41.6061 73.7667H40.9401V73.1011C40.9401 72.6963 40.6124 72.3687 40.2077 72.3687C39.8029 72.3687 39.4752 72.6963 39.4752 73.1011V73.7667H38.8096C38.4048 73.7667 38.0771 74.0944 38.0771 74.4992C38.0771 74.9039 38.4048 75.2316 38.8096 75.2316H39.4752V75.8972C39.4752 76.302 39.8029 76.6297 40.2077 76.6297C40.6124 76.6297 40.9401 76.302 40.9401 75.8972V75.2316H41.6061C42.0105 75.2316 42.3385 74.9039 42.3385 74.4992C42.3385 74.0944 42.0105 73.7667 41.6061 73.7667Z" fill="#FFC843"/>
</g>
<defs>
<clipPath id="clip0_974_16334">
<rect width="50" height="50" fill="white" transform="translate(35 35)"/>
</clipPath>
</defs>
</svg>
