<svg width="42" height="39" viewBox="0 0 42 39" fill="none" xmlns="http://www.w3.org/2000/svg">
<path d="M37.0684 4.20877C34.9182 2.06172 32.1437 0.650155 29.1423 0.176201C26.1409 -0.297752 23.0664 0.19022 20.3593 1.57024H10.2016C7.49646 1.57008 4.90199 2.64443 2.98887 4.557C1.07574 6.46957 0.000630499 9.06373 0 11.7689V28.7984C0 31.504 1.07481 34.0988 2.98799 36.012C4.90117 37.9252 7.49599 39 10.2016 39H27.2299C29.9352 39 32.5298 37.9253 34.4427 36.0124C36.3557 34.0994 37.4304 31.5049 37.4304 28.7996V24.1543C39.9644 21.4299 41.3426 17.8286 41.2751 14.1085C41.2076 10.3884 39.6996 6.83949 37.0684 4.20877ZM36.1768 23.6426C32.0956 27.7207 19.9497 30.3902 14.2709 30.3902C12.8241 30.3902 11.7928 30.2166 11.4273 29.851C9.46101 27.8848 12.5132 10.2205 17.6358 5.09917C20.095 2.64048 23.4302 1.25942 26.9077 1.25981C30.3852 1.2602 33.7202 2.64201 36.1789 5.10125C38.6375 7.5605 40.0186 10.8957 40.0182 14.3732C40.0178 17.8507 38.636 21.1857 36.1768 23.6444" fill="#04AF49"/>
<path d="M15.2617 14.3497C15.2617 11.3225 17.0158 8.47589 19.1568 6.33487C19.2073 6.28554 19.259 6.23799 19.3107 6.18865C19.2754 6.31195 19.2232 6.42977 19.1556 6.53875C18.9874 6.78959 18.7057 6.89063 18.5297 7.12661C18.3673 7.36373 18.2487 7.62807 18.1796 7.90705C18.1148 8.16799 18.1541 8.48481 18.0607 8.74575C17.9419 9.07564 17.7314 9.27298 17.7713 9.65577C18.2313 9.79248 18.0322 8.9734 18.4203 8.93179C18.5013 9.32952 18.5035 9.73925 18.4269 10.1378C18.3787 10.5955 18.2896 10.7102 18.5636 11.1031C18.7805 11.4146 18.8519 11.6226 19.2697 11.672C19.4339 11.6841 19.5902 11.7474 19.7165 11.853C19.8428 11.9585 19.9329 12.101 19.9741 12.2604C20.2713 12.324 20.4496 12.3728 20.4883 12.7003C20.6468 12.8273 20.8158 12.9407 20.9935 13.0391C21.1902 13.0908 21.5183 12.8102 21.7068 13.026C22.0159 13.3868 21.3139 14.3277 21.1885 14.6523C21.0676 14.8986 21.0256 15.1763 21.0682 15.4474C21.1107 15.7184 21.2357 15.9699 21.4262 16.1674C21.6574 16.3421 21.9017 16.4259 21.9784 16.744C21.9962 17.0208 22.0453 17.2948 22.1246 17.5607C22.3273 17.994 22.7927 18.1372 23.1238 18.4695C23.3002 18.6955 23.4277 18.9557 23.4982 19.2336C23.5687 19.5116 23.5807 19.8011 23.5333 20.0839C23.5967 20.6664 23.7071 21.2429 23.8632 21.8076C23.9512 22.4163 24.1295 22.9804 24.2573 23.5694C24.3542 24.0116 24.7358 24.6809 25.2892 24.5918C25.3278 24.3814 25.1109 24.2179 25.0823 24.0099C25.058 23.8208 25.1109 23.6247 25.0734 23.422C25.0202 23.2552 25.01 23.0776 25.0439 22.9058C25.0778 22.734 25.1546 22.5736 25.2672 22.4395C25.3605 22.3176 25.4907 22.2148 25.5876 22.0917C25.7748 21.854 25.6304 21.9247 25.6227 21.6626C25.6125 21.3369 25.7118 21.4962 25.9086 21.3951C26.0192 21.3109 26.118 21.2121 26.2022 21.1015C26.4102 20.9176 26.601 20.715 26.7722 20.4964C26.9208 20.2586 26.903 19.9252 27.0563 19.6791C27.2311 19.3973 27.4813 19.3961 27.7262 19.2125C28.0442 18.9747 27.9135 18.7215 27.9717 18.3952C28.0737 17.8191 28.3101 17.2751 28.6618 16.8076C29.0963 16.2595 29.2824 15.7929 28.7545 15.2657C28.4936 15.0047 28.3575 15.0743 28.0109 14.9839C27.7601 14.8682 27.502 14.7689 27.2382 14.6867C27.0777 14.6671 26.982 14.7254 26.8352 14.6867C26.6884 14.6481 26.7163 14.5679 26.5701 14.5679C26.3544 14.5679 26.053 15.0202 25.8705 14.7331C25.7695 14.5726 26.0774 14.1304 26.0631 13.9158C26.065 13.7576 26.0326 13.6008 25.9681 13.4562C25.9037 13.3116 25.8088 13.1827 25.6898 13.0783C25.5917 13.0242 25.3754 13.0189 25.2553 12.9707C25.1135 12.9106 24.9783 12.8361 24.8517 12.7484C24.6865 12.6426 24.3685 12.4589 24.296 12.2729C24.0945 12.264 23.9571 12.154 23.7521 12.154C23.5852 12.1884 23.4159 12.2101 23.2457 12.2188C23.0721 12.1992 22.8837 12.0613 22.6952 12.088C22.5444 12.1478 22.4028 12.2288 22.275 12.3288C21.9927 12.4909 21.6857 12.6054 21.3662 12.6676C20.8746 12.7591 20.786 12.5719 20.8152 12.1166L20.7427 11.9703C20.9251 11.4633 20.5964 11.4277 20.2344 11.3046C20.1839 10.9426 20.6285 10.6853 20.4425 10.2888C20.0662 10.2692 19.6567 11.3278 19.3387 10.8689C19.1283 10.5676 19.4475 9.72234 19.6323 9.46616C19.9493 9.10874 20.3579 8.84465 20.814 8.70236C20.9271 8.68231 21.0437 8.70068 21.1451 8.75454C21.2466 8.8084 21.3271 8.89464 21.3739 8.99955C21.4785 9.23731 21.3418 9.46081 21.3739 9.72888C21.6919 9.65636 21.6117 9.25336 21.595 9.037C21.5718 8.6762 21.7614 8.70236 21.9463 8.4426C22.1133 8.20485 22.1401 7.9344 22.3493 7.70555C22.5122 7.52723 22.7059 7.33822 22.8843 7.17416C23.0887 6.98574 23.3188 7.00357 23.528 6.86508C23.846 6.65466 23.4258 6.26414 23.8941 6.29386C24.0606 6.30396 23.978 6.40858 24.1991 6.35746C24.3232 6.31517 24.4448 6.26596 24.5634 6.21005C25.011 6.02757 24.6942 5.97883 24.4885 5.74226C24.2276 5.44209 24.5973 5.4944 24.866 5.44863C25.0639 5.41534 25.0223 5.35174 25.1959 5.46705C25.3486 5.56929 25.2589 5.70481 25.4806 5.69827C25.9044 5.68401 25.6114 5.25902 25.5168 5.11814C25.3552 4.87741 25.3142 4.7086 24.973 4.70207C25.0093 4.58524 25.0051 4.45957 24.9611 4.34543C24.674 4.38406 24.6247 4.17484 24.4077 4.09221C24.0416 3.95372 24.0998 4.25389 23.95 4.45836C23.8002 4.66284 23.5012 4.63193 23.3877 4.88989C23.2688 5.15737 23.3824 5.36185 22.952 5.28933C22.9959 5.11268 23.0052 4.9292 22.9794 4.74902C22.858 4.73231 22.7386 4.70384 22.6227 4.66402C22.6227 4.23368 23.0982 4.19742 23.424 4.157C23.786 4.11064 23.9048 3.74093 24.2294 3.68149C24.5307 3.62205 24.7477 4.11302 25.121 3.8289C25.3332 3.66722 25.2357 3.57271 25.1572 3.41639C25.1081 3.35592 25.0559 3.29799 25.0009 3.24282L24.9944 3.22974C25.2827 3.17387 25.5751 3.13048 25.8705 3.0966C25.9361 3.25965 26.0167 3.41625 26.1112 3.56439C26.1588 3.64582 26.2497 3.7011 26.2896 3.79026C26.3324 3.8925 26.2301 4.02029 26.3591 4.08746C26.5594 4.19445 27.1396 3.50079 27.2792 3.38785C27.4576 3.2446 27.5663 3.16674 27.5247 3.02824C28.4465 3.05583 29.3615 3.19555 30.2494 3.44432C30.3196 3.5311 30.3915 3.62264 30.4628 3.72191C30.618 3.93648 30.7149 4.13026 30.9942 4.22595C31.1559 4.28123 31.6712 4.27113 31.4567 4.64203C31.2587 4.98203 31.0406 4.53623 30.9407 4.42983C30.8022 4.28123 30.3939 4.11599 30.4058 4.45717C30.4254 4.9636 31.5666 4.88217 31.3223 5.43852C31.459 5.51877 31.7283 5.6531 31.6843 5.8546C31.629 6.10128 31.3092 5.94376 31.3158 6.2582C31.322 6.369 31.3534 6.47693 31.4076 6.57373C31.4619 6.67054 31.5376 6.75366 31.6289 6.81674C31.7202 6.87983 31.8247 6.92121 31.9344 6.93773C32.0442 6.95424 32.1562 6.94545 32.2621 6.91203C32.7441 6.74025 32.3809 6.07274 32.9331 6.0032C33.0319 5.99101 33.1321 6.00196 33.2259 6.03518C33.3196 6.0684 33.4044 6.12297 33.4734 6.1946C33.6321 6.32001 33.7344 6.60532 33.9531 6.58274C33.9763 6.44603 33.8741 6.34973 33.8562 6.2261C34.0904 6.30406 34.2999 6.44222 34.4637 6.62672C34.6099 6.85022 34.5945 7.17119 34.9547 6.8841C34.9006 6.83892 34.8732 6.74085 34.8447 6.70578C35.0484 6.69288 35.2512 6.74242 35.426 6.84777C35.6008 6.95313 35.7393 7.10929 35.8231 7.29542C36.2641 8.18701 35.1806 7.47909 35.1276 7.94331C34.8602 7.85831 34.7425 7.64611 34.5101 7.51535C34.4001 7.45591 34.1974 7.488 34.113 7.425C33.9977 7.34 34.0262 7.18724 33.924 7.10283C33.5234 6.77473 32.6104 7.30552 32.2424 7.51891C32.1426 7.57835 32.0368 7.58251 31.9684 7.69069C31.8496 7.87555 32.016 7.9231 31.9785 8.09548C31.9268 8.34334 31.6047 8.45628 31.5078 8.65362C31.2748 9.12913 31.7485 9.80793 31.6861 10.3352C31.651 10.6276 31.3348 10.945 31.4561 11.1893C31.5078 11.2951 31.6903 11.3855 31.7598 11.5097C31.81 11.6388 31.8678 11.7648 31.9328 11.8871C32.2378 12.2887 32.5631 12.6744 32.9076 13.0426C32.9935 13.1373 33.104 13.2062 33.2268 13.2418C33.3496 13.2774 33.4798 13.2782 33.603 13.2441C33.8676 13.1983 34.1267 13.1246 34.3757 13.0242C34.6533 12.8923 34.6896 12.705 34.9808 12.8304C35.2121 12.9315 35.4165 13.2263 35.687 12.982C35.9093 13.2002 35.6626 13.5794 35.6121 13.8225C35.5902 13.9733 35.6014 14.1271 35.6447 14.2732C35.688 14.4193 35.7624 14.5543 35.8629 14.6689C35.9689 14.7692 36.0466 14.8955 36.0884 15.0353C36.1301 15.1751 36.1343 15.3234 36.1007 15.4654C36.0536 15.7887 35.9898 16.1093 35.9093 16.4259C35.8409 16.7398 35.6418 16.977 35.6519 17.3086C35.7122 17.5988 35.7464 17.8938 35.7541 18.1901C35.7315 18.4986 35.6885 18.8051 35.6252 19.1079C35.5479 19.3973 35.3422 19.6547 35.2566 19.9519C35.2087 20.0992 35.1962 20.2557 35.2203 20.4087C35.2443 20.5617 35.3043 20.7068 35.3951 20.8322C35.6008 21.0741 35.8059 20.9356 36.049 20.7532C36.467 20.3277 36.8088 19.8335 37.0594 19.2921C37.3903 18.8291 37.6793 18.3376 37.9231 17.8234C37.9683 17.7146 38.0241 17.6064 38.0806 17.4988C37.5514 19.3449 36.5597 21.0254 35.1996 22.3812C33.0597 24.521 30.2126 26.2757 27.1847 26.2757C29.5389 26.273 31.8394 25.5726 33.7957 24.2631C35.7521 22.9536 37.2764 21.0937 38.1762 18.9182C39.0759 16.7428 39.3108 14.3495 38.8511 12.0407C38.3914 9.73188 37.2577 7.61109 35.5933 5.94625C33.9288 4.28141 31.8083 3.1472 29.4996 2.6869C27.1909 2.22661 24.7976 2.46088 22.6219 3.36011C20.4463 4.25935 18.5859 5.78322 17.2759 7.73921C15.9659 9.6952 15.265 11.9956 15.2617 14.3497Z" fill="#04AF49"/>
</svg>
