<?xml version="1.0" encoding="utf-8"?>
<svg viewBox="-350.846 -209.491 164 39" width="164px" height="39px" xmlns="http://www.w3.org/2000/svg" xmlns:bx="https://boxy-svg.com">
  <path d="M -340.897 -203.729 L -345.852 -203.729 L -345.852 -205.018 L -334.453 -205.018 L -334.453 -203.729 L -339.407 -203.729 L -339.407 -190.92 L -340.897 -190.92 L -340.897 -203.729 Z" fill="#252525" style=""/>
  <path d="M -317.414 -190.92 L -320.638 -195.45 C -321.013 -195.409 -321.389 -195.389 -321.766 -195.39 L -325.551 -195.39 L -325.551 -190.92 L -327.041 -190.92 L -327.041 -205.018 L -321.765 -205.018 C -318.181 -205.018 -316.004 -203.205 -316.004 -200.184 C -316.004 -197.969 -317.174 -196.418 -319.227 -195.753 L -315.783 -190.92 L -317.414 -190.92 Z M -317.494 -200.184 C -317.494 -202.44 -318.984 -203.729 -321.804 -203.729 L -325.551 -203.729 L -325.551 -196.66 L -321.804 -196.66 C -318.985 -196.66 -317.495 -197.969 -317.495 -200.184" fill="#252525" style=""/>
  <path d="M -305.955 -205.018 L -307.445 -205.018 L -307.445 -190.92 L -305.955 -190.92 L -305.955 -205.018 Z" fill="#252525" style=""/>
  <path d="M -285.292 -200.184 C -285.292 -197.183 -287.467 -195.371 -291.052 -195.371 L -294.837 -195.371 L -294.837 -190.92 L -296.329 -190.92 L -296.329 -205.018 L -291.052 -205.018 C -287.467 -205.018 -285.292 -203.205 -285.292 -200.184 Z M -286.782 -200.184 C -286.782 -202.44 -288.273 -203.729 -291.092 -203.729 L -294.837 -203.729 L -294.837 -196.68 L -291.092 -196.68 C -288.273 -196.68 -286.782 -197.969 -286.782 -200.184 Z" fill="#252525" style=""/>
  <path d="M -267.065 -192.208 L -267.065 -190.92 L -277.034 -190.92 L -277.034 -205.018 L -267.367 -205.018 L -267.367 -203.728 L -275.544 -203.728 L -275.544 -198.714 L -268.253 -198.714 L -268.253 -197.445 L -275.544 -197.445 L -275.544 -192.208 L -267.065 -192.208 Z" fill="#252525" style=""/>
  <path d="M -248.556 -192.208 L -248.556 -190.92 L -258.526 -190.92 L -258.526 -205.018 L -248.858 -205.018 L -248.858 -203.728 L -257.035 -203.728 L -257.035 -198.714 L -249.745 -198.714 L -249.745 -197.445 L -257.035 -197.445 L -257.035 -192.208 L -248.556 -192.208 Z" fill="#252525" style=""/>
  <path d="M -296.488 -184.604 C -296.511 -185.151 -296.381 -185.692 -296.114 -186.159 C -295.847 -186.626 -295.456 -186.996 -294.991 -187.222 C -294.525 -187.449 -294.007 -187.521 -293.503 -187.429 C -293 -187.338 -292.534 -187.087 -292.164 -186.709 C -291.794 -186.331 -291.538 -185.844 -291.43 -185.309 C -291.322 -184.774 -291.365 -184.217 -291.555 -183.709 C -291.746 -183.201 -292.073 -182.766 -292.496 -182.459 C -292.919 -182.152 -293.418 -181.987 -293.929 -181.987 C -294.26 -181.968 -294.591 -182.023 -294.902 -182.146 C -295.212 -182.27 -295.496 -182.46 -295.736 -182.705 C -295.976 -182.95 -296.166 -183.245 -296.295 -183.571 C -296.424 -183.898 -296.49 -184.25 -296.488 -184.604 Z M -292.258 -184.604 C -292.258 -184.958 -292.356 -185.304 -292.54 -185.598 C -292.723 -185.892 -292.984 -186.121 -293.289 -186.257 C -293.595 -186.392 -293.93 -186.427 -294.254 -186.358 C -294.579 -186.289 -294.876 -186.119 -295.11 -185.869 C -295.343 -185.619 -295.502 -185.3 -295.567 -184.953 C -295.631 -184.606 -295.597 -184.247 -295.471 -183.92 C -295.345 -183.593 -295.131 -183.314 -294.856 -183.117 C -294.581 -182.921 -294.258 -182.816 -293.928 -182.816 C -293.707 -182.809 -293.487 -182.85 -293.281 -182.937 C -293.075 -183.024 -292.888 -183.156 -292.732 -183.323 C -292.576 -183.491 -292.453 -183.691 -292.371 -183.911 C -292.29 -184.132 -292.251 -184.368 -292.258 -184.604 Z" fill="#04AF49" style=""/>
  <path d="M -281.5 -187.102 L -281.5 -181.983 L -282.255 -181.983 L -284.977 -185.446 L -284.977 -181.983 L -285.887 -181.983 L -285.887 -187.102 L -285.132 -187.102 L -282.41 -183.638 L -282.41 -187.102 L -281.5 -187.102 Z" fill="#04AF49" style=""/>
  <path d="M -276.015 -187.102 L -275.056 -187.102 L -275.056 -182.788 L -272.359 -182.788 L -272.359 -181.983 L -276.015 -181.983 L -276.015 -187.102 Z" fill="#04AF49" style=""/>
  <path d="M -266.144 -187.102 L -266.875 -187.102 L -266.875 -181.983 L -266.144 -181.983 L -266.144 -187.102 Z" fill="#04AF49" style=""/>
  <path d="M -256.636 -187.102 L -256.636 -181.983 L -257.329 -181.983 L -259.824 -185.446 L -259.824 -181.983 L -260.658 -181.983 L -260.658 -187.102 L -259.967 -187.102 L -257.471 -183.638 L -257.471 -187.102 L -256.636 -187.102 Z" fill="#04AF49" style=""/>
  <path d="M -247.861 -182.78 L -247.861 -181.983 L -251.152 -181.983 L -251.152 -187.102 L -247.948 -187.102 L -247.948 -186.305 L -250.336 -186.305 L -250.336 -184.974 L -248.216 -184.974 L -248.216 -184.191 L -250.336 -184.191 L -250.336 -182.778 L -247.861 -182.78 Z" fill="#04AF49" style=""/>
  <text style="fill: rgb(51, 51, 51); font-family: Arial, sans-serif; font-size: 22.7px; white-space: pre;" x="-218.06100463867188" y="-187.2689971923828" transform="matrix(0.370231, 0, 0, 0.092092, 152.644409, 19.19335)" bx:origin="-30.760065 0"> </text>
  <text style="white-space: pre; fill: rgb(51, 51, 51); font-family: Arial, sans-serif; font-size: 22.7px;" x="-56.446" y="-171.933"> </text>
  <text style="white-space: pre; fill: rgb(51, 51, 51); font-family: Arial, sans-serif; font-size: 22.7px;" x="-104.105" y="-186.841" transform="matrix(0.370231, 0, 0, 0.092092, 152.644409, 19.19335)" bx:origin="-48.806823 -0.016842"> </text>
  <text style="white-space: pre; fill: rgb(51, 51, 51); font-family: Arial, sans-serif; font-size: 22.7px;" x="24.362" y="-164.781" transform="matrix(0.370231, 0, 0, 0.092092, 152.644409, 19.19335)" bx:origin="-69.151628 -0.884905"> </text>
  <text style="white-space: pre; fill: rgb(51, 51, 51); font-family: Arial, sans-serif; font-size: 22.7px;" x="-412.295" y="-174.513" transform="matrix(0.370231, 0, 0, 0.092092, 152.644409, 19.19335)" bx:origin="-0.000001 -0.50195"> </text>
  <text style="white-space: pre; fill: rgb(51, 51, 51); font-family: Arial, sans-serif; font-size: 22.7px;" x="-219.595" y="-118.066" transform="matrix(0.370231, 0, 0, 0.092092, 152.644409, 19.19335)" bx:origin="-30.517132 -2.723144"> </text>
  <text style="white-space: pre; fill: rgb(51, 51, 51); font-family: Arial, sans-serif; font-size: 22.7px;" x="-146.278" y="190.774" transform="matrix(0.370231, 0, 0, 0.092092, 152.644409, 19.19335)" bx:origin="-42.128053 -14.876025"> </text>
  <text style="white-space: pre; fill: rgb(51, 51, 51); font-family: Arial, sans-serif; font-size: 22.7px;" x="-95.021" y="210.238" transform="matrix(0.370231, 0, 0, 0.092092, 152.644409, 19.19335)" bx:origin="-50.24542 -15.641936"> </text>
  <text style="white-space: pre; fill: rgb(51, 51, 51); font-family: Arial, sans-serif; font-size: 22.7px;" x="-135.248" y="201.155" transform="matrix(0.370231, 0, 0, 0.092092, 152.644409, 19.19335)" bx:origin="-43.87483 -15.284519"> </text>
  <text style="white-space: pre; fill: rgb(51, 51, 51); font-family: Arial, sans-serif; font-size: 22.7px;" x="-150.82" y="170.011" transform="matrix(0.370231, 0, 0, 0.092092, 152.644409, 19.19335)" bx:origin="-41.408753 -14.059"> </text>
  <text style="white-space: pre; fill: rgb(51, 51, 51); font-family: Arial, sans-serif; font-size: 22.7px;" x="-138.492" y="202.453" transform="matrix(0.370231, 0, 0, 0.092092, 152.644409, 19.19335)" bx:origin="-43.36109 -15.335596"> </text>
</svg>