<svg width="30" height="26" viewBox="0 0 30 26" fill="none" xmlns="http://www.w3.org/2000/svg">
<path d="M14.3582 24.9312C14.5274 25.104 14.7578 25.2 14.999 25.2C15.2402 25.2 15.4706 25.104 15.6398 24.9312L27.1526 13.266C30.1418 10.2384 30.1418 5.31 27.1526 2.2812C25.7006 0.81 23.7698 0 21.7142 0C19.6586 0 17.729 0.81 16.277 2.28L14.999 3.576L13.721 2.2812C12.269 0.81 10.3382 0 8.28382 0C6.22822 0 4.29742 0.81 2.84542 2.2812C-0.143785 5.31 -0.143785 10.2384 2.84542 13.2648L14.3582 24.9312ZM4.12582 3.5448C5.23702 2.4204 6.71422 1.8 8.28262 1.8C9.85222 1.8 11.3282 2.4204 12.4382 3.546L14.357 5.49C14.6942 5.832 15.3002 5.832 15.6374 5.49L17.5562 3.5448C18.6698 2.4204 20.1458 1.8 21.7142 1.8C23.2838 1.8 24.7598 2.4204 25.871 3.5448C28.1714 5.8764 28.1714 9.6696 25.871 12.0024L14.999 23.0196L4.12582 12.0012C1.82542 9.6708 1.82542 5.8764 4.12582 3.5448Z" fill="white"/>
</svg>
