<svg width="50" height="50" viewBox="0 0 50 50" fill="none" xmlns="http://www.w3.org/2000/svg">
<path d="M22.4718 29.9443C21.7788 29.2528 21.2309 28.4299 20.8602 27.5239C20.4894 26.6178 20.3032 25.6469 20.3126 24.668V21.1992C20.3078 20.3751 20.5041 19.5623 20.8843 18.8311C21.2658 18.1015 21.8235 17.4789 22.5067 17.0195C22.9003 16.7552 23.3134 16.5212 23.7425 16.3196C23.5598 16.0696 23.3891 15.8241 23.2342 15.585L23.2313 15.5859C21.9199 15.7863 20.6696 16.276 19.5709 17.0195C18.8895 17.4791 18.3339 18.1018 17.9549 18.8311C17.5745 19.5622 17.3782 20.3751 17.3829 21.1992V24.668C17.3801 25.7708 17.6224 26.8604 18.0922 27.8581C18.5621 28.8558 19.2478 29.7366 20.0998 30.4369C20.9517 31.1371 21.9486 31.6393 23.0184 31.9071C24.0882 32.1749 25.2041 32.2016 26.2855 31.9854C24.8403 31.6974 23.513 30.9871 22.4718 29.9443Z" fill="#D4E1F4"/>
<path d="M25.1316 10.6082C25.0592 10.6342 24.9926 10.6743 24.9357 10.7261C24.8788 10.7779 24.8326 10.8404 24.7999 10.9101C24.7671 10.9797 24.7484 11.0551 24.7448 11.132C24.7412 11.2088 24.7527 11.2857 24.7788 11.3581C24.8097 11.4437 25.5561 13.4806 27.4675 15.7417C27.5681 15.8593 27.7112 15.9323 27.8655 15.9448C28.0198 15.9572 28.1728 15.9081 28.291 15.8082C28.4092 15.7083 28.4831 15.5656 28.4965 15.4114C28.5098 15.2572 28.4617 15.1039 28.3624 14.9851C26.5955 12.8953 25.888 10.9793 25.8812 10.9601C25.8284 10.8141 25.7197 10.695 25.5792 10.629C25.4386 10.563 25.2776 10.5555 25.1316 10.6082Z" fill="#04AF49"/>
<path d="M36.5727 34.0821H29.5903V31.1116C30.6193 30.3821 31.4581 29.416 32.0359 28.2947C32.6137 27.1734 32.9137 25.9297 32.9106 24.6683V23.8597C32.9106 23.8987 33.0725 23.9389 33.1666 23.9778C33.2337 24.0073 33.3063 24.0226 33.3796 24.0227C33.4948 24.0225 33.6074 23.988 33.7029 23.9236C33.7983 23.8591 33.8724 23.7676 33.9156 23.6608C33.9746 23.5169 33.974 23.3554 33.9141 23.2119C33.8541 23.0683 33.7396 22.9544 33.5958 22.8952C28.2117 20.6648 25.3613 17.6742 23.9196 15.5581C22.3691 13.2827 22.0664 11.5012 22.0605 11.465C22.0369 11.3114 21.9533 11.1733 21.828 11.0813C21.7026 10.9893 21.5459 10.9509 21.3922 10.9745C21.2385 10.998 21.1005 11.0817 21.0085 11.207C20.9165 11.3323 20.8781 11.4891 20.9016 11.6428C20.9124 11.713 21.1458 13.1693 22.2964 15.1747C21.2076 15.4457 20.1748 15.9056 19.2448 16.5333C18.561 16.9923 17.9872 17.5969 17.5645 18.3038C17.1419 19.0107 16.8809 19.8023 16.8003 20.622C16.7491 20.6266 16.6933 20.6338 16.643 20.6423C16.4233 20.0124 16.3104 19.3501 16.309 18.683V17.3857C16.309 14.99 17.2608 12.6924 18.9548 10.9983C20.6489 9.30425 22.9465 8.35254 25.3422 8.35254C27.738 8.35254 30.0356 9.30425 31.7297 10.9983C33.4237 12.6924 34.3754 14.99 34.3754 17.3857V18.0229C34.3754 18.1783 34.4372 18.3273 34.5471 18.4372C34.6569 18.5471 34.806 18.6088 34.9614 18.6088C35.1168 18.6088 35.2658 18.5471 35.3757 18.4372C35.4856 18.3273 35.5473 18.1783 35.5473 18.0229V17.3857C35.5498 15.6112 35.0896 13.8667 34.2121 12.3243C33.3346 10.7819 32.0701 9.49495 30.5434 8.59043C30.5817 8.34426 30.6027 8.0957 30.6061 7.84658C30.6061 7.15767 30.4704 6.4755 30.2068 5.83903C29.9432 5.20255 29.5567 4.62424 29.0696 4.1371C28.5825 3.64997 28.0041 3.26355 27.3677 2.99991C26.7312 2.73628 26.049 2.60059 25.3601 2.60059C24.6712 2.60059 23.989 2.73628 23.3526 2.99991C22.7161 3.26355 22.1378 3.64997 21.6506 4.1371C21.1635 4.62424 20.7771 5.20255 20.5135 5.83903C20.2498 6.4755 20.1141 7.15767 20.1141 7.84658C20.1134 8.09524 20.1303 8.34364 20.1644 8.58994C18.6347 9.49312 17.3666 10.7792 16.485 12.3216C15.6035 13.8639 15.139 15.6093 15.1372 17.3857V18.683C15.1378 19.5594 15.2996 20.4283 15.6144 21.2462C15.5663 21.3646 15.5582 21.4954 15.5914 21.6188C15.6247 21.7422 15.6974 21.8513 15.7985 21.9295C15.8995 22.0077 16.0234 22.0506 16.1512 22.0518C16.279 22.0529 16.4037 22.0122 16.5061 21.9358C16.6446 21.8337 16.8119 21.7783 16.9839 21.7774H17.3571C17.4338 21.7779 17.5099 21.7631 17.5809 21.7341C17.652 21.705 17.7166 21.6622 17.771 21.6081C17.8255 21.554 17.8687 21.4897 17.8982 21.4189C17.9277 21.348 17.943 21.2721 17.943 21.1953C17.9395 20.4669 18.1159 19.7489 18.4566 19.1051C18.7973 18.4613 19.2918 17.9117 19.8962 17.505C20.8291 16.879 21.8772 16.4448 22.9795 16.2275C24.3867 18.2885 26.9536 21.0878 31.7387 23.3321V24.6681C31.7387 26.494 31.0134 28.2452 29.7222 29.5363C28.4311 30.8275 26.6799 31.5528 24.854 31.5528C23.028 31.5528 21.2768 30.8275 19.9857 29.5363C18.6946 28.2452 17.9692 26.494 17.9692 24.6681V23.9972C17.9692 23.6736 17.6807 23.4376 17.3571 23.4376H16.9839C16.9426 23.4332 16.9016 23.4258 16.8613 23.4153C16.7856 23.4031 16.7082 23.406 16.6337 23.4239C16.5591 23.4417 16.4888 23.4741 16.4268 23.5193C16.3648 23.5644 16.3124 23.6214 16.2726 23.6869C16.2327 23.7524 16.2063 23.8252 16.1947 23.901C16.1745 24.0558 16.2162 24.2123 16.3108 24.3365C16.4053 24.4607 16.5451 24.5425 16.6997 24.5643C16.7317 24.5713 16.7646 24.5739 16.7973 24.5718V24.6683C16.7973 27.4601 18.1645 29.9235 20.4106 31.3675V34.0821H13.4287C12.6385 34.0828 11.8562 34.2393 11.1265 34.5425C10.3969 34.8458 9.73418 35.29 9.17632 35.8496C8.61847 36.4092 8.17641 37.0733 7.87545 37.8039C7.57448 38.5346 7.4205 39.3173 7.42233 40.1075V48.3222C7.41931 48.3987 7.43145 48.4751 7.45806 48.5469C7.48466 48.6187 7.52521 48.6846 7.57735 48.7407C7.6295 48.7968 7.69223 48.8421 7.76192 48.8738C7.83162 48.9056 7.9069 48.9233 7.98346 48.9259H42.0174C42.094 48.9233 42.1693 48.9056 42.2391 48.8738C42.3088 48.842 42.3715 48.7967 42.4237 48.7406C42.4758 48.6844 42.5164 48.6185 42.543 48.5466C42.5695 48.4748 42.5816 48.3983 42.5786 48.3218V40.1075C42.5804 39.3174 42.4264 38.5346 42.1255 37.8041C41.8246 37.0735 41.3826 36.4094 40.8248 35.8498C40.2669 35.2902 39.6043 34.846 38.8747 34.5427C38.1451 34.2394 37.3628 34.0829 36.5727 34.0821V34.0821ZM25.3659 3.76895C26.447 3.77003 27.4836 4.19998 28.2481 4.96444C29.0126 5.7289 29.4426 6.76543 29.4438 7.84658C29.4438 7.90283 29.442 7.95908 29.4396 8.01533C28.1545 7.45609 26.768 7.16748 25.3664 7.16748C23.9649 7.16748 22.5784 7.45609 21.2932 8.01533C21.291 7.95918 21.2885 7.90303 21.2885 7.84678C21.2896 6.76569 21.7196 5.7292 22.484 4.96471C23.2484 4.20023 24.2848 3.77019 25.3659 3.76895V3.76895ZM21.5825 32.0138C22.6607 32.5043 23.8363 32.7435 25.0205 32.7133C26.2047 32.6832 27.3665 32.3845 28.4184 31.8397V34.6778L27.6176 38.6015C25.9266 39.2399 24.061 39.2407 22.3694 38.6037L21.5825 34.6783V32.0138ZM13.0864 47.754V46.0938C13.0864 45.9384 13.0247 45.7894 12.9148 45.6795C12.8049 45.5696 12.6559 45.5079 12.5005 45.5079C12.3451 45.5079 12.196 45.5696 12.0861 45.6795C11.9762 45.7894 11.9145 45.9384 11.9145 46.0938V47.754H8.5942V40.1075C8.59189 39.4153 8.73818 38.7306 9.02321 38.0997C9.30823 37.4688 9.72534 36.9065 10.2463 36.4507C11.3346 37.8824 11.9209 39.6328 11.9145 41.4312V42.1876C11.9145 42.343 11.9762 42.492 12.0861 42.6019C12.196 42.7118 12.3451 42.7735 12.5005 42.7735C12.6559 42.7735 12.8049 42.7118 12.9148 42.6019C13.0247 42.492 13.0864 42.343 13.0864 42.1876V41.4311C13.0903 39.3965 12.4313 37.4162 11.2089 35.7897C11.8953 35.4361 12.6566 35.2524 13.4287 35.254H20.4599L23.0696 47.754H13.0864ZM24.2664 47.754L22.6343 39.9352C24.1808 40.3662 25.8157 40.3665 27.3624 39.936L25.7231 47.754H24.2664ZM36.8169 47.754H26.9206L29.5415 35.254H36.5727C37.3023 35.2522 38.0225 35.4181 38.6778 35.7388C37.4759 37.3507 36.8235 39.306 36.8169 41.3167V47.754ZM41.4067 47.754H37.9887V41.3167C37.9907 39.5322 38.5742 37.7969 39.6509 36.3737C40.1999 36.8289 40.6419 37.3994 40.9453 38.0448C41.2488 38.6901 41.4063 39.3944 41.4067 40.1075V47.754Z" fill="#04AF49"/>
<path d="M15.4297 39.3613C15.5851 39.3613 15.7341 39.2996 15.844 39.1897C15.9539 39.0798 16.0156 38.9308 16.0156 38.7754V38.1602C16.0156 38.0048 15.9539 37.8557 15.844 37.7458C15.7341 37.636 15.5851 37.5742 15.4297 37.5742C15.2743 37.5742 15.1253 37.636 15.0154 37.7458C14.9055 37.8557 14.8438 38.0048 14.8438 38.1602V38.7754C14.8438 38.9308 14.9055 39.0798 15.0154 39.1897C15.1253 39.2996 15.2743 39.3613 15.4297 39.3613Z" fill="#04AF49"/>
<path d="M15.4297 45.709C15.5851 45.709 15.7341 45.6472 15.844 45.5374C15.9539 45.4275 16.0156 45.2784 16.0156 45.123V40.6309C16.0156 40.4755 15.9539 40.3264 15.844 40.2165C15.7341 40.1067 15.5851 40.0449 15.4297 40.0449C15.2743 40.0449 15.1253 40.1067 15.0154 40.2165C14.9055 40.3264 14.8438 40.4755 14.8438 40.6309V45.123C14.8438 45.2784 14.9055 45.4275 15.0154 45.5374C15.1253 45.6472 15.2743 45.709 15.4297 45.709Z" fill="#04AF49"/>
<path d="M38.281 18.4622V14.3313C38.281 7.03115 32.2996 1.09229 24.9997 1.09229C17.6998 1.09229 11.7185 7.03115 11.7185 14.331V18.4618C11.0745 18.8584 10.574 19.4502 10.29 20.1511C10.006 20.852 9.95335 21.6253 10.1396 22.3583L11.5485 27.7099C11.785 28.6094 12.3688 29.3783 13.1717 29.8477C13.9746 30.3171 14.931 30.4486 15.8309 30.2133L18.236 29.5853C18.3105 29.5659 18.3805 29.532 18.4419 29.4856C18.5033 29.4391 18.555 29.3811 18.5939 29.3147C18.6329 29.2483 18.6584 29.1748 18.6689 29.0986C18.6795 29.0223 18.6749 28.9447 18.6555 28.8702L15.783 17.8745C15.7438 17.7242 15.6464 17.5956 15.5124 17.517C15.3707 17.4384 15.2043 17.4165 15.0471 17.4558L12.8903 18.0138V14.331C12.8903 7.67734 18.346 2.26416 24.9997 2.26416C31.6534 2.26416 37.1091 7.67734 37.1091 14.331V18.0138L34.9523 17.4558C34.7985 17.4165 34.6354 17.4384 34.4975 17.517C34.362 17.5952 34.2628 17.7237 34.2214 17.8745L31.3459 28.8701C31.3252 28.9438 31.3194 29.0208 31.3287 29.0967C31.338 29.1726 31.3622 29.246 31.4001 29.3125C31.4379 29.379 31.4885 29.4373 31.549 29.4841C31.6095 29.5309 31.6787 29.5653 31.7525 29.5852L33.7888 30.1203V31.9635C33.7902 32.1412 33.7559 32.3174 33.6879 32.4816C33.6199 32.6458 33.5197 32.7946 33.3931 32.9194C33.2665 33.0441 33.1161 33.1421 32.9509 33.2076C32.7857 33.2731 32.609 33.3048 32.4314 33.3007H29.1013V32.8602C29.1057 32.7522 29.0882 32.6445 29.0496 32.5436C29.0111 32.4427 28.9525 32.3506 28.8773 32.2731C28.8021 32.1955 28.7119 32.1341 28.6122 32.0925C28.5125 32.0509 28.4054 32.03 28.2974 32.0312H24.4145C23.9469 32.0312 23.5349 32.3925 23.5349 32.8602V35.0152C23.5349 35.4828 23.9469 35.8398 24.4145 35.8398H28.2974C28.4051 35.8414 28.5121 35.821 28.6118 35.7799C28.7114 35.7388 28.8016 35.6778 28.8769 35.6006C28.9521 35.5234 29.0108 35.4317 29.0494 35.3311C29.088 35.2304 29.1056 35.1229 29.1013 35.0152V34.4726H32.4314C32.7629 34.4765 33.0919 34.4144 33.3992 34.2899C33.7065 34.1654 33.9859 33.9811 34.2213 33.7476C34.4567 33.5141 34.6433 33.2361 34.7702 32.9298C34.8971 32.6235 34.9619 32.295 34.9606 31.9635V30.3252C34.9606 30.3252 35.0172 30.3273 35.0399 30.3273C35.8152 30.3265 36.5685 30.0694 37.1825 29.5961C37.7965 29.1227 38.2368 28.4597 38.435 27.7102L39.857 22.3586C40.0438 21.6259 39.9917 20.8528 39.7082 20.1519C39.4246 19.451 38.9246 18.859 38.281 18.4622V18.4622ZM12.6929 27.4135L11.2946 22.0619C11.1547 21.5235 11.2116 20.9528 11.4551 20.4527C11.6986 19.9525 12.1127 19.5557 12.6228 19.3338L15.1856 29.1431C14.6322 29.1991 14.0769 29.0557 13.6199 28.7386C13.1628 28.4215 12.8341 27.9515 12.6929 27.4135V27.4135ZM17.3742 28.5994L16.3267 28.8729L13.7497 19.0114L14.7973 18.738L17.3742 28.5994ZM27.9294 34.6679H24.7067V33.203H27.9294V34.6679ZM35.2018 18.7377L36.2493 19.0111L33.6728 28.8731L32.6252 28.5997L35.2018 18.7377ZM38.7048 22.062L37.3065 27.4136C37.1653 27.9517 36.8365 28.4217 36.3793 28.7388C35.9222 29.056 35.3668 29.1994 34.8133 29.1432L37.3762 19.3339C37.8864 19.5557 38.3006 19.9525 38.5441 20.4527C38.7877 20.9528 38.8447 21.5236 38.7048 22.062Z" fill="#01411C"/>
</svg>
