<svg width="50" height="50" viewBox="0 0 50 50" fill="none" xmlns="http://www.w3.org/2000/svg">
<path d="M27.7172 34.1205H9.44437C7.15484 34.1185 5.29903 32.2697 5.29701 29.9883V6.00805C5.29701 5.81578 5.31082 5.62351 5.33776 5.43359C3.29169 5.72216 1.76994 7.46567 1.76758 9.52459V33.5055C1.76994 35.7865 3.6254 37.6347 5.91426 37.6374H28.7945L27.7172 34.1205Z" fill="#D4E1F4"/>
<path d="M39.6879 9.55432V24.0258C39.1895 23.9399 38.6854 23.8913 38.1796 23.8798V14.7432H3.06004V33.0215C3.0624 34.9767 4.65285 36.5608 6.61507 36.5639H27.6566C27.7664 37.0752 27.9156 37.5776 28.1028 38.0665H6.61507C3.82008 38.0628 1.55546 35.8062 1.55176 33.0215V9.55432C1.55513 6.76894 3.82008 4.51239 6.61507 4.50903H34.6246C37.4196 4.51205 39.6848 6.76894 39.6879 9.55432V9.55432ZM38.1796 13.2403V9.55432C38.1776 7.59909 36.5871 6.01396 34.6246 6.01195H6.61507C4.65285 6.0143 3.0624 7.59909 3.06004 9.55432V13.2403H38.1796Z" fill="#01411C"/>
<path d="M39.6876 24.0258C39.1893 23.9399 38.6851 23.8912 38.1794 23.8798C38.0945 23.8771 38.008 23.8765 37.9217 23.8765C37.5052 23.8765 37.1678 24.2127 37.1678 24.6278C37.1678 25.0428 37.5052 25.3794 37.9217 25.3794C38.2319 25.3794 38.538 25.3952 38.8407 25.4254C43.3083 25.884 46.7522 29.5559 46.9095 34.0284C47.0671 38.501 43.8902 42.4044 39.4661 43.1745C35.0419 43.9442 30.7255 41.3454 29.3519 37.0843C29.2596 36.7974 29.1822 36.5065 29.1206 36.2115H30.4851C30.7605 36.2112 31.0137 36.0619 31.1464 35.8213C31.2784 35.581 31.2687 35.2878 31.1212 35.0562L28.9418 31.6474C28.803 31.4303 28.5632 31.2991 28.3053 31.2991C28.0477 31.2991 27.8079 31.4303 27.6695 31.6474L25.4901 35.0562C25.3419 35.2878 25.3328 35.5814 25.4652 35.822C25.5979 36.0622 25.8511 36.2115 26.1269 36.2115H27.5867C27.6079 36.3293 27.6305 36.4477 27.6564 36.5638C27.7662 37.0752 27.9153 37.5775 28.1026 38.0664C29.9109 42.8037 34.8654 45.5689 39.8644 44.6317C44.8627 43.6942 48.4696 39.3234 48.4262 34.2549C48.3827 29.1868 44.7014 24.8777 39.6876 24.0258V24.0258ZM27.5012 34.7086L28.3063 33.4496L29.1108 34.7086H27.5012Z" fill="#04AF49"/>
<path d="M37.4096 29.0022C36.9927 29.0022 36.6553 29.3384 36.6553 29.7535V35.1092C36.6553 35.5239 36.9927 35.8605 37.4096 35.8605H41.5044C41.9206 35.8605 42.2584 35.5239 42.2584 35.1092C42.2584 34.6941 41.9206 34.3575 41.5044 34.3575H38.1636V29.7535C38.1632 29.3388 37.8258 29.0025 37.4096 29.0022Z" fill="#04AF49"/>
<path d="M18.4511 7.58057H18.445C17.2809 7.57822 16.3357 8.51708 16.334 9.67707C16.332 10.8374 17.2742 11.7789 18.4386 11.7806H18.445C19.6058 11.7796 20.5477 10.8441 20.5531 9.68747C20.5561 8.52782 19.6156 7.5846 18.4511 7.58057ZM18.445 10.278H18.4437C18.113 10.277 17.845 10.0086 17.846 9.67875C17.8473 9.34991 18.115 9.08382 18.445 9.08315H18.4471C18.7781 9.08382 19.0461 9.35159 19.0455 9.68177C19.0451 10.0116 18.7761 10.2784 18.445 10.278Z" fill="#04AF49"/>
<path d="M12.3714 7.56226H12.3646C11.2008 7.56058 10.2556 8.49944 10.2539 9.65909C10.2522 10.8191 11.1944 11.7606 12.3586 11.7623H12.3646C13.5257 11.7606 14.4679 10.8251 14.473 9.66849V9.66178C14.4717 8.50481 13.5325 7.56662 12.3714 7.56226ZM12.3646 10.2597H12.3626C12.0316 10.2591 11.7639 9.99129 11.7642 9.66111C11.7646 9.33126 12.0336 9.0645 12.3646 9.06484H12.367C12.698 9.06585 12.9657 9.33428 12.9647 9.66379C12.963 9.99296 12.695 10.2591 12.3646 10.2597Z" fill="#04AF49"/>
<path d="M6.29129 7.54273H6.28489C5.12076 7.54105 4.17585 8.47991 4.17383 9.6399C4.17215 10.7995 5.11436 11.7414 6.27815 11.7431H6.28489C7.44565 11.7418 8.38686 10.8063 8.39191 9.64996V9.64224C8.39123 8.48595 7.45239 7.54742 6.29129 7.54273ZM6.28489 10.2402H6.28287C5.95185 10.2399 5.6838 9.97175 5.68413 9.64191C5.68481 9.31173 5.95387 9.04464 6.28489 9.04564H6.28725C6.61827 9.04598 6.88598 9.31408 6.88564 9.64392C6.88463 9.9741 6.61591 10.2412 6.28489 10.2402Z" fill="#04AF49"/>
</svg>
