<svg width="50" height="50" viewBox="0 0 50 50" fill="none" xmlns="http://www.w3.org/2000/svg">
<g clip-path="url(#clip0_974_16271)">
<path d="M22.036 30.7526C21.7625 30.7531 21.502 30.633 21.3245 30.4247L16.3825 24.6375C16.0468 24.2444 16.0932 23.6539 16.4864 23.3182C16.8795 22.983 17.47 23.0295 17.8057 23.4221L22.154 28.5144L32.9543 19.7279C33.3552 19.4016 33.9446 19.4621 34.2704 19.8631C34.5967 20.264 34.5361 20.8535 34.1352 21.1792L22.6255 30.5427C22.4595 30.6784 22.2511 30.7526 22.036 30.7526Z" fill="#01411C"/>
<path d="M21.7271 48.8169L24.2634 49.9221C24.5004 50.0255 24.7703 50.026 25.0078 49.9232L27.8657 48.689C37.9 44.4748 44.4281 34.6534 44.4291 23.7702V10.9496C44.4291 10.6039 44.2386 10.286 43.9337 10.1236L25.1415 0.110175C24.8627 -0.038617 24.5286 -0.0365288 24.2519 0.115396L5.97967 10.1288C5.68 10.2933 5.49414 10.6076 5.49414 10.9496V24.0297C5.5051 34.7819 11.8755 44.5092 21.7271 48.8169V48.8169ZM7.36527 11.5035L24.7076 1.99853L42.558 11.5103V23.7702C42.5559 33.9032 36.4763 43.0464 27.1332 46.9677L27.1264 46.9708L24.6382 48.0453L22.4758 47.1019C13.3055 43.0923 7.37519 34.0384 7.36474 24.0297L7.36527 11.5035Z" fill="#04AF49"/>
<path d="M31.1423 41.6212L31.136 41.6238L28.6473 42.6988L26.4848 41.7559C17.3145 37.7463 11.3843 28.6925 11.3738 18.6837V9.30615L7.36426 11.5036V24.0298C7.3747 34.0385 13.305 43.0924 22.4753 47.102L24.6372 48.0448L27.1259 46.9699L27.1322 46.9673C32.3112 44.7865 36.6147 40.9409 39.3614 36.0391C37.0172 38.424 34.2236 40.3212 31.1423 41.6212Z" fill="#D4E1F4"/>
</g>
<defs>
<clipPath id="clip0_974_16271">
<rect width="50" height="50" fill="white"/>
</clipPath>
</defs>
</svg>
