<svg width="19" height="19" viewBox="0 0 19 19" fill="none" xmlns="http://www.w3.org/2000/svg">
<path fill-rule="evenodd" clip-rule="evenodd" d="M5.54164 8.70828H3.16665C2.3268 8.70828 1.52135 8.37466 0.92749 7.78079C0.333628 7.18693 0 6.38148 0 5.54164V3.16665C0 2.3268 0.333628 1.52135 0.92749 0.927491C1.52135 0.333629 2.3268 0 3.16665 0H5.54164C6.38148 0 7.18693 0.333629 7.78079 0.927491C8.37466 1.52135 8.70828 2.3268 8.70828 3.16665V5.54164C8.70828 6.38148 8.37466 7.18693 7.78079 7.78079C7.18693 8.37466 6.38148 8.70828 5.54164 8.70828ZM7.12496 3.16665C7.12496 2.74673 6.95815 2.344 6.66121 2.04707C6.36428 1.75014 5.96156 1.58332 5.54164 1.58332H3.16665C2.74673 1.58332 2.344 1.75014 2.04707 2.04707C1.75014 2.344 1.58332 2.74673 1.58332 3.16665V5.54164C1.58332 5.96156 1.75014 6.36428 2.04707 6.66121C2.344 6.95815 2.74673 7.12496 3.16665 7.12496H5.54164C5.96156 7.12496 6.36428 6.95815 6.66121 6.66121C6.95815 6.36428 7.12496 5.96156 7.12496 5.54164V3.16665ZM3.16665 18.9995H5.54164C6.38148 18.9995 7.18693 18.6659 7.78079 18.072C8.37466 17.4782 8.70828 16.6727 8.70828 15.8329V13.4579C8.70828 12.6181 8.37466 11.8126 7.78079 11.2187C7.18693 10.6249 6.38148 10.2913 5.54164 10.2913H3.16665C2.3268 10.2913 1.52135 10.6249 0.92749 11.2187C0.333628 11.8126 0 12.6181 0 13.4579V15.8329C0 16.6727 0.333628 17.4782 0.92749 18.072C1.52135 18.6659 2.3268 18.9995 3.16665 18.9995ZM6.66121 12.3383C6.95815 12.6353 7.12496 13.038 7.12496 13.4579V15.8329C7.12496 16.2528 6.95815 16.6555 6.66121 16.9525C6.36428 17.2494 5.96156 17.4162 5.54164 17.4162H3.16665C2.74673 17.4162 2.344 17.2494 2.04707 16.9525C1.75014 16.6555 1.58332 16.2528 1.58332 15.8329V13.4579C1.58332 13.038 1.75014 12.6353 2.04707 12.3383C2.344 12.0414 2.74673 11.8746 3.16665 11.8746H5.54164C5.96156 11.8746 6.36428 12.0414 6.66121 12.3383ZM13.4583 18.9995H15.8333C16.6731 18.9995 17.4786 18.6659 18.0724 18.072C18.6663 17.4782 18.9999 16.6727 18.9999 15.8329V13.4579C18.9999 12.6181 18.6663 11.8126 18.0724 11.2187C17.4786 10.6249 16.6731 10.2913 15.8333 10.2913H13.4583C12.6185 10.2913 11.813 10.6249 11.2191 11.2187C10.6253 11.8126 10.2917 12.6181 10.2917 13.4579V15.8329C10.2917 16.6727 10.6253 17.4782 11.2191 18.072C11.813 18.6659 12.6185 18.9995 13.4583 18.9995ZM16.9529 12.3383C17.2498 12.6353 17.4166 13.038 17.4166 13.4579V15.8329C17.4166 16.2528 17.2498 16.6555 16.9529 16.9525C16.6559 17.2494 16.2532 17.4162 15.8333 17.4162H13.4583C13.0384 17.4162 12.6357 17.2494 12.3387 16.9525C12.0418 16.6555 11.875 16.2528 11.875 15.8329V13.4579C11.875 13.038 12.0418 12.6353 12.3387 12.3383C12.6357 12.0414 13.0384 11.8746 13.4583 11.8746H15.8333C16.2532 11.8746 16.6559 12.0414 16.9529 12.3383ZM13.4583 8.70828H15.8333C16.6731 8.70828 17.4786 8.37466 18.0724 7.78079C18.6663 7.18693 18.9999 6.38148 18.9999 5.54164V3.16665C18.9999 2.3268 18.6663 1.52135 18.0724 0.927491C17.4786 0.333629 16.6731 0 15.8333 0H13.4583C12.6185 0 11.813 0.333629 11.2191 0.927491C10.6253 1.52135 10.2917 2.3268 10.2917 3.16665V5.54164C10.2917 6.38148 10.6253 7.18693 11.2191 7.78079C11.813 8.37466 12.6185 8.70828 13.4583 8.70828ZM16.9529 2.04707C17.2498 2.344 17.4166 2.74673 17.4166 3.16665V5.54164C17.4166 5.96156 17.2498 6.36428 16.9529 6.66121C16.6559 6.95815 16.2532 7.12496 15.8333 7.12496H13.4583C13.0384 7.12496 12.6357 6.95815 12.3387 6.66121C12.0418 6.36428 11.875 5.96156 11.875 5.54164V3.16665C11.875 2.74673 12.0418 2.344 12.3387 2.04707C12.6357 1.75014 13.0384 1.58332 13.4583 1.58332H15.8333C16.2532 1.58332 16.6559 1.75014 16.9529 2.04707Z" fill="#04AF49"/>
</svg>
