<svg width="22" height="22" viewBox="0 0 22 22" fill="none" xmlns="http://www.w3.org/2000/svg">
<path d="M21.8457 7.88844C21.6582 7.29149 21.2835 6.77074 20.7771 6.4032C20.2707 6.03566 19.6595 5.84085 19.0338 5.84757H15.0282L13.8115 2.05555C13.6202 1.45865 13.2443 0.937945 12.7379 0.568508C12.2315 0.199072 11.6209 0 10.9941 0C10.3673 0 9.75669 0.199072 9.25032 0.568508C8.74396 0.937945 8.36801 1.45865 8.17669 2.05555L6.96005 5.84757H2.95441C2.33072 5.84846 1.72327 6.04642 1.21882 6.41317C0.71437 6.77992 0.338719 7.29671 0.145525 7.88971C-0.0476699 8.48272 -0.048525 9.12161 0.143081 9.71513C0.334688 10.3087 0.708954 10.8264 1.21242 11.1945L4.47268 13.5783L3.23312 17.4171C3.03281 18.0125 3.03027 18.6566 3.22589 19.2536C3.42151 19.8505 3.80481 20.3683 4.31865 20.7296C4.82369 21.1026 5.43571 21.3023 6.06353 21.2992C6.69134 21.2961 7.30133 21.0902 7.80262 20.7122L10.9941 18.3633L14.1865 20.7094C14.6906 21.0802 15.2994 21.2817 15.9252 21.2847C16.551 21.2878 17.1616 21.0923 17.6694 20.7264C18.1771 20.3605 18.5557 19.8431 18.7508 19.2484C18.9459 18.6538 18.9474 18.0126 18.7551 17.4171L17.5155 13.5783L20.7795 11.1945C21.2887 10.8311 21.6673 10.3133 21.8594 9.71784C22.0514 9.1224 22.0466 8.48095 21.8457 7.88844ZM19.6976 9.71386L15.8983 12.4909C15.7422 12.6048 15.6261 12.765 15.5665 12.9487C15.5069 13.1325 15.5068 13.3304 15.5664 13.5141L17.0104 17.9791C17.0834 18.2056 17.0828 18.4494 17.0086 18.6755C16.9344 18.9015 16.7904 19.0983 16.5973 19.2373C16.4042 19.3764 16.172 19.4507 15.934 19.4495C15.6961 19.4483 15.4646 19.3716 15.273 19.2306L11.5369 16.4801C11.3795 16.3645 11.1894 16.3022 10.9941 16.3022C10.7989 16.3022 10.6087 16.3645 10.4513 16.4801L6.71525 19.2306C6.52371 19.3735 6.29162 19.4518 6.05263 19.4539C5.81363 19.4561 5.58016 19.3821 5.38606 19.2426C5.19195 19.1032 5.0473 18.9055 4.97308 18.6784C4.89886 18.4512 4.89893 18.2063 4.97327 17.9791L6.42187 13.5141C6.48139 13.3304 6.48134 13.1325 6.42174 12.9487C6.36214 12.765 6.24603 12.6048 6.08997 12.4909L2.29062 9.71386C2.09928 9.57376 1.95711 9.37678 1.88441 9.15105C1.81171 8.92532 1.8122 8.6824 1.88582 8.45697C1.95944 8.23154 2.10241 8.03514 2.29432 7.89582C2.48623 7.75651 2.71726 7.6814 2.95441 7.68124H7.63025C7.82436 7.68123 8.01346 7.61962 8.17031 7.50527C8.32717 7.39093 8.44368 7.22975 8.50308 7.04496L9.92417 2.61574C9.99711 2.38908 10.1401 2.19142 10.3325 2.0512C10.525 1.91097 10.7569 1.83542 10.995 1.83542C11.2331 1.83542 11.4651 1.91097 11.6575 2.0512C11.85 2.19142 11.9929 2.38908 12.0659 2.61574L13.487 7.04496C13.5464 7.22975 13.6629 7.39093 13.8197 7.50527C13.9766 7.61962 14.1657 7.68123 14.3598 7.68124H19.0357C19.2728 7.6814 19.5038 7.75651 19.6957 7.89582C19.8876 8.03514 20.0306 8.23154 20.1042 8.45697C20.1779 8.6824 20.1783 8.92532 20.1056 9.15105C20.033 9.37678 19.8908 9.57376 19.6994 9.71386H19.6976Z" fill="#04AF49"/>
</svg>
