<svg xmlns="http://www.w3.org/2000/svg" width="22" height="22" fill="none"><rect id="backgroundrect" width="100%" height="100%" x="0" y="0" fill="none" stroke="none"/>

<defs>
<clipPath id="clip0_993_23005">
<rect width="22" height="22" fill="white" transform="rotate(-180 22,22) " y="22" x="22" id="svg_1"/>
</clipPath>
</defs>
<g class="currentLayer" style=""><title>Layer 1</title><g clip-path="url(#clip0_993_23005)" id="svg_2" class="selected" fill-opacity="1" fill="#04af49">
<path d="M11.4803 8.25C11.7234 8.25 11.9566 8.15342 12.1285 7.98151C12.3004 7.80961 12.397 7.57645 12.397 7.33333V4.58333C12.397 3.85399 12.6867 3.15451 13.2025 2.63879C13.7182 2.12306 14.4177 1.83333 15.147 1.83333H17.4167C18.146 1.83333 18.8455 2.12306 19.3612 2.63879C19.8769 3.15451 20.1667 3.85399 20.1667 4.58333V17.4167C20.1667 18.146 19.8769 18.8455 19.3612 19.3612C18.8455 19.8769 18.146 20.1667 17.4167 20.1667H15.147C14.4177 20.1667 13.7182 19.8769 13.2025 19.3612C12.6867 18.8455 12.397 18.146 12.397 17.4167V14.6667C12.397 14.4236 12.3004 14.1904 12.1285 14.0185C11.9566 13.8466 11.7234 13.75 11.4803 13.75C11.2372 13.75 11.0041 13.8466 10.8322 14.0185C10.6602 14.1904 10.5637 14.4236 10.5637 14.6667V17.4167C10.5651 18.6318 11.0485 19.7967 11.9077 20.656C12.7669 21.5152 13.9319 21.9985 15.147 22H17.4167C18.6318 21.9985 19.7967 21.5152 20.656 20.656C21.5152 19.7967 21.9985 18.6318 22 17.4167V4.58333C21.9985 3.3682 21.5152 2.20326 20.656 1.34403C19.7967 0.484808 18.6318 0.00145531 17.4167 0H15.147C13.9319 0.00145531 12.7669 0.484808 11.9077 1.34403C11.0485 2.20326 10.5651 3.3682 10.5637 4.58333V7.33333C10.5637 7.57645 10.6602 7.80961 10.8322 7.98151C11.0041 8.15342 11.2372 8.25 11.4803 8.25Z" fill="#04af49" id="svg_3"/>
<path d="M1.03793 12.9441L5.24176 17.1479C5.32632 17.2354 5.42747 17.3053 5.53931 17.3533C5.65115 17.4014 5.77143 17.4266 5.89315 17.4277C6.01486 17.4288 6.13557 17.4056 6.24822 17.3595C6.36088 17.3134 6.46323 17.2453 6.54929 17.1592C6.63536 17.0732 6.70343 16.9708 6.74952 16.8582C6.79561 16.7455 6.8188 16.6248 6.81774 16.5031C6.81669 16.3814 6.7914 16.2611 6.74336 16.1493C6.69532 16.0374 6.62548 15.9363 6.53793 15.8517L2.6311 11.944L16.4993 11.9165C16.7425 11.9165 16.9756 11.8199 17.1475 11.648C17.3194 11.4761 17.416 11.2429 17.416 10.9998C17.416 10.7567 17.3194 10.5235 17.1475 10.3516C16.9756 10.1797 16.7425 10.0831 16.4993 10.0831L2.57701 10.1116L6.53977 6.14789C6.62732 6.06333 6.69715 5.96218 6.74519 5.85034C6.79323 5.7385 6.81852 5.61822 6.81958 5.4965C6.82063 5.37479 6.79744 5.25408 6.75135 5.14143C6.70526 5.02877 6.63719 4.92643 6.55113 4.84036C6.46506 4.75429 6.36271 4.68622 6.25006 4.64013C6.1374 4.59404 6.01669 4.57085 5.89498 4.57191C5.77327 4.57296 5.65298 4.59825 5.54114 4.64629C5.42931 4.69434 5.32816 4.76417 5.2436 4.85172L1.03976 9.05555C0.523975 9.57101 0.234028 10.2702 0.233685 10.9994C0.233341 11.7286 0.522629 12.4281 1.03793 12.9441Z" fill="#04af49" id="svg_4"/>
</g></g></svg>