<svg width="20" height="20" viewBox="0 0 20 20" fill="none" xmlns="http://www.w3.org/2000/svg">
<g clip-path="url(#clip0_442_24201)">
<path d="M10 0C4.48625 0 0 4.48625 0 10C0 15.5138 4.48625 20 10 20C15.5138 20 20 15.5138 20 10C20 4.48625 15.5138 0 10 0ZM10.625 18.7188V16.875C10.625 16.53 10.345 16.25 10 16.25C9.655 16.25 9.375 16.53 9.375 16.875V18.7188C5.05 18.41 1.59 14.9513 1.28125 10.625H3.125C3.47 10.625 3.75 10.345 3.75 10C3.75 9.655 3.47 9.375 3.125 9.375H1.28125C1.59 5.04875 5.05 1.59 9.375 1.28125V3.125C9.375 3.47 9.655 3.75 10 3.75C10.345 3.75 10.625 3.47 10.625 3.125V1.28125C14.95 1.58875 18.41 5.04875 18.7188 9.375H16.875C16.53 9.375 16.25 9.655 16.25 10C16.25 10.345 16.53 10.625 16.875 10.625H18.7188C18.41 14.9513 14.95 18.41 10.625 18.7188Z" fill="#697488"/>
<path d="M14.8162 5.18379C14.63 4.99754 14.3475 4.94754 14.1075 5.06004L8.16998 7.87254C8.16123 7.87754 8.15873 7.88879 8.14998 7.89254C8.09623 7.92129 8.04123 7.95004 7.99498 7.99504C7.94998 8.04129 7.92248 8.09504 7.89373 8.14879C7.88873 8.15754 7.87623 8.16129 7.87248 8.17004L5.05998 14.1075C4.94748 14.3463 4.99623 14.63 5.18373 14.8163C5.30248 14.9363 5.46248 15 5.62498 15C5.71498 15 5.80748 14.98 5.89248 14.94L11.83 12.1275C11.8387 12.1225 11.8412 12.1113 11.85 12.1075C11.9037 12.0788 11.9587 12.05 12.005 12.005C12.05 11.9588 12.0775 11.905 12.1062 11.8513C12.1112 11.8425 12.1237 11.8388 12.1275 11.83L14.94 5.89254C15.0525 5.65379 15.0037 5.37004 14.8162 5.18379ZM6.93873 13.0613L8.62249 9.50629L10.4937 11.3775L6.93873 13.0613ZM11.3775 10.4938L9.50624 8.62254L13.0612 6.93879L11.3775 10.4938Z" fill="#697488"/>
</g>
<defs>
<clipPath id="clip0_442_24201">
<rect width="20" height="20" fill="white"/>
</clipPath>
</defs>
</svg>
